<svg width="557" height="211" viewBox="0 0 557 211" fill="none" xmlns="http://www.w3.org/2000/svg">
<rect x="0.75" y="0.75" width="555.5" height="209.5" rx="15.25" fill="black" fill-opacity="0.25" stroke="white" stroke-width="0.5"/>
<rect x="39.8667" y="102.579" width="444.19" height="8.83297" fill="white"/>
<rect x="39.8667" y="122.012" width="388.666" height="8.83297" fill="white"/>
<rect x="39.8667" y="141.444" width="222.095" height="8.83297" fill="#C4C4C4"/>
<path d="M48.9761 67.2151H43.8198L43.8511 65.5745H48.9761C50.6115 65.5745 52.0177 65.2099 53.1948 64.4808C54.3823 63.7412 55.299 62.7204 55.9448 61.4183C56.5907 60.1162 56.9136 58.6058 56.9136 56.887V54.762C56.9136 53.4495 56.7261 52.262 56.3511 51.1995C55.9865 50.137 55.4604 49.2308 54.7729 48.4808C54.0854 47.7204 53.2625 47.137 52.3042 46.7308C51.3563 46.3245 50.2938 46.1214 49.1167 46.1214H43.7261V44.4651H49.1167C50.5334 44.4651 51.8302 44.7099 53.0073 45.1995C54.1948 45.6787 55.2209 46.3766 56.0854 47.2933C56.9604 48.1995 57.6323 49.2881 58.1011 50.5589C58.5802 51.8297 58.8198 53.2464 58.8198 54.8089V56.887C58.8198 58.4495 58.5802 59.8662 58.1011 61.137C57.6323 62.4079 56.9604 63.4964 56.0854 64.4026C55.2104 65.3089 54.174 66.0068 52.9761 66.4964C51.7782 66.9756 50.4448 67.2151 48.9761 67.2151ZM44.6792 44.4651V67.2151H42.7573V44.4651H44.6792ZM73.5698 64.1839V55.4651C73.5698 54.6631 73.4032 53.9704 73.0698 53.387C72.7365 52.8037 72.2469 52.3558 71.6011 52.0433C70.9552 51.7308 70.1584 51.5745 69.2104 51.5745C68.3354 51.5745 67.5542 51.7308 66.8667 52.0433C66.1896 52.3454 65.6532 52.7568 65.2573 53.2776C64.8719 53.7881 64.6792 54.3558 64.6792 54.9808L62.8042 54.9651C62.8042 54.3297 62.9604 53.7151 63.2729 53.1214C63.5854 52.5276 64.0282 51.9964 64.6011 51.5276C65.174 51.0589 65.8563 50.6891 66.6479 50.4183C67.45 50.137 68.3302 49.9964 69.2886 49.9964C70.4969 49.9964 71.5594 50.1995 72.4761 50.6058C73.4032 51.012 74.1271 51.6214 74.6479 52.4339C75.1688 53.2464 75.4292 54.2672 75.4292 55.4964V63.6683C75.4292 64.2516 75.4709 64.8558 75.5542 65.4808C75.6479 66.1058 75.7782 66.6214 75.9448 67.0276V67.2151H73.9604C73.8354 66.8401 73.7365 66.3714 73.6636 65.8089C73.6011 65.236 73.5698 64.6943 73.5698 64.1839ZM74.0073 57.3714L74.0386 58.8089H70.3667C69.4084 58.8089 68.549 58.8974 67.7886 59.0745C67.0386 59.2412 66.4032 59.4912 65.8823 59.8245C65.3615 60.1474 64.9604 60.5381 64.6792 60.9964C64.4084 61.4547 64.2729 61.9756 64.2729 62.5589C64.2729 63.1631 64.424 63.7151 64.7261 64.2151C65.0386 64.7151 65.4761 65.1162 66.0386 65.4183C66.6115 65.7099 67.2886 65.8558 68.0698 65.8558C69.1115 65.8558 70.0282 65.6631 70.8198 65.2776C71.6219 64.8922 72.2834 64.387 72.8042 63.762C73.325 63.137 73.674 62.4547 73.8511 61.7151L74.6636 62.7933C74.5282 63.3141 74.2782 63.8506 73.9136 64.4026C73.5594 64.9443 73.0959 65.4547 72.5229 65.9339C71.95 66.4026 71.2729 66.7881 70.4917 67.0901C69.7209 67.3818 68.8459 67.5276 67.8667 67.5276C66.7625 67.5276 65.799 67.3193 64.9761 66.9026C64.1636 66.486 63.5282 65.9183 63.0698 65.1995C62.6219 64.4704 62.3979 63.6474 62.3979 62.7308C62.3979 61.8974 62.575 61.1526 62.9292 60.4964C63.2834 59.8297 63.7938 59.2672 64.4604 58.8089C65.1375 58.3401 65.95 57.986 66.8979 57.7464C67.8563 57.4964 68.9292 57.3714 70.1167 57.3714H74.0073ZM86.8354 50.3089V51.8401H78.3667V50.3089H86.8354ZM81.4761 45.9651H83.3354V63.1058C83.3354 63.887 83.4396 64.4756 83.6479 64.8714C83.8563 65.2672 84.1271 65.5329 84.4604 65.6683C84.7938 65.8037 85.1532 65.8714 85.5386 65.8714C85.8198 65.8714 86.0907 65.8558 86.3511 65.8245C86.6115 65.7829 86.8459 65.7412 87.0542 65.6995L87.1323 67.2776C86.9032 67.3506 86.6063 67.4079 86.2417 67.4495C85.8771 67.5016 85.5125 67.5276 85.1479 67.5276C84.4292 67.5276 83.7938 67.3974 83.2417 67.137C82.6896 66.8662 82.2573 66.4079 81.9448 65.762C81.6323 65.1058 81.4761 64.2151 81.4761 63.0901V45.9651ZM101.039 64.1839V55.4651C101.039 54.6631 100.872 53.9704 100.539 53.387C100.205 52.8037 99.7157 52.3558 99.0698 52.0433C98.424 51.7308 97.6271 51.5745 96.6792 51.5745C95.8042 51.5745 95.0229 51.7308 94.3354 52.0433C93.6584 52.3454 93.1219 52.7568 92.7261 53.2776C92.3407 53.7881 92.1479 54.3558 92.1479 54.9808L90.2729 54.9651C90.2729 54.3297 90.4292 53.7151 90.7417 53.1214C91.0542 52.5276 91.4969 51.9964 92.0698 51.5276C92.6427 51.0589 93.325 50.6891 94.1167 50.4183C94.9188 50.137 95.799 49.9964 96.7573 49.9964C97.9657 49.9964 99.0282 50.1995 99.9448 50.6058C100.872 51.012 101.596 51.6214 102.117 52.4339C102.638 53.2464 102.898 54.2672 102.898 55.4964V63.6683C102.898 64.2516 102.94 64.8558 103.023 65.4808C103.117 66.1058 103.247 66.6214 103.414 67.0276V67.2151H101.429C101.304 66.8401 101.205 66.3714 101.132 65.8089C101.07 65.236 101.039 64.6943 101.039 64.1839ZM101.476 57.3714L101.507 58.8089H97.8354C96.8771 58.8089 96.0177 58.8974 95.2573 59.0745C94.5073 59.2412 93.8719 59.4912 93.3511 59.8245C92.8302 60.1474 92.4292 60.5381 92.1479 60.9964C91.8771 61.4547 91.7417 61.9756 91.7417 62.5589C91.7417 63.1631 91.8927 63.7151 92.1948 64.2151C92.5073 64.7151 92.9448 65.1162 93.5073 65.4183C94.0802 65.7099 94.7573 65.8558 95.5386 65.8558C96.5802 65.8558 97.4969 65.6631 98.2886 65.2776C99.0907 64.8922 99.7521 64.387 100.273 63.762C100.794 63.137 101.143 62.4547 101.32 61.7151L102.132 62.7933C101.997 63.3141 101.747 63.8506 101.382 64.4026C101.028 64.9443 100.565 65.4547 99.9917 65.9339C99.4188 66.4026 98.7417 66.7881 97.9604 67.0901C97.1896 67.3818 96.3146 67.5276 95.3354 67.5276C94.2313 67.5276 93.2677 67.3193 92.4448 66.9026C91.6323 66.486 90.9969 65.9183 90.5386 65.1995C90.0907 64.4704 89.8667 63.6474 89.8667 62.7308C89.8667 61.8974 90.0438 61.1526 90.3979 60.4964C90.7521 59.8297 91.2625 59.2672 91.9292 58.8089C92.6063 58.3401 93.4188 57.986 94.3667 57.7464C95.325 57.4964 96.3979 57.3714 97.5854 57.3714H101.476ZM129.039 61.6214C129.039 60.9964 128.934 60.4391 128.726 59.9495C128.518 59.4599 128.174 59.0224 127.695 58.637C127.226 58.2412 126.591 57.8766 125.789 57.5433C124.997 57.1995 124.007 56.861 122.82 56.5276C121.684 56.2047 120.658 55.8506 119.742 55.4651C118.825 55.0797 118.039 54.637 117.382 54.137C116.736 53.637 116.242 53.0537 115.898 52.387C115.554 51.7099 115.382 50.9235 115.382 50.0276C115.382 49.1526 115.57 48.3558 115.945 47.637C116.32 46.9183 116.846 46.2985 117.523 45.7776C118.21 45.2568 119.018 44.8558 119.945 44.5745C120.882 44.2933 121.908 44.1526 123.023 44.1526C124.617 44.1526 125.992 44.4547 127.148 45.0589C128.315 45.6631 129.216 46.4808 129.851 47.512C130.497 48.5329 130.82 49.6787 130.82 50.9495H128.898C128.898 49.9599 128.664 49.0797 128.195 48.3089C127.736 47.5276 127.07 46.9183 126.195 46.4808C125.33 46.0329 124.273 45.8089 123.023 45.8089C121.773 45.8089 120.721 46.0016 119.867 46.387C119.023 46.762 118.382 47.2672 117.945 47.9026C117.518 48.5276 117.304 49.2256 117.304 49.9964C117.304 50.5381 117.408 51.0381 117.617 51.4964C117.825 51.9443 118.164 52.3662 118.632 52.762C119.111 53.1474 119.742 53.512 120.523 53.8558C121.304 54.1891 122.268 54.5068 123.414 54.8089C124.622 55.1422 125.695 55.512 126.632 55.9183C127.57 56.3245 128.361 56.7933 129.007 57.3245C129.653 57.8454 130.143 58.4547 130.476 59.1526C130.809 59.8506 130.976 60.6631 130.976 61.5901C130.976 62.5172 130.778 63.3506 130.382 64.0901C129.997 64.8193 129.45 65.4391 128.742 65.9495C128.044 66.4599 127.216 66.8506 126.257 67.1214C125.309 67.3922 124.273 67.5276 123.148 67.5276C122.138 67.5276 121.132 67.3974 120.132 67.137C119.132 66.8766 118.216 66.4756 117.382 65.9339C116.559 65.3818 115.898 64.6735 115.398 63.8089C114.908 62.9443 114.664 61.9131 114.664 60.7151H116.57C116.57 61.6735 116.763 62.4808 117.148 63.137C117.533 63.7933 118.044 64.3245 118.679 64.7308C119.325 65.137 120.033 65.4339 120.804 65.6214C121.585 65.7985 122.367 65.887 123.148 65.887C124.346 65.887 125.382 65.7099 126.257 65.3558C127.143 65.0016 127.825 64.5068 128.304 63.8714C128.794 63.2256 129.039 62.4756 129.039 61.6214ZM140.929 65.9183C141.721 65.9183 142.46 65.7724 143.148 65.4808C143.846 65.1787 144.419 64.736 144.867 64.1526C145.325 63.5589 145.585 62.8349 145.648 61.9808H147.429C147.377 63.0537 147.049 64.012 146.445 64.8558C145.851 65.6891 145.07 66.3454 144.101 66.8245C143.143 67.2933 142.085 67.5276 140.929 67.5276C139.752 67.5276 138.71 67.3141 137.804 66.887C136.908 66.4599 136.158 65.8662 135.554 65.1058C134.95 64.3349 134.492 63.4391 134.179 62.4183C133.877 61.387 133.726 60.2776 133.726 59.0901V58.4339C133.726 57.2464 133.877 56.1422 134.179 55.1214C134.492 54.0901 134.95 53.1943 135.554 52.4339C136.158 51.6631 136.908 51.0641 137.804 50.637C138.7 50.2099 139.736 49.9964 140.914 49.9964C142.122 49.9964 143.205 50.2412 144.164 50.7308C145.132 51.2204 145.903 51.9131 146.476 52.8089C147.059 53.7047 147.377 54.7672 147.429 55.9964H145.648C145.596 55.0901 145.356 54.3089 144.929 53.6526C144.502 52.9964 143.94 52.4912 143.242 52.137C142.544 51.7829 141.768 51.6058 140.914 51.6058C139.955 51.6058 139.138 51.7933 138.46 52.1683C137.783 52.5329 137.231 53.0381 136.804 53.6839C136.388 54.3193 136.08 55.0485 135.882 55.8714C135.684 56.6839 135.585 57.5381 135.585 58.4339V59.0901C135.585 59.9964 135.679 60.861 135.867 61.6839C136.065 62.4964 136.372 63.2204 136.789 63.8558C137.216 64.4912 137.768 64.9964 138.445 65.3714C139.132 65.736 139.96 65.9183 140.929 65.9183ZM153.273 50.3089V67.2151H151.414V50.3089H153.273ZM151.085 45.4183C151.085 45.0641 151.195 44.7672 151.414 44.5276C151.643 44.2776 151.955 44.1526 152.351 44.1526C152.747 44.1526 153.059 44.2776 153.289 44.5276C153.528 44.7672 153.648 45.0641 153.648 45.4183C153.648 45.762 153.528 46.0589 153.289 46.3089C153.059 46.5485 152.747 46.6683 152.351 46.6683C151.955 46.6683 151.643 46.5485 151.414 46.3089C151.195 46.0589 151.085 45.762 151.085 45.4183ZM164.914 67.5276C163.809 67.5276 162.794 67.3245 161.867 66.9183C160.95 66.512 160.148 65.9391 159.46 65.1995C158.783 64.4599 158.257 63.5849 157.882 62.5745C157.518 61.5537 157.335 60.4391 157.335 59.2308V58.5589C157.335 57.2568 157.528 56.0797 157.914 55.0276C158.299 53.9756 158.83 53.0745 159.507 52.3245C160.184 51.5745 160.955 51.0016 161.82 50.6058C162.695 50.1995 163.611 49.9964 164.57 49.9964C165.643 49.9964 166.596 50.1891 167.429 50.5745C168.263 50.9495 168.96 51.486 169.523 52.1839C170.096 52.8714 170.528 53.6891 170.82 54.637C171.111 55.5745 171.257 56.611 171.257 57.7464V58.887H158.46V57.2933H169.398V57.0745C169.377 56.1266 169.184 55.2412 168.82 54.4183C168.466 53.5849 167.934 52.9079 167.226 52.387C166.518 51.8662 165.632 51.6058 164.57 51.6058C163.778 51.6058 163.049 51.7724 162.382 52.1058C161.726 52.4391 161.158 52.9183 160.679 53.5433C160.21 54.1579 159.846 54.8922 159.585 55.7464C159.335 56.5901 159.21 57.5276 159.21 58.5589V59.2308C159.21 60.1683 159.346 61.0433 159.617 61.8558C159.898 62.6579 160.294 63.3662 160.804 63.9808C161.325 64.5954 161.94 65.0745 162.648 65.4183C163.356 65.762 164.138 65.9339 164.992 65.9339C165.992 65.9339 166.877 65.7516 167.648 65.387C168.419 65.012 169.111 64.4235 169.726 63.6214L170.898 64.5276C170.533 65.0693 170.075 65.5693 169.523 66.0276C168.981 66.486 168.33 66.8506 167.57 67.1214C166.809 67.3922 165.924 67.5276 164.914 67.5276ZM176.804 53.9183V67.2151H174.945V50.3089H176.726L176.804 53.9183ZM176.382 57.7151L175.554 57.2464C175.617 56.2464 175.82 55.3089 176.164 54.4339C176.507 53.5589 176.971 52.7881 177.554 52.1214C178.148 51.4547 178.841 50.9339 179.632 50.5589C180.434 50.1839 181.32 49.9964 182.289 49.9964C183.132 49.9964 183.888 50.111 184.554 50.3401C185.221 50.5693 185.789 50.9339 186.257 51.4339C186.726 51.9339 187.08 52.5745 187.32 53.3558C187.57 54.137 187.695 55.0901 187.695 56.2151V67.2151H185.82V56.1995C185.82 55.0329 185.658 54.1214 185.335 53.4651C185.013 52.7985 184.554 52.3245 183.96 52.0433C183.367 51.762 182.664 51.6214 181.851 51.6214C180.955 51.6214 180.169 51.8193 179.492 52.2151C178.825 52.6006 178.263 53.1058 177.804 53.7308C177.356 54.3454 177.013 55.0068 176.773 55.7151C176.533 56.4131 176.403 57.0797 176.382 57.7151ZM198.773 65.9183C199.565 65.9183 200.304 65.7724 200.992 65.4808C201.69 65.1787 202.263 64.736 202.71 64.1526C203.169 63.5589 203.429 62.8349 203.492 61.9808H205.273C205.221 63.0537 204.893 64.012 204.289 64.8558C203.695 65.6891 202.914 66.3454 201.945 66.8245C200.986 67.2933 199.929 67.5276 198.773 67.5276C197.596 67.5276 196.554 67.3141 195.648 66.887C194.752 66.4599 194.002 65.8662 193.398 65.1058C192.794 64.3349 192.335 63.4391 192.023 62.4183C191.721 61.387 191.57 60.2776 191.57 59.0901V58.4339C191.57 57.2464 191.721 56.1422 192.023 55.1214C192.335 54.0901 192.794 53.1943 193.398 52.4339C194.002 51.6631 194.752 51.0641 195.648 50.637C196.544 50.2099 197.58 49.9964 198.757 49.9964C199.966 49.9964 201.049 50.2412 202.007 50.7308C202.976 51.2204 203.747 51.9131 204.32 52.8089C204.903 53.7047 205.221 54.7672 205.273 55.9964H203.492C203.44 55.0901 203.2 54.3089 202.773 53.6526C202.346 52.9964 201.783 52.4912 201.085 52.137C200.388 51.7829 199.611 51.6058 198.757 51.6058C197.799 51.6058 196.981 51.7933 196.304 52.1683C195.627 52.5329 195.075 53.0381 194.648 53.6839C194.231 54.3193 193.924 55.0485 193.726 55.8714C193.528 56.6839 193.429 57.5381 193.429 58.4339V59.0901C193.429 59.9964 193.523 60.861 193.71 61.6839C193.908 62.4964 194.216 63.2204 194.632 63.8558C195.059 64.4912 195.611 64.9964 196.289 65.3714C196.976 65.736 197.804 65.9183 198.773 65.9183ZM215.57 67.5276C214.466 67.5276 213.45 67.3245 212.523 66.9183C211.606 66.512 210.804 65.9391 210.117 65.1995C209.44 64.4599 208.914 63.5849 208.539 62.5745C208.174 61.5537 207.992 60.4391 207.992 59.2308V58.5589C207.992 57.2568 208.184 56.0797 208.57 55.0276C208.955 53.9756 209.486 53.0745 210.164 52.3245C210.841 51.5745 211.611 51.0016 212.476 50.6058C213.351 50.1995 214.268 49.9964 215.226 49.9964C216.299 49.9964 217.252 50.1891 218.085 50.5745C218.919 50.9495 219.617 51.486 220.179 52.1839C220.752 52.8714 221.184 53.6891 221.476 54.637C221.768 55.5745 221.914 56.611 221.914 57.7464V58.887H209.117V57.2933H220.054V57.0745C220.033 56.1266 219.841 55.2412 219.476 54.4183C219.122 53.5849 218.591 52.9079 217.882 52.387C217.174 51.8662 216.289 51.6058 215.226 51.6058C214.434 51.6058 213.705 51.7724 213.039 52.1058C212.382 52.4391 211.815 52.9183 211.335 53.5433C210.867 54.1579 210.502 54.8922 210.242 55.7464C209.992 56.5901 209.867 57.5276 209.867 58.5589V59.2308C209.867 60.1683 210.002 61.0433 210.273 61.8558C210.554 62.6579 210.95 63.3662 211.46 63.9808C211.981 64.5954 212.596 65.0745 213.304 65.4183C214.013 65.762 214.794 65.9339 215.648 65.9339C216.648 65.9339 217.533 65.7516 218.304 65.387C219.075 65.012 219.768 64.4235 220.382 63.6214L221.554 64.5276C221.19 65.0693 220.731 65.5693 220.179 66.0276C219.638 66.486 218.986 66.8506 218.226 67.1214C217.466 67.3922 216.58 67.5276 215.57 67.5276Z" fill="#7F4BF6"/>
</svg>
