<svg width="879" height="573" viewBox="0 0 879 573" fill="none" xmlns="http://www.w3.org/2000/svg">
<rect x="0.75" y="0.75" width="877.926" height="571.107" rx="20.25" fill="black" fill-opacity="0.25" stroke="white" stroke-width="0.5"/>
<line x1="1" y1="45.4663" x2="878.426" y2="45.4662" stroke="white" stroke-opacity="0.5"/>
<ellipse cx="26.7655" cy="23.4832" rx="7.66007" ry="8.52809" fill="#7F4BF6"/>
<ellipse cx="47.657" cy="23.4831" rx="6.26733" ry="6.97753" fill="#C4C4C4" fill-opacity="0.3"/>
<ellipse cx="66.4586" cy="23.4833" rx="5.57096" ry="6.20225" fill="#C4C4C4" fill-opacity="0.2"/>
<path d="M632.607 51.3933H878.426V551.607C878.426 562.652 869.472 571.607 858.426 571.607H632.607V51.3933Z" fill="#1B1837"/>
<rect x="41.3896" y="103.337" width="278.548" height="45.7416" rx="10" fill="#D9D9D9" fill-opacity="0.8"/>
<line x1="632.857" y1="51.3933" x2="632.857" y2="571.607" stroke="white" stroke-opacity="0.8" stroke-width="0.5"/>
<rect x="41.3896" y="180.865" width="451.944" height="7.75281" rx="3.8764" fill="white" fill-opacity="0.9"/>
<rect x="40.6929" y="215.753" width="452.64" height="7.75281" rx="3.8764" fill="white" fill-opacity="0.9"/>
<rect x="41.3896" y="250.64" width="348.185" height="7.75281" rx="3.8764" fill="white" fill-opacity="0.9"/>
<rect x="40.6929" y="366.933" width="348.185" height="9.30337" rx="4.65169" fill="white" fill-opacity="0.9"/>
<rect x="659.069" y="111.09" width="98.8845" height="9.30337" rx="4.65169" fill="#D9D9D9" fill-opacity="0.8"/>
<rect x="665.337" y="156.056" width="186.627" height="6.20225" rx="3.10112" fill="white" fill-opacity="0.7"/>
<rect x="665.337" y="185.517" width="186.627" height="6.20225" rx="3.10112" fill="white" fill-opacity="0.7"/>
<rect x="665.337" y="214.978" width="186.627" height="6.20225" rx="3.10112" fill="white" fill-opacity="0.7"/>
<rect x="665.337" y="244.438" width="186.627" height="6.20225" rx="3.10112" fill="white" fill-opacity="0.7"/>
</svg>
