<svg width="557" height="205" viewBox="0 0 557 205" fill="none" xmlns="http://www.w3.org/2000/svg">
<rect x="0.75" y="0.75" width="555.5" height="203.5" rx="15.25" fill="black" fill-opacity="0.25" stroke="white" stroke-width="0.5"/>
<path d="M35.5776 44.4653H37.5151L45.9214 64.4965L54.3433 44.4653H56.2651L46.6558 67.2153H45.187L35.5776 44.4653ZM34.9839 44.4653H36.687L36.8901 57.2778V67.2153H34.9839V44.4653ZM55.187 44.4653H56.8901V67.2153H54.9683V57.2778L55.187 44.4653ZM68.7651 67.5278C67.661 67.5278 66.6453 67.3246 65.7183 66.9184C64.8016 66.5121 63.9995 65.9392 63.312 65.1996C62.6349 64.4601 62.1089 63.5851 61.7339 62.5746C61.3693 61.5538 61.187 60.4392 61.187 59.2309V58.559C61.187 57.2569 61.3797 56.0799 61.7651 55.0278C62.1506 53.9757 62.6818 53.0746 63.3589 52.3246C64.036 51.5746 64.8068 51.0017 65.6714 50.6059C66.5464 50.1996 67.4631 49.9965 68.4214 49.9965C69.4943 49.9965 70.4474 50.1892 71.2808 50.5746C72.1141 50.9496 72.812 51.4861 73.3745 52.184C73.9474 52.8715 74.3797 53.6892 74.6714 54.6371C74.9631 55.5746 75.1089 56.6111 75.1089 57.7465V58.8871H62.312V57.2934H73.2495V57.0746C73.2287 56.1267 73.036 55.2413 72.6714 54.4184C72.3172 53.5851 71.786 52.908 71.0776 52.3871C70.3693 51.8663 69.4839 51.6059 68.4214 51.6059C67.6297 51.6059 66.9006 51.7726 66.2339 52.1059C65.5776 52.4392 65.0099 52.9184 64.5308 53.5434C64.062 54.158 63.6974 54.8924 63.437 55.7465C63.187 56.5903 63.062 57.5278 63.062 58.559V59.2309C63.062 60.1684 63.1974 61.0434 63.4683 61.8559C63.7495 62.658 64.1453 63.3663 64.6558 63.9809C65.1766 64.5955 65.7912 65.0746 66.4995 65.4184C67.2078 65.7621 67.9891 65.934 68.8433 65.934C69.8433 65.934 70.7287 65.7517 71.4995 65.3871C72.2703 65.0121 72.9631 64.4236 73.5776 63.6215L74.7495 64.5278C74.3849 65.0694 73.9266 65.5694 73.3745 66.0278C72.8328 66.4861 72.1818 66.8507 71.4214 67.1215C70.661 67.3924 69.7756 67.5278 68.7651 67.5278ZM85.0308 65.9184C85.8224 65.9184 86.562 65.7726 87.2495 65.4809C87.9474 65.1788 88.5203 64.7361 88.9683 64.1528C89.4266 63.559 89.687 62.8351 89.7495 61.9809H91.5308C91.4787 63.0538 91.1506 64.0121 90.5464 64.8559C89.9526 65.6892 89.1714 66.3455 88.2026 66.8246C87.2443 67.2934 86.187 67.5278 85.0308 67.5278C83.8537 67.5278 82.812 67.3142 81.9058 66.8871C81.0099 66.4601 80.2599 65.8663 79.6558 65.1059C79.0516 64.3351 78.5933 63.4392 78.2808 62.4184C77.9787 61.3871 77.8276 60.2778 77.8276 59.0903V58.434C77.8276 57.2465 77.9787 56.1424 78.2808 55.1215C78.5933 54.0903 79.0516 53.1944 79.6558 52.434C80.2599 51.6632 81.0099 51.0642 81.9058 50.6371C82.8016 50.2101 83.8381 49.9965 85.0151 49.9965C86.2235 49.9965 87.3068 50.2413 88.2651 50.7309C89.2339 51.2205 90.0047 51.9132 90.5776 52.809C91.161 53.7049 91.4787 54.7674 91.5308 55.9965H89.7495C89.6974 55.0903 89.4578 54.309 89.0308 53.6528C88.6037 52.9965 88.0412 52.4913 87.3433 52.1371C86.6453 51.783 85.8693 51.6059 85.0151 51.6059C84.0568 51.6059 83.2391 51.7934 82.562 52.1684C81.8849 52.533 81.3328 53.0382 80.9058 53.684C80.4891 54.3194 80.1818 55.0486 79.9839 55.8715C79.786 56.684 79.687 57.5382 79.687 58.434V59.0903C79.687 59.9965 79.7808 60.8611 79.9683 61.684C80.1662 62.4965 80.4735 63.2205 80.8901 63.8559C81.3172 64.4913 81.8693 64.9965 82.5464 65.3715C83.2339 65.7361 84.062 65.9184 85.0308 65.9184ZM97.1558 43.2153V67.2153H95.2964V43.2153H97.1558ZM96.7339 57.7153L95.9058 57.2465C95.9683 56.2465 96.1714 55.309 96.5151 54.434C96.8589 53.559 97.3224 52.7882 97.9058 52.1215C98.4995 51.4549 99.1922 50.934 99.9839 50.559C100.786 50.184 101.671 49.9965 102.64 49.9965C103.484 49.9965 104.239 50.1111 104.906 50.3403C105.572 50.5694 106.14 50.934 106.609 51.434C107.078 51.934 107.432 52.5746 107.671 53.3559C107.921 54.1371 108.046 55.0903 108.046 56.2153V67.2153H106.171V56.1996C106.171 55.033 106.01 54.1215 105.687 53.4653C105.364 52.7986 104.906 52.3246 104.312 52.0434C103.718 51.7621 103.015 51.6215 102.203 51.6215C101.307 51.6215 100.52 51.8194 99.8433 52.2153C99.1766 52.6007 98.6141 53.1059 98.1558 53.7309C97.7078 54.3455 97.3641 55.0069 97.1245 55.7153C96.8849 56.4132 96.7547 57.0799 96.7339 57.7153ZM123.14 64.184V55.4653C123.14 54.6632 122.973 53.9705 122.64 53.3871C122.307 52.8038 121.817 52.3559 121.171 52.0434C120.526 51.7309 119.729 51.5746 118.781 51.5746C117.906 51.5746 117.125 51.7309 116.437 52.0434C115.76 52.3455 115.223 52.7569 114.828 53.2778C114.442 53.7882 114.25 54.3559 114.25 54.9809L112.375 54.9653C112.375 54.3299 112.531 53.7153 112.843 53.1215C113.156 52.5278 113.598 51.9965 114.171 51.5278C114.744 51.059 115.427 50.6892 116.218 50.4184C117.02 50.1371 117.901 49.9965 118.859 49.9965C120.067 49.9965 121.13 50.1996 122.046 50.6059C122.973 51.0121 123.697 51.6215 124.218 52.434C124.739 53.2465 125 54.2674 125 55.4965V63.6684C125 64.2517 125.041 64.8559 125.125 65.4809C125.218 66.1059 125.348 66.6215 125.515 67.0278V67.2153H123.531C123.406 66.8403 123.307 66.3715 123.234 65.809C123.171 65.2361 123.14 64.6944 123.14 64.184ZM123.578 57.3715L123.609 58.809H119.937C118.979 58.809 118.119 58.8976 117.359 59.0746C116.609 59.2413 115.973 59.4913 115.453 59.8246C114.932 60.1476 114.531 60.5382 114.25 60.9965C113.979 61.4549 113.843 61.9757 113.843 62.559C113.843 63.1632 113.994 63.7153 114.296 64.2153C114.609 64.7153 115.046 65.1163 115.609 65.4184C116.182 65.7101 116.859 65.8559 117.64 65.8559C118.682 65.8559 119.598 65.6632 120.39 65.2778C121.192 64.8924 121.854 64.3871 122.375 63.7621C122.895 63.1371 123.244 62.4549 123.421 61.7153L124.234 62.7934C124.098 63.3142 123.848 63.8507 123.484 64.4028C123.13 64.9444 122.666 65.4549 122.093 65.934C121.52 66.4028 120.843 66.7882 120.062 67.0903C119.291 67.3819 118.416 67.5278 117.437 67.5278C116.333 67.5278 115.369 67.3194 114.546 66.9028C113.734 66.4861 113.098 65.9184 112.64 65.1996C112.192 64.4705 111.968 63.6476 111.968 62.7309C111.968 61.8976 112.145 61.1528 112.5 60.4965C112.854 59.8299 113.364 59.2674 114.031 58.809C114.708 58.3403 115.52 57.9861 116.468 57.7465C117.427 57.4965 118.5 57.3715 119.687 57.3715H123.578ZM136.406 50.309V51.8403H127.937V50.309H136.406ZM131.046 45.9653H132.906V63.1059C132.906 63.8871 133.01 64.4757 133.218 64.8715C133.427 65.2674 133.697 65.533 134.031 65.6684C134.364 65.8038 134.723 65.8715 135.109 65.8715C135.39 65.8715 135.661 65.8559 135.921 65.8246C136.182 65.783 136.416 65.7413 136.625 65.6996L136.703 67.2778C136.473 67.3507 136.177 67.408 135.812 67.4496C135.447 67.5017 135.083 67.5278 134.718 67.5278C134 67.5278 133.364 67.3976 132.812 67.1371C132.26 66.8663 131.828 66.408 131.515 65.7621C131.203 65.1059 131.046 64.2153 131.046 63.0903V45.9653ZM142.187 53.1059V67.2153H140.328V50.309H142.14L142.187 53.1059ZM148.171 50.184L148.125 51.9028C147.916 51.8715 147.713 51.8455 147.515 51.8246C147.317 51.8038 147.104 51.7934 146.875 51.7934C146.062 51.7934 145.348 51.9444 144.734 52.2465C144.13 52.5382 143.619 52.9496 143.203 53.4809C142.786 54.0017 142.468 54.6163 142.25 55.3246C142.031 56.0226 141.906 56.7726 141.875 57.5746L141.187 57.8403C141.187 56.7361 141.302 55.7101 141.531 54.7621C141.76 53.8142 142.109 52.9861 142.578 52.2778C143.057 51.559 143.656 51.0017 144.375 50.6059C145.104 50.1996 145.958 49.9965 146.937 49.9965C147.177 49.9965 147.411 50.0174 147.64 50.059C147.88 50.0903 148.057 50.1319 148.171 50.184ZM149.765 59.0278V58.5121C149.765 57.283 149.942 56.1476 150.296 55.1059C150.651 54.0642 151.156 53.1632 151.812 52.4028C152.479 51.6424 153.276 51.0538 154.203 50.6371C155.13 50.2101 156.161 49.9965 157.296 49.9965C158.442 49.9965 159.479 50.2101 160.406 50.6371C161.333 51.0538 162.13 51.6424 162.796 52.4028C163.463 53.1632 163.973 54.0642 164.328 55.1059C164.682 56.1476 164.859 57.283 164.859 58.5121V59.0278C164.859 60.2569 164.682 61.3924 164.328 62.434C163.973 63.4653 163.463 64.3611 162.796 65.1215C162.14 65.8819 161.348 66.4757 160.421 66.9028C159.494 67.3194 158.463 67.5278 157.328 67.5278C156.182 67.5278 155.145 67.3194 154.218 66.9028C153.291 66.4757 152.494 65.8819 151.828 65.1215C151.161 64.3611 150.651 63.4653 150.296 62.434C149.942 61.3924 149.765 60.2569 149.765 59.0278ZM151.625 58.5121V59.0278C151.625 59.9549 151.75 60.8351 152 61.6684C152.25 62.4913 152.614 63.2257 153.093 63.8715C153.572 64.5069 154.166 65.0069 154.875 65.3715C155.583 65.7361 156.401 65.9184 157.328 65.9184C158.244 65.9184 159.052 65.7361 159.75 65.3715C160.458 65.0069 161.052 64.5069 161.531 63.8715C162.01 63.2257 162.369 62.4913 162.609 61.6684C162.859 60.8351 162.984 59.9549 162.984 59.0278V58.5121C162.984 57.5955 162.859 56.7257 162.609 55.9028C162.369 55.0799 162.005 54.3455 161.515 53.6996C161.036 53.0538 160.442 52.5434 159.734 52.1684C159.026 51.7934 158.213 51.6059 157.296 51.6059C156.38 51.6059 155.567 51.7934 154.859 52.1684C154.161 52.5434 153.567 53.0538 153.078 53.6996C152.598 54.3455 152.234 55.0799 151.984 55.9028C151.744 56.7257 151.625 57.5955 151.625 58.5121ZM170.593 53.9184V67.2153H168.734V50.309H170.515L170.593 53.9184ZM170.171 57.7153L169.343 57.2465C169.406 56.2465 169.609 55.309 169.953 54.434C170.296 53.559 170.76 52.7882 171.343 52.1215C171.937 51.4549 172.63 50.934 173.421 50.559C174.223 50.184 175.109 49.9965 176.078 49.9965C176.921 49.9965 177.677 50.1111 178.343 50.3403C179.01 50.5694 179.578 50.934 180.046 51.434C180.515 51.934 180.869 52.5746 181.109 53.3559C181.359 54.1371 181.484 55.0903 181.484 56.2153V67.2153H179.609V56.1996C179.609 55.033 179.447 54.1215 179.125 53.4653C178.802 52.7986 178.343 52.3246 177.75 52.0434C177.156 51.7621 176.453 51.6215 175.64 51.6215C174.744 51.6215 173.958 51.8194 173.281 52.2153C172.614 52.6007 172.052 53.1059 171.593 53.7309C171.145 54.3455 170.802 55.0069 170.562 55.7153C170.322 56.4132 170.192 57.0799 170.171 57.7153ZM188.406 50.309V67.2153H186.546V50.309H188.406ZM186.218 45.4184C186.218 45.0642 186.328 44.7674 186.546 44.5278C186.776 44.2778 187.088 44.1528 187.484 44.1528C187.88 44.1528 188.192 44.2778 188.421 44.5278C188.661 44.7674 188.781 45.0642 188.781 45.4184C188.781 45.7621 188.661 46.059 188.421 46.309C188.192 46.5486 187.88 46.6684 187.484 46.6684C187.088 46.6684 186.776 46.5486 186.546 46.309C186.328 46.059 186.218 45.7621 186.218 45.4184ZM199.75 65.9184C200.541 65.9184 201.281 65.7726 201.968 65.4809C202.666 65.1788 203.239 64.7361 203.687 64.1528C204.145 63.559 204.406 62.8351 204.468 61.9809H206.25C206.197 63.0538 205.869 64.0121 205.265 64.8559C204.671 65.6892 203.89 66.3455 202.921 66.8246C201.963 67.2934 200.906 67.5278 199.75 67.5278C198.572 67.5278 197.531 67.3142 196.625 66.8871C195.729 66.4601 194.979 65.8663 194.375 65.1059C193.77 64.3351 193.312 63.4392 193 62.4184C192.697 61.3871 192.546 60.2778 192.546 59.0903V58.434C192.546 57.2465 192.697 56.1424 193 55.1215C193.312 54.0903 193.77 53.1944 194.375 52.434C194.979 51.6632 195.729 51.0642 196.625 50.6371C197.52 50.2101 198.557 49.9965 199.734 49.9965C200.942 49.9965 202.026 50.2413 202.984 50.7309C203.953 51.2205 204.723 51.9132 205.296 52.809C205.88 53.7049 206.197 54.7674 206.25 55.9965H204.468C204.416 55.0903 204.177 54.309 203.75 53.6528C203.322 52.9965 202.76 52.4913 202.062 52.1371C201.364 51.783 200.588 51.6059 199.734 51.6059C198.776 51.6059 197.958 51.7934 197.281 52.1684C196.604 52.533 196.052 53.0382 195.625 53.684C195.208 54.3194 194.901 55.0486 194.703 55.8715C194.505 56.684 194.406 57.5382 194.406 58.434V59.0903C194.406 59.9965 194.5 60.8611 194.687 61.684C194.885 62.4965 195.192 63.2205 195.609 63.8559C196.036 64.4913 196.588 64.9965 197.265 65.3715C197.953 65.7361 198.781 65.9184 199.75 65.9184ZM220.14 62.9028C220.14 62.4444 220.026 61.9913 219.796 61.5434C219.567 61.0955 219.125 60.684 218.468 60.309C217.822 59.934 216.869 59.6163 215.609 59.3559C214.671 59.1476 213.833 58.9132 213.093 58.6528C212.364 58.3924 211.75 58.0799 211.25 57.7153C210.75 57.3507 210.369 56.9132 210.109 56.4028C209.848 55.8924 209.718 55.2882 209.718 54.5903C209.718 53.9653 209.854 53.3767 210.125 52.8246C210.406 52.2621 210.802 51.7726 211.312 51.3559C211.833 50.9288 212.458 50.5955 213.187 50.3559C213.927 50.1163 214.755 49.9965 215.671 49.9965C216.973 49.9965 218.088 50.2205 219.015 50.6684C219.953 51.1059 220.666 51.7049 221.156 52.4653C221.656 53.2257 221.906 54.0851 221.906 55.0434H220.046C220.046 54.4601 219.875 53.908 219.531 53.3871C219.197 52.8663 218.703 52.4392 218.046 52.1059C217.401 51.7726 216.609 51.6059 215.671 51.6059C214.703 51.6059 213.916 51.7517 213.312 52.0434C212.708 52.3351 212.265 52.7049 211.984 53.1528C211.713 53.6007 211.578 54.0642 211.578 54.5434C211.578 54.9184 211.635 55.2621 211.75 55.5746C211.875 55.8767 212.093 56.158 212.406 56.4184C212.729 56.6788 213.187 56.9236 213.781 57.1528C214.375 57.3819 215.145 57.6059 216.093 57.8246C217.458 58.1267 218.572 58.4965 219.437 58.934C220.312 59.3611 220.958 59.8924 221.375 60.5278C221.791 61.1528 222 61.9132 222 62.809C222 63.5069 221.854 64.1476 221.562 64.7309C221.27 65.3038 220.848 65.7986 220.296 66.2153C219.755 66.6319 219.098 66.9549 218.328 67.184C217.567 67.4132 216.713 67.5278 215.765 67.5278C214.338 67.5278 213.13 67.2934 212.14 66.8246C211.161 66.3455 210.416 65.7205 209.906 64.9496C209.406 64.1684 209.156 63.3403 209.156 62.4653H211.015C211.078 63.3403 211.354 64.033 211.843 64.5434C212.333 65.0434 212.932 65.3976 213.64 65.6059C214.359 65.8142 215.067 65.9184 215.765 65.9184C216.723 65.9184 217.526 65.7778 218.171 65.4965C218.817 65.2153 219.307 64.8455 219.64 64.3871C219.973 63.9288 220.14 63.434 220.14 62.9028Z" fill="#7F4BF6"/>
<rect x="31.5381" y="100.746" width="444.19" height="8.90196" rx="4.45098" fill="white"/>
<rect x="31.5381" y="120.331" width="388.666" height="8.90196" rx="4.45098" fill="white"/>
<rect x="31.5381" y="139.915" width="222.095" height="8.90196" rx="4.45098" fill="#C4C4C4"/>
</svg>
