<svg width="653" height="490" viewBox="0 0 653 490" fill="none" xmlns="http://www.w3.org/2000/svg">
<g filter="url(#filter0_d_455_190)">
<rect x="5.30859" y="0.562256" width="642.687" height="480.706" rx="15" fill="black" fill-opacity="0.25" shape-rendering="crispEdges"/>
<rect x="5.05859" y="0.312256" width="643.187" height="481.206" rx="15.25" stroke="white" stroke-width="0.5" shape-rendering="crispEdges"/>
</g>
<path d="M55.6875 86.9082L58.5098 76.9863H59.877L59.0859 80.8438L56.0488 91.2051H54.6914L55.6875 86.9082ZM52.7676 76.9863L55.0137 86.7129L55.6875 91.2051H54.3398L50.8926 76.9863H52.7676ZM63.5293 86.7031L65.7266 76.9863H67.6113L64.1738 91.2051H62.8262L63.5293 86.7031ZM60.082 76.9863L62.8262 86.9082L63.8223 91.2051H62.4648L59.5352 80.8438L58.7344 76.9863H60.082ZM68.6367 86.0391V85.8145C68.6367 85.0527 68.7474 84.3464 68.9688 83.6953C69.1901 83.0378 69.5091 82.4681 69.9258 81.9863C70.3424 81.498 70.847 81.1204 71.4395 80.8535C72.0319 80.5801 72.696 80.4434 73.4316 80.4434C74.1738 80.4434 74.8411 80.5801 75.4336 80.8535C76.0326 81.1204 76.5404 81.498 76.957 81.9863C77.3802 82.4681 77.7025 83.0378 77.9238 83.6953C78.1452 84.3464 78.2559 85.0527 78.2559 85.8145V86.0391C78.2559 86.8008 78.1452 87.5072 77.9238 88.1582C77.7025 88.8092 77.3802 89.3789 76.957 89.8672C76.5404 90.349 76.0358 90.7266 75.4434 91C74.8574 91.2669 74.1934 91.4004 73.4512 91.4004C72.709 91.4004 72.0417 91.2669 71.4492 91C70.8568 90.7266 70.349 90.349 69.9258 89.8672C69.5091 89.3789 69.1901 88.8092 68.9688 88.1582C68.7474 87.5072 68.6367 86.8008 68.6367 86.0391ZM70.4434 85.8145V86.0391C70.4434 86.5664 70.5052 87.0645 70.6289 87.5332C70.7526 87.9954 70.9382 88.4056 71.1855 88.7637C71.4395 89.1217 71.7552 89.4049 72.1328 89.6133C72.5104 89.8151 72.9499 89.916 73.4512 89.916C73.946 89.916 74.3789 89.8151 74.75 89.6133C75.1276 89.4049 75.4401 89.1217 75.6875 88.7637C75.9349 88.4056 76.1204 87.9954 76.2441 87.5332C76.3743 87.0645 76.4395 86.5664 76.4395 86.0391V85.8145C76.4395 85.2936 76.3743 84.8021 76.2441 84.3398C76.1204 83.8711 75.9316 83.4577 75.6777 83.0996C75.4303 82.735 75.1178 82.4486 74.7402 82.2402C74.3691 82.0319 73.9329 81.9277 73.4316 81.9277C72.9368 81.9277 72.5007 82.0319 72.123 82.2402C71.752 82.4486 71.4395 82.735 71.1855 83.0996C70.9382 83.4577 70.7526 83.8711 70.6289 84.3398C70.5052 84.8021 70.4434 85.2936 70.4434 85.8145ZM86.9863 88.7637V80.6387H88.8027V91.2051H87.0742L86.9863 88.7637ZM87.3281 86.5371L88.0801 86.5176C88.0801 87.2207 88.0052 87.8717 87.8555 88.4707C87.7122 89.0632 87.4779 89.5775 87.1523 90.0137C86.8268 90.4499 86.4004 90.7917 85.873 91.0391C85.3457 91.2799 84.7044 91.4004 83.9492 91.4004C83.4349 91.4004 82.9629 91.3255 82.5332 91.1758C82.11 91.026 81.7454 90.7949 81.4395 90.4824C81.1335 90.1699 80.8958 89.763 80.7266 89.2617C80.5638 88.7604 80.4824 88.1582 80.4824 87.4551V80.6387H82.2891V87.4746C82.2891 87.9499 82.3411 88.3438 82.4453 88.6562C82.556 88.9622 82.7025 89.2064 82.8848 89.3887C83.0736 89.5645 83.2819 89.6882 83.5098 89.7598C83.7441 89.8314 83.985 89.8672 84.2324 89.8672C85.0007 89.8672 85.6094 89.7207 86.0586 89.4277C86.5078 89.1283 86.8301 88.7279 87.0254 88.2266C87.2272 87.7188 87.3281 87.1556 87.3281 86.5371ZM93.5195 76.2051V91.2051H91.7031V76.2051H93.5195ZM103.08 89.1543V76.2051H104.896V91.2051H103.236L103.08 89.1543ZM95.9707 86.0391V85.834C95.9707 85.0267 96.0684 84.2943 96.2637 83.6367C96.4655 82.9727 96.7487 82.403 97.1133 81.9277C97.4844 81.4525 97.9238 81.0879 98.4316 80.834C98.946 80.5736 99.5189 80.4434 100.15 80.4434C100.814 80.4434 101.394 80.5605 101.889 80.7949C102.39 81.0228 102.813 81.3581 103.158 81.8008C103.51 82.237 103.786 82.7643 103.988 83.3828C104.19 84.0013 104.33 84.7012 104.408 85.4824V86.3809C104.337 87.1556 104.197 87.8522 103.988 88.4707C103.786 89.0892 103.51 89.6165 103.158 90.0527C102.813 90.4889 102.39 90.8242 101.889 91.0586C101.387 91.2865 100.801 91.4004 100.131 91.4004C99.5124 91.4004 98.946 91.2669 98.4316 91C97.9238 90.7331 97.4844 90.3587 97.1133 89.877C96.7487 89.3952 96.4655 88.8288 96.2637 88.1777C96.0684 87.5202 95.9707 86.8073 95.9707 86.0391ZM97.7871 85.834V86.0391C97.7871 86.5664 97.8392 87.0612 97.9434 87.5234C98.054 87.9857 98.2233 88.3926 98.4512 88.7441C98.679 89.0957 98.9688 89.3724 99.3203 89.5742C99.6719 89.7695 100.092 89.8672 100.58 89.8672C101.179 89.8672 101.671 89.7402 102.055 89.4863C102.445 89.2324 102.758 88.8971 102.992 88.4805C103.227 88.0638 103.409 87.6113 103.539 87.123V84.7695C103.461 84.4115 103.347 84.0664 103.197 83.7344C103.054 83.3958 102.865 83.0964 102.631 82.8359C102.403 82.569 102.12 82.3574 101.781 82.2012C101.449 82.0449 101.055 81.9668 100.6 81.9668C100.105 81.9668 99.6784 82.071 99.3203 82.2793C98.9688 82.4811 98.679 82.7611 98.4512 83.1191C98.2233 83.4707 98.054 83.8809 97.9434 84.3496C97.8392 84.8118 97.7871 85.3066 97.7871 85.834ZM115.639 90.1113L118.578 80.6387H120.512L116.273 92.8359C116.176 93.0964 116.046 93.3763 115.883 93.6758C115.727 93.9818 115.525 94.2715 115.277 94.5449C115.03 94.8184 114.73 95.0397 114.379 95.209C114.034 95.3848 113.62 95.4727 113.139 95.4727C112.995 95.4727 112.813 95.4531 112.592 95.4141C112.37 95.375 112.214 95.3424 112.123 95.3164L112.113 93.8516C112.165 93.8581 112.247 93.8646 112.357 93.8711C112.475 93.8841 112.556 93.8906 112.602 93.8906C113.012 93.8906 113.36 93.8353 113.646 93.7246C113.933 93.6204 114.174 93.4414 114.369 93.1875C114.571 92.9401 114.743 92.5983 114.887 92.1621L115.639 90.1113ZM113.48 80.6387L116.225 88.8418L116.693 90.7461L115.395 91.4102L111.508 80.6387H113.48ZM121.508 86.0391V85.8145C121.508 85.0527 121.618 84.3464 121.84 83.6953C122.061 83.0378 122.38 82.4681 122.797 81.9863C123.214 81.498 123.718 81.1204 124.311 80.8535C124.903 80.5801 125.567 80.4434 126.303 80.4434C127.045 80.4434 127.712 80.5801 128.305 80.8535C128.904 81.1204 129.411 81.498 129.828 81.9863C130.251 82.4681 130.574 83.0378 130.795 83.6953C131.016 84.3464 131.127 85.0527 131.127 85.8145V86.0391C131.127 86.8008 131.016 87.5072 130.795 88.1582C130.574 88.8092 130.251 89.3789 129.828 89.8672C129.411 90.349 128.907 90.7266 128.314 91C127.729 91.2669 127.064 91.4004 126.322 91.4004C125.58 91.4004 124.913 91.2669 124.32 91C123.728 90.7266 123.22 90.349 122.797 89.8672C122.38 89.3789 122.061 88.8092 121.84 88.1582C121.618 87.5072 121.508 86.8008 121.508 86.0391ZM123.314 85.8145V86.0391C123.314 86.5664 123.376 87.0645 123.5 87.5332C123.624 87.9954 123.809 88.4056 124.057 88.7637C124.311 89.1217 124.626 89.4049 125.004 89.6133C125.382 89.8151 125.821 89.916 126.322 89.916C126.817 89.916 127.25 89.8151 127.621 89.6133C127.999 89.4049 128.311 89.1217 128.559 88.7637C128.806 88.4056 128.992 87.9954 129.115 87.5332C129.245 87.0645 129.311 86.5664 129.311 86.0391V85.8145C129.311 85.2936 129.245 84.8021 129.115 84.3398C128.992 83.8711 128.803 83.4577 128.549 83.0996C128.301 82.735 127.989 82.4486 127.611 82.2402C127.24 82.0319 126.804 81.9277 126.303 81.9277C125.808 81.9277 125.372 82.0319 124.994 82.2402C124.623 82.4486 124.311 82.735 124.057 83.0996C123.809 83.4577 123.624 83.8711 123.5 84.3398C123.376 84.8021 123.314 85.2936 123.314 85.8145ZM139.857 88.7637V80.6387H141.674V91.2051H139.945L139.857 88.7637ZM140.199 86.5371L140.951 86.5176C140.951 87.2207 140.876 87.8717 140.727 88.4707C140.583 89.0632 140.349 89.5775 140.023 90.0137C139.698 90.4499 139.271 90.7917 138.744 91.0391C138.217 91.2799 137.576 91.4004 136.82 91.4004C136.306 91.4004 135.834 91.3255 135.404 91.1758C134.981 91.026 134.617 90.7949 134.311 90.4824C134.005 90.1699 133.767 89.763 133.598 89.2617C133.435 88.7604 133.354 88.1582 133.354 87.4551V80.6387H135.16V87.4746C135.16 87.9499 135.212 88.3438 135.316 88.6562C135.427 88.9622 135.574 89.2064 135.756 89.3887C135.945 89.5645 136.153 89.6882 136.381 89.7598C136.615 89.8314 136.856 89.8672 137.104 89.8672C137.872 89.8672 138.48 89.7207 138.93 89.4277C139.379 89.1283 139.701 88.7279 139.896 88.2266C140.098 87.7188 140.199 87.1556 140.199 86.5371ZM151.195 82.2988V91.2051H149.389V80.6387H151.146L151.195 82.2988ZM154.496 80.5801L154.486 82.2598C154.337 82.2272 154.193 82.2077 154.057 82.2012C153.926 82.1882 153.777 82.1816 153.607 82.1816C153.191 82.1816 152.823 82.2467 152.504 82.377C152.185 82.5072 151.915 82.6895 151.693 82.9238C151.472 83.1582 151.296 83.4382 151.166 83.7637C151.042 84.0827 150.961 84.4342 150.922 84.8184L150.414 85.1113C150.414 84.4733 150.476 83.8743 150.6 83.3145C150.73 82.7546 150.928 82.2598 151.195 81.8301C151.462 81.3939 151.801 81.0553 152.211 80.8145C152.628 80.5671 153.122 80.4434 153.695 80.4434C153.826 80.4434 153.975 80.4596 154.145 80.4922C154.314 80.5182 154.431 80.5475 154.496 80.5801ZM162.006 89.3984V83.959C162.006 83.5423 161.921 83.181 161.752 82.875C161.589 82.5625 161.342 82.3216 161.01 82.1523C160.678 81.9831 160.268 81.8984 159.779 81.8984C159.324 81.8984 158.923 81.9766 158.578 82.1328C158.24 82.2891 157.973 82.4941 157.777 82.748C157.589 83.002 157.494 83.2754 157.494 83.5684H155.688C155.688 83.1908 155.785 82.8164 155.98 82.4453C156.176 82.0742 156.456 81.7389 156.82 81.4395C157.191 81.1335 157.634 80.8926 158.148 80.7168C158.669 80.5345 159.249 80.4434 159.887 80.4434C160.655 80.4434 161.332 80.5736 161.918 80.834C162.51 81.0944 162.973 81.4883 163.305 82.0156C163.643 82.5365 163.812 83.1908 163.812 83.9785V88.9004C163.812 89.252 163.842 89.6263 163.9 90.0234C163.965 90.4206 164.06 90.7624 164.184 91.0488V91.2051H162.299C162.208 90.9967 162.136 90.7201 162.084 90.375C162.032 90.0234 162.006 89.6979 162.006 89.3984ZM162.318 84.7988L162.338 86.0684H160.512C159.997 86.0684 159.538 86.1107 159.135 86.1953C158.731 86.2734 158.393 86.3939 158.119 86.5566C157.846 86.7194 157.637 86.9245 157.494 87.1719C157.351 87.4128 157.279 87.696 157.279 88.0215C157.279 88.3535 157.354 88.6562 157.504 88.9297C157.654 89.2031 157.878 89.4212 158.178 89.584C158.484 89.7402 158.858 89.8184 159.301 89.8184C159.854 89.8184 160.342 89.7012 160.766 89.4668C161.189 89.2324 161.524 88.946 161.771 88.6074C162.025 88.2689 162.162 87.9401 162.182 87.6211L162.953 88.4902C162.908 88.7637 162.784 89.0664 162.582 89.3984C162.38 89.7305 162.11 90.0495 161.771 90.3555C161.439 90.6549 161.042 90.9056 160.58 91.1074C160.124 91.3027 159.61 91.4004 159.037 91.4004C158.321 91.4004 157.693 91.2604 157.152 90.9805C156.618 90.7005 156.202 90.3262 155.902 89.8574C155.609 89.3822 155.463 88.8516 155.463 88.2656C155.463 87.6992 155.574 87.2012 155.795 86.7715C156.016 86.3353 156.335 85.974 156.752 85.6875C157.169 85.3945 157.67 85.1732 158.256 85.0234C158.842 84.8737 159.496 84.7988 160.219 84.7988H162.318ZM171.078 80.6387V82.0254H165.365V80.6387H171.078ZM167.299 78.0703H169.105V88.5879C169.105 88.946 169.161 89.2161 169.271 89.3984C169.382 89.5807 169.525 89.7012 169.701 89.7598C169.877 89.8184 170.066 89.8477 170.268 89.8477C170.417 89.8477 170.574 89.8346 170.736 89.8086C170.906 89.776 171.033 89.75 171.117 89.7305L171.127 91.2051C170.984 91.2507 170.795 91.293 170.561 91.332C170.333 91.3776 170.056 91.4004 169.73 91.4004C169.288 91.4004 168.881 91.3125 168.51 91.1367C168.139 90.9609 167.842 90.668 167.621 90.2578C167.406 89.8411 167.299 89.2812 167.299 88.5781V78.0703ZM175.004 76.2051V91.2051H173.197V76.2051H175.004ZM174.574 85.5215L173.822 85.4922C173.829 84.7695 173.936 84.1022 174.145 83.4902C174.353 82.8717 174.646 82.3346 175.023 81.8789C175.401 81.4232 175.85 81.0716 176.371 80.8242C176.898 80.5703 177.481 80.4434 178.119 80.4434C178.64 80.4434 179.109 80.515 179.525 80.6582C179.942 80.7949 180.297 81.0163 180.59 81.3223C180.889 81.6283 181.117 82.0254 181.273 82.5137C181.43 82.9954 181.508 83.5846 181.508 84.2812V91.2051H179.691V84.2617C179.691 83.7083 179.61 83.2656 179.447 82.9336C179.285 82.5951 179.047 82.3509 178.734 82.2012C178.422 82.0449 178.038 81.9668 177.582 81.9668C177.133 81.9668 176.723 82.0612 176.352 82.25C175.987 82.4388 175.671 82.6992 175.404 83.0312C175.144 83.3633 174.939 83.7441 174.789 84.1738C174.646 84.597 174.574 85.0462 174.574 85.5215ZM188.598 91.4004C187.862 91.4004 187.195 91.2767 186.596 91.0293C186.003 90.7754 185.492 90.4206 185.062 89.9648C184.639 89.5091 184.314 88.9688 184.086 88.3438C183.858 87.7188 183.744 87.0352 183.744 86.293V85.8828C183.744 85.0234 183.871 84.2585 184.125 83.5879C184.379 82.9108 184.724 82.3379 185.16 81.8691C185.596 81.4004 186.091 81.0456 186.645 80.8047C187.198 80.5638 187.771 80.4434 188.363 80.4434C189.118 80.4434 189.77 80.5736 190.316 80.834C190.87 81.0944 191.322 81.459 191.674 81.9277C192.025 82.39 192.286 82.9368 192.455 83.5684C192.624 84.1934 192.709 84.877 192.709 85.6191V86.4297H184.818V84.9551H190.902V84.8184C190.876 84.3496 190.779 83.8939 190.609 83.4512C190.447 83.0085 190.186 82.6439 189.828 82.3574C189.47 82.071 188.982 81.9277 188.363 81.9277C187.953 81.9277 187.576 82.0156 187.23 82.1914C186.885 82.3607 186.589 82.6146 186.342 82.9531C186.094 83.2917 185.902 83.7051 185.766 84.1934C185.629 84.6816 185.561 85.2448 185.561 85.8828V86.293C185.561 86.7943 185.629 87.2663 185.766 87.709C185.909 88.1452 186.114 88.5293 186.381 88.8613C186.654 89.1934 186.983 89.4538 187.367 89.6426C187.758 89.8314 188.201 89.9258 188.695 89.9258C189.333 89.9258 189.874 89.7956 190.316 89.5352C190.759 89.2747 191.146 88.9264 191.479 88.4902L192.572 89.3594C192.344 89.7044 192.055 90.0332 191.703 90.3457C191.352 90.6582 190.919 90.9121 190.404 91.1074C189.896 91.3027 189.294 91.4004 188.598 91.4004ZM196.625 82.2988V91.2051H194.818V80.6387H196.576L196.625 82.2988ZM199.926 80.5801L199.916 82.2598C199.766 82.2272 199.623 82.2077 199.486 82.2012C199.356 82.1882 199.206 82.1816 199.037 82.1816C198.62 82.1816 198.253 82.2467 197.934 82.377C197.615 82.5072 197.344 82.6895 197.123 82.9238C196.902 83.1582 196.726 83.4382 196.596 83.7637C196.472 84.0827 196.391 84.4342 196.352 84.8184L195.844 85.1113C195.844 84.4733 195.906 83.8743 196.029 83.3145C196.16 82.7546 196.358 82.2598 196.625 81.8301C196.892 81.3939 197.23 81.0553 197.641 80.8145C198.057 80.5671 198.552 80.4434 199.125 80.4434C199.255 80.4434 199.405 80.4596 199.574 80.4922C199.743 80.5182 199.861 80.5475 199.926 80.5801ZM206.547 76.2051H208.363V89.1543L208.207 91.2051H206.547V76.2051ZM215.502 85.834V86.0391C215.502 86.8073 215.411 87.5202 215.229 88.1777C215.046 88.8288 214.779 89.3952 214.428 89.877C214.076 90.3587 213.646 90.7331 213.139 91C212.631 91.2669 212.048 91.4004 211.391 91.4004C210.72 91.4004 210.131 91.2865 209.623 91.0586C209.122 90.8242 208.699 90.4889 208.354 90.0527C208.008 89.6165 207.732 89.0892 207.523 88.4707C207.322 87.8522 207.182 87.1556 207.104 86.3809V85.4824C207.182 84.7012 207.322 84.0013 207.523 83.3828C207.732 82.7643 208.008 82.237 208.354 81.8008C208.699 81.3581 209.122 81.0228 209.623 80.7949C210.124 80.5605 210.707 80.4434 211.371 80.4434C212.035 80.4434 212.624 80.5736 213.139 80.834C213.653 81.0879 214.083 81.4525 214.428 81.9277C214.779 82.403 215.046 82.9727 215.229 83.6367C215.411 84.2943 215.502 85.0267 215.502 85.834ZM213.686 86.0391V85.834C213.686 85.3066 213.637 84.8118 213.539 84.3496C213.441 83.8809 213.285 83.4707 213.07 83.1191C212.855 82.7611 212.572 82.4811 212.221 82.2793C211.869 82.071 211.436 81.9668 210.922 81.9668C210.466 81.9668 210.069 82.0449 209.73 82.2012C209.398 82.3574 209.115 82.569 208.881 82.8359C208.646 83.0964 208.454 83.3958 208.305 83.7344C208.161 84.0664 208.054 84.4115 207.982 84.7695V87.123C208.087 87.5788 208.256 88.0182 208.49 88.4414C208.731 88.8581 209.05 89.1999 209.447 89.4668C209.851 89.7337 210.349 89.8672 210.941 89.8672C211.43 89.8672 211.846 89.7695 212.191 89.5742C212.543 89.3724 212.826 89.0957 213.041 88.7441C213.262 88.3926 213.425 87.9857 213.529 87.5234C213.633 87.0612 213.686 86.5664 213.686 86.0391ZM222.172 91.4004C221.436 91.4004 220.769 91.2767 220.17 91.0293C219.577 90.7754 219.066 90.4206 218.637 89.9648C218.214 89.5091 217.888 88.9688 217.66 88.3438C217.432 87.7188 217.318 87.0352 217.318 86.293V85.8828C217.318 85.0234 217.445 84.2585 217.699 83.5879C217.953 82.9108 218.298 82.3379 218.734 81.8691C219.171 81.4004 219.665 81.0456 220.219 80.8047C220.772 80.5638 221.345 80.4434 221.938 80.4434C222.693 80.4434 223.344 80.5736 223.891 80.834C224.444 81.0944 224.896 81.459 225.248 81.9277C225.6 82.39 225.86 82.9368 226.029 83.5684C226.199 84.1934 226.283 84.877 226.283 85.6191V86.4297H218.393V84.9551H224.477V84.8184C224.451 84.3496 224.353 83.8939 224.184 83.4512C224.021 83.0085 223.76 82.6439 223.402 82.3574C223.044 82.071 222.556 81.9277 221.938 81.9277C221.527 81.9277 221.15 82.0156 220.805 82.1914C220.46 82.3607 220.163 82.6146 219.916 82.9531C219.669 83.2917 219.477 83.7051 219.34 84.1934C219.203 84.6816 219.135 85.2448 219.135 85.8828V86.293C219.135 86.7943 219.203 87.2663 219.34 87.709C219.483 88.1452 219.688 88.5293 219.955 88.8613C220.229 89.1934 220.557 89.4538 220.941 89.6426C221.332 89.8314 221.775 89.9258 222.27 89.9258C222.908 89.9258 223.448 89.7956 223.891 89.5352C224.333 89.2747 224.721 88.9264 225.053 88.4902L226.146 89.3594C225.919 89.7044 225.629 90.0332 225.277 90.3457C224.926 90.6582 224.493 90.9121 223.979 91.1074C223.471 91.3027 222.868 91.4004 222.172 91.4004ZM239.584 89.3984V83.959C239.584 83.5423 239.499 83.181 239.33 82.875C239.167 82.5625 238.92 82.3216 238.588 82.1523C238.256 81.9831 237.846 81.8984 237.357 81.8984C236.902 81.8984 236.501 81.9766 236.156 82.1328C235.818 82.2891 235.551 82.4941 235.355 82.748C235.167 83.002 235.072 83.2754 235.072 83.5684H233.266C233.266 83.1908 233.363 82.8164 233.559 82.4453C233.754 82.0742 234.034 81.7389 234.398 81.4395C234.77 81.1335 235.212 80.8926 235.727 80.7168C236.247 80.5345 236.827 80.4434 237.465 80.4434C238.233 80.4434 238.91 80.5736 239.496 80.834C240.089 81.0944 240.551 81.4883 240.883 82.0156C241.221 82.5365 241.391 83.1908 241.391 83.9785V88.9004C241.391 89.252 241.42 89.6263 241.479 90.0234C241.544 90.4206 241.638 90.7624 241.762 91.0488V91.2051H239.877C239.786 90.9967 239.714 90.7201 239.662 90.375C239.61 90.0234 239.584 89.6979 239.584 89.3984ZM239.896 84.7988L239.916 86.0684H238.09C237.576 86.0684 237.117 86.1107 236.713 86.1953C236.309 86.2734 235.971 86.3939 235.697 86.5566C235.424 86.7194 235.215 86.9245 235.072 87.1719C234.929 87.4128 234.857 87.696 234.857 88.0215C234.857 88.3535 234.932 88.6562 235.082 88.9297C235.232 89.2031 235.456 89.4212 235.756 89.584C236.062 89.7402 236.436 89.8184 236.879 89.8184C237.432 89.8184 237.921 89.7012 238.344 89.4668C238.767 89.2324 239.102 88.946 239.35 88.6074C239.604 88.2689 239.74 87.9401 239.76 87.6211L240.531 88.4902C240.486 88.7637 240.362 89.0664 240.16 89.3984C239.958 89.7305 239.688 90.0495 239.35 90.3555C239.018 90.6549 238.62 90.9056 238.158 91.1074C237.702 91.3027 237.188 91.4004 236.615 91.4004C235.899 91.4004 235.271 91.2604 234.73 90.9805C234.197 90.7005 233.78 90.3262 233.48 89.8574C233.188 89.3822 233.041 88.8516 233.041 88.2656C233.041 87.6992 233.152 87.2012 233.373 86.7715C233.594 86.3353 233.913 85.974 234.33 85.6875C234.747 85.3945 235.248 85.1732 235.834 85.0234C236.42 84.8737 237.074 84.7988 237.797 84.7988H239.896ZM248.656 80.6387V82.0254H242.943V80.6387H248.656ZM244.877 78.0703H246.684V88.5879C246.684 88.946 246.739 89.2161 246.85 89.3984C246.96 89.5807 247.104 89.7012 247.279 89.7598C247.455 89.8184 247.644 89.8477 247.846 89.8477C247.995 89.8477 248.152 89.8346 248.314 89.8086C248.484 89.776 248.611 89.75 248.695 89.7305L248.705 91.2051C248.562 91.2507 248.373 91.293 248.139 91.332C247.911 91.3776 247.634 91.4004 247.309 91.4004C246.866 91.4004 246.459 91.3125 246.088 91.1367C245.717 90.9609 245.421 90.668 245.199 90.2578C244.984 89.8411 244.877 89.2812 244.877 88.5781V78.0703ZM261.967 89.3984V83.959C261.967 83.5423 261.882 83.181 261.713 82.875C261.55 82.5625 261.303 82.3216 260.971 82.1523C260.639 81.9831 260.229 81.8984 259.74 81.8984C259.285 81.8984 258.884 81.9766 258.539 82.1328C258.201 82.2891 257.934 82.4941 257.738 82.748C257.549 83.002 257.455 83.2754 257.455 83.5684H255.648C255.648 83.1908 255.746 82.8164 255.941 82.4453C256.137 82.0742 256.417 81.7389 256.781 81.4395C257.152 81.1335 257.595 80.8926 258.109 80.7168C258.63 80.5345 259.21 80.4434 259.848 80.4434C260.616 80.4434 261.293 80.5736 261.879 80.834C262.471 81.0944 262.934 81.4883 263.266 82.0156C263.604 82.5365 263.773 83.1908 263.773 83.9785V88.9004C263.773 89.252 263.803 89.6263 263.861 90.0234C263.926 90.4206 264.021 90.7624 264.145 91.0488V91.2051H262.26C262.169 90.9967 262.097 90.7201 262.045 90.375C261.993 90.0234 261.967 89.6979 261.967 89.3984ZM262.279 84.7988L262.299 86.0684H260.473C259.958 86.0684 259.499 86.1107 259.096 86.1953C258.692 86.2734 258.354 86.3939 258.08 86.5566C257.807 86.7194 257.598 86.9245 257.455 87.1719C257.312 87.4128 257.24 87.696 257.24 88.0215C257.24 88.3535 257.315 88.6562 257.465 88.9297C257.615 89.2031 257.839 89.4212 258.139 89.584C258.445 89.7402 258.819 89.8184 259.262 89.8184C259.815 89.8184 260.303 89.7012 260.727 89.4668C261.15 89.2324 261.485 88.946 261.732 88.6074C261.986 88.2689 262.123 87.9401 262.143 87.6211L262.914 88.4902C262.868 88.7637 262.745 89.0664 262.543 89.3984C262.341 89.7305 262.071 90.0495 261.732 90.3555C261.4 90.6549 261.003 90.9056 260.541 91.1074C260.085 91.3027 259.571 91.4004 258.998 91.4004C258.282 91.4004 257.654 91.2604 257.113 90.9805C256.579 90.7005 256.163 90.3262 255.863 89.8574C255.57 89.3822 255.424 88.8516 255.424 88.2656C255.424 87.6992 255.535 87.2012 255.756 86.7715C255.977 86.3353 256.296 85.974 256.713 85.6875C257.13 85.3945 257.631 85.1732 258.217 85.0234C258.803 84.8737 259.457 84.7988 260.18 84.7988H262.279ZM277.729 88.4023C277.729 88.1419 277.67 87.901 277.553 87.6797C277.442 87.4518 277.211 87.2467 276.859 87.0645C276.514 86.8757 275.993 86.7129 275.297 86.5762C274.711 86.4525 274.18 86.306 273.705 86.1367C273.236 85.9674 272.836 85.7624 272.504 85.5215C272.178 85.2806 271.928 84.9974 271.752 84.6719C271.576 84.3464 271.488 83.9655 271.488 83.5293C271.488 83.1126 271.579 82.7188 271.762 82.3477C271.951 81.9766 272.214 81.6478 272.553 81.3613C272.898 81.0749 273.311 80.8503 273.793 80.6875C274.275 80.5247 274.812 80.4434 275.404 80.4434C276.251 80.4434 276.973 80.5931 277.572 80.8926C278.171 81.1921 278.63 81.5924 278.949 82.0938C279.268 82.5885 279.428 83.1387 279.428 83.7441H277.621C277.621 83.4512 277.533 83.168 277.357 82.8945C277.188 82.6146 276.938 82.3835 276.605 82.2012C276.28 82.0189 275.88 81.9277 275.404 81.9277C274.903 81.9277 274.496 82.0059 274.184 82.1621C273.878 82.3118 273.653 82.5039 273.51 82.7383C273.373 82.9727 273.305 83.2201 273.305 83.4805C273.305 83.6758 273.337 83.8516 273.402 84.0078C273.474 84.1576 273.598 84.2975 273.773 84.4277C273.949 84.5514 274.197 84.6686 274.516 84.7793C274.835 84.89 275.242 85.0007 275.736 85.1113C276.602 85.3066 277.315 85.541 277.875 85.8145C278.435 86.0879 278.852 86.4232 279.125 86.8203C279.398 87.2174 279.535 87.6992 279.535 88.2656C279.535 88.7279 279.438 89.151 279.242 89.5352C279.053 89.9193 278.777 90.2513 278.412 90.5312C278.054 90.8047 277.624 91.0195 277.123 91.1758C276.628 91.3255 276.072 91.4004 275.453 91.4004C274.522 91.4004 273.734 91.2344 273.09 90.9023C272.445 90.5703 271.957 90.1406 271.625 89.6133C271.293 89.0859 271.127 88.5293 271.127 87.9434H272.943C272.969 88.4382 273.113 88.832 273.373 89.125C273.633 89.4115 273.952 89.6165 274.33 89.7402C274.708 89.8574 275.082 89.916 275.453 89.916C275.948 89.916 276.361 89.8509 276.693 89.7207C277.032 89.5905 277.289 89.4115 277.465 89.1836C277.641 88.9557 277.729 88.6953 277.729 88.4023ZM281.43 86.0391V85.8145C281.43 85.0527 281.54 84.3464 281.762 83.6953C281.983 83.0378 282.302 82.4681 282.719 81.9863C283.135 81.498 283.64 81.1204 284.232 80.8535C284.825 80.5801 285.489 80.4434 286.225 80.4434C286.967 80.4434 287.634 80.5801 288.227 80.8535C288.826 81.1204 289.333 81.498 289.75 81.9863C290.173 82.4681 290.495 83.0378 290.717 83.6953C290.938 84.3464 291.049 85.0527 291.049 85.8145V86.0391C291.049 86.8008 290.938 87.5072 290.717 88.1582C290.495 88.8092 290.173 89.3789 289.75 89.8672C289.333 90.349 288.829 90.7266 288.236 91C287.65 91.2669 286.986 91.4004 286.244 91.4004C285.502 91.4004 284.835 91.2669 284.242 91C283.65 90.7266 283.142 90.349 282.719 89.8672C282.302 89.3789 281.983 88.8092 281.762 88.1582C281.54 87.5072 281.43 86.8008 281.43 86.0391ZM283.236 85.8145V86.0391C283.236 86.5664 283.298 87.0645 283.422 87.5332C283.546 87.9954 283.731 88.4056 283.979 88.7637C284.232 89.1217 284.548 89.4049 284.926 89.6133C285.303 89.8151 285.743 89.916 286.244 89.916C286.739 89.916 287.172 89.8151 287.543 89.6133C287.921 89.4049 288.233 89.1217 288.48 88.7637C288.728 88.4056 288.913 87.9954 289.037 87.5332C289.167 87.0645 289.232 86.5664 289.232 86.0391V85.8145C289.232 85.2936 289.167 84.8021 289.037 84.3398C288.913 83.8711 288.725 83.4577 288.471 83.0996C288.223 82.735 287.911 82.4486 287.533 82.2402C287.162 82.0319 286.726 81.9277 286.225 81.9277C285.73 81.9277 285.294 82.0319 284.916 82.2402C284.545 82.4486 284.232 82.735 283.979 83.0996C283.731 83.4577 283.546 83.8711 283.422 84.3398C283.298 84.8021 283.236 85.2936 283.236 85.8145ZM297.543 89.916C297.973 89.916 298.37 89.8281 298.734 89.6523C299.099 89.4766 299.398 89.2357 299.633 88.9297C299.867 88.6172 300.001 88.2624 300.033 87.8652H301.752C301.719 88.4902 301.508 89.0729 301.117 89.6133C300.733 90.1471 300.229 90.5801 299.604 90.9121C298.979 91.2376 298.292 91.4004 297.543 91.4004C296.749 91.4004 296.055 91.2604 295.463 90.9805C294.877 90.7005 294.389 90.3164 293.998 89.8281C293.614 89.3398 293.324 88.7799 293.129 88.1484C292.94 87.5104 292.846 86.8366 292.846 86.127V85.7168C292.846 85.0072 292.94 84.3366 293.129 83.7051C293.324 83.0671 293.614 82.5039 293.998 82.0156C294.389 81.5273 294.877 81.1432 295.463 80.8633C296.055 80.5833 296.749 80.4434 297.543 80.4434C298.37 80.4434 299.092 80.6126 299.711 80.9512C300.329 81.2832 300.814 81.7389 301.166 82.3184C301.524 82.8913 301.719 83.5423 301.752 84.2715H300.033C300.001 83.8353 299.877 83.4414 299.662 83.0898C299.454 82.7383 299.167 82.4583 298.803 82.25C298.445 82.0352 298.025 81.9277 297.543 81.9277C296.99 81.9277 296.524 82.0384 296.146 82.2598C295.775 82.4746 295.479 82.7676 295.258 83.1387C295.043 83.5033 294.887 83.9102 294.789 84.3594C294.698 84.8021 294.652 85.2546 294.652 85.7168V86.127C294.652 86.5892 294.698 87.0449 294.789 87.4941C294.88 87.9434 295.033 88.3503 295.248 88.7148C295.469 89.0794 295.766 89.3724 296.137 89.5938C296.514 89.8086 296.983 89.916 297.543 89.916ZM305.746 80.6387V91.2051H303.93V80.6387H305.746ZM303.793 77.8359C303.793 77.543 303.881 77.2956 304.057 77.0938C304.239 76.8919 304.506 76.791 304.857 76.791C305.202 76.791 305.466 76.8919 305.648 77.0938C305.837 77.2956 305.932 77.543 305.932 77.8359C305.932 78.1159 305.837 78.3568 305.648 78.5586C305.466 78.7539 305.202 78.8516 304.857 78.8516C304.506 78.8516 304.239 78.7539 304.057 78.5586C303.881 78.3568 303.793 78.1159 303.793 77.8359ZM314.877 89.3984V83.959C314.877 83.5423 314.792 83.181 314.623 82.875C314.46 82.5625 314.213 82.3216 313.881 82.1523C313.549 81.9831 313.139 81.8984 312.65 81.8984C312.195 81.8984 311.794 81.9766 311.449 82.1328C311.111 82.2891 310.844 82.4941 310.648 82.748C310.46 83.002 310.365 83.2754 310.365 83.5684H308.559C308.559 83.1908 308.656 82.8164 308.852 82.4453C309.047 82.0742 309.327 81.7389 309.691 81.4395C310.062 81.1335 310.505 80.8926 311.02 80.7168C311.54 80.5345 312.12 80.4434 312.758 80.4434C313.526 80.4434 314.203 80.5736 314.789 80.834C315.382 81.0944 315.844 81.4883 316.176 82.0156C316.514 82.5365 316.684 83.1908 316.684 83.9785V88.9004C316.684 89.252 316.713 89.6263 316.771 90.0234C316.837 90.4206 316.931 90.7624 317.055 91.0488V91.2051H315.17C315.079 90.9967 315.007 90.7201 314.955 90.375C314.903 90.0234 314.877 89.6979 314.877 89.3984ZM315.189 84.7988L315.209 86.0684H313.383C312.868 86.0684 312.41 86.1107 312.006 86.1953C311.602 86.2734 311.264 86.3939 310.99 86.5566C310.717 86.7194 310.508 86.9245 310.365 87.1719C310.222 87.4128 310.15 87.696 310.15 88.0215C310.15 88.3535 310.225 88.6562 310.375 88.9297C310.525 89.2031 310.749 89.4212 311.049 89.584C311.355 89.7402 311.729 89.8184 312.172 89.8184C312.725 89.8184 313.214 89.7012 313.637 89.4668C314.06 89.2324 314.395 88.946 314.643 88.6074C314.896 88.2689 315.033 87.9401 315.053 87.6211L315.824 88.4902C315.779 88.7637 315.655 89.0664 315.453 89.3984C315.251 89.7305 314.981 90.0495 314.643 90.3555C314.311 90.6549 313.913 90.9056 313.451 91.1074C312.995 91.3027 312.481 91.4004 311.908 91.4004C311.192 91.4004 310.564 91.2604 310.023 90.9805C309.49 90.7005 309.073 90.3262 308.773 89.8574C308.48 89.3822 308.334 88.8516 308.334 88.2656C308.334 87.6992 308.445 87.2012 308.666 86.7715C308.887 86.3353 309.206 85.974 309.623 85.6875C310.04 85.3945 310.541 85.1732 311.127 85.0234C311.713 84.8737 312.367 84.7988 313.09 84.7988H315.189ZM321.488 76.2051V91.2051H319.672V76.2051H321.488ZM336.195 80.6387H337.836V90.9805C337.836 91.9115 337.647 92.7057 337.27 93.3633C336.892 94.0208 336.365 94.5189 335.688 94.8574C335.017 95.2025 334.242 95.375 333.363 95.375C332.999 95.375 332.569 95.3164 332.074 95.1992C331.586 95.0885 331.104 94.8965 330.629 94.623C330.16 94.3561 329.766 93.9948 329.447 93.5391L330.395 92.4648C330.837 92.9987 331.299 93.3698 331.781 93.5781C332.27 93.7865 332.751 93.8906 333.227 93.8906C333.799 93.8906 334.294 93.7832 334.711 93.5684C335.128 93.3535 335.45 93.0345 335.678 92.6113C335.912 92.1947 336.029 91.6803 336.029 91.0684V82.9629L336.195 80.6387ZM328.92 86.0391V85.834C328.92 85.0267 329.014 84.2943 329.203 83.6367C329.398 82.9727 329.675 82.403 330.033 81.9277C330.398 81.4525 330.837 81.0879 331.352 80.834C331.866 80.5736 332.445 80.4434 333.09 80.4434C333.754 80.4434 334.333 80.5605 334.828 80.7949C335.329 81.0228 335.753 81.3581 336.098 81.8008C336.449 82.237 336.726 82.7643 336.928 83.3828C337.13 84.0013 337.27 84.7012 337.348 85.4824V86.3809C337.276 87.1556 337.136 87.8522 336.928 88.4707C336.726 89.0892 336.449 89.6165 336.098 90.0527C335.753 90.4889 335.329 90.8242 334.828 91.0586C334.327 91.2865 333.741 91.4004 333.07 91.4004C332.439 91.4004 331.866 91.2669 331.352 91C330.844 90.7331 330.408 90.3587 330.043 89.877C329.678 89.3952 329.398 88.8288 329.203 88.1777C329.014 87.5202 328.92 86.8073 328.92 86.0391ZM330.727 85.834V86.0391C330.727 86.5664 330.779 87.0612 330.883 87.5234C330.993 87.9857 331.16 88.3926 331.381 88.7441C331.609 89.0957 331.898 89.3724 332.25 89.5742C332.602 89.7695 333.021 89.8672 333.51 89.8672C334.109 89.8672 334.604 89.7402 334.994 89.4863C335.385 89.2324 335.694 88.8971 335.922 88.4805C336.156 88.0638 336.339 87.6113 336.469 87.123V84.7695C336.397 84.4115 336.286 84.0664 336.137 83.7344C335.993 83.3958 335.805 83.0964 335.57 82.8359C335.342 82.569 335.059 82.3574 334.721 82.2012C334.382 82.0449 333.985 81.9668 333.529 81.9668C333.035 81.9668 332.608 82.071 332.25 82.2793C331.898 82.4811 331.609 82.7611 331.381 83.1191C331.16 83.4707 330.993 83.8809 330.883 84.3496C330.779 84.8118 330.727 85.3066 330.727 85.834ZM346.811 89.3984V83.959C346.811 83.5423 346.726 83.181 346.557 82.875C346.394 82.5625 346.146 82.3216 345.814 82.1523C345.482 81.9831 345.072 81.8984 344.584 81.8984C344.128 81.8984 343.728 81.9766 343.383 82.1328C343.044 82.2891 342.777 82.4941 342.582 82.748C342.393 83.002 342.299 83.2754 342.299 83.5684H340.492C340.492 83.1908 340.59 82.8164 340.785 82.4453C340.98 82.0742 341.26 81.7389 341.625 81.4395C341.996 81.1335 342.439 80.8926 342.953 80.7168C343.474 80.5345 344.053 80.4434 344.691 80.4434C345.46 80.4434 346.137 80.5736 346.723 80.834C347.315 81.0944 347.777 81.4883 348.109 82.0156C348.448 82.5365 348.617 83.1908 348.617 83.9785V88.9004C348.617 89.252 348.646 89.6263 348.705 90.0234C348.77 90.4206 348.865 90.7624 348.988 91.0488V91.2051H347.104C347.012 90.9967 346.941 90.7201 346.889 90.375C346.837 90.0234 346.811 89.6979 346.811 89.3984ZM347.123 84.7988L347.143 86.0684H345.316C344.802 86.0684 344.343 86.1107 343.939 86.1953C343.536 86.2734 343.197 86.3939 342.924 86.5566C342.65 86.7194 342.442 86.9245 342.299 87.1719C342.156 87.4128 342.084 87.696 342.084 88.0215C342.084 88.3535 342.159 88.6562 342.309 88.9297C342.458 89.2031 342.683 89.4212 342.982 89.584C343.288 89.7402 343.663 89.8184 344.105 89.8184C344.659 89.8184 345.147 89.7012 345.57 89.4668C345.993 89.2324 346.329 88.946 346.576 88.6074C346.83 88.2689 346.967 87.9401 346.986 87.6211L347.758 88.4902C347.712 88.7637 347.589 89.0664 347.387 89.3984C347.185 89.7305 346.915 90.0495 346.576 90.3555C346.244 90.6549 345.847 90.9056 345.385 91.1074C344.929 91.3027 344.415 91.4004 343.842 91.4004C343.126 91.4004 342.497 91.2604 341.957 90.9805C341.423 90.7005 341.007 90.3262 340.707 89.8574C340.414 89.3822 340.268 88.8516 340.268 88.2656C340.268 87.6992 340.378 87.2012 340.6 86.7715C340.821 86.3353 341.14 85.974 341.557 85.6875C341.973 85.3945 342.475 85.1732 343.061 85.0234C343.646 84.8737 344.301 84.7988 345.023 84.7988H347.123ZM355.883 80.6387V82.0254H350.17V80.6387H355.883ZM352.104 78.0703H353.91V88.5879C353.91 88.946 353.965 89.2161 354.076 89.3984C354.187 89.5807 354.33 89.7012 354.506 89.7598C354.682 89.8184 354.87 89.8477 355.072 89.8477C355.222 89.8477 355.378 89.8346 355.541 89.8086C355.71 89.776 355.837 89.75 355.922 89.7305L355.932 91.2051C355.788 91.2507 355.6 91.293 355.365 91.332C355.137 91.3776 354.861 91.4004 354.535 91.4004C354.092 91.4004 353.686 91.3125 353.314 91.1367C352.943 90.9609 352.647 90.668 352.426 90.2578C352.211 89.8411 352.104 89.2812 352.104 88.5781V78.0703ZM359.809 76.2051V91.2051H358.002V76.2051H359.809ZM359.379 85.5215L358.627 85.4922C358.633 84.7695 358.741 84.1022 358.949 83.4902C359.158 82.8717 359.451 82.3346 359.828 81.8789C360.206 81.4232 360.655 81.0716 361.176 80.8242C361.703 80.5703 362.286 80.4434 362.924 80.4434C363.445 80.4434 363.913 80.515 364.33 80.6582C364.747 80.7949 365.102 81.0163 365.395 81.3223C365.694 81.6283 365.922 82.0254 366.078 82.5137C366.234 82.9954 366.312 83.5846 366.312 84.2812V91.2051H364.496V84.2617C364.496 83.7083 364.415 83.2656 364.252 82.9336C364.089 82.5951 363.852 82.3509 363.539 82.2012C363.227 82.0449 362.842 81.9668 362.387 81.9668C361.938 81.9668 361.527 82.0612 361.156 82.25C360.792 82.4388 360.476 82.6992 360.209 83.0312C359.949 83.3633 359.743 83.7441 359.594 84.1738C359.451 84.597 359.379 85.0462 359.379 85.5215ZM373.402 91.4004C372.667 91.4004 371.999 91.2767 371.4 91.0293C370.808 90.7754 370.297 90.4206 369.867 89.9648C369.444 89.5091 369.118 88.9688 368.891 88.3438C368.663 87.7188 368.549 87.0352 368.549 86.293V85.8828C368.549 85.0234 368.676 84.2585 368.93 83.5879C369.184 82.9108 369.529 82.3379 369.965 81.8691C370.401 81.4004 370.896 81.0456 371.449 80.8047C372.003 80.5638 372.576 80.4434 373.168 80.4434C373.923 80.4434 374.574 80.5736 375.121 80.834C375.674 81.0944 376.127 81.459 376.479 81.9277C376.83 82.39 377.09 82.9368 377.26 83.5684C377.429 84.1934 377.514 84.877 377.514 85.6191V86.4297H369.623V84.9551H375.707V84.8184C375.681 84.3496 375.583 83.8939 375.414 83.4512C375.251 83.0085 374.991 82.6439 374.633 82.3574C374.275 82.071 373.786 81.9277 373.168 81.9277C372.758 81.9277 372.38 82.0156 372.035 82.1914C371.69 82.3607 371.394 82.6146 371.146 82.9531C370.899 83.2917 370.707 83.7051 370.57 84.1934C370.434 84.6816 370.365 85.2448 370.365 85.8828V86.293C370.365 86.7943 370.434 87.2663 370.57 87.709C370.714 88.1452 370.919 88.5293 371.186 88.8613C371.459 89.1934 371.788 89.4538 372.172 89.6426C372.562 89.8314 373.005 89.9258 373.5 89.9258C374.138 89.9258 374.678 89.7956 375.121 89.5352C375.564 89.2747 375.951 88.9264 376.283 88.4902L377.377 89.3594C377.149 89.7044 376.859 90.0332 376.508 90.3457C376.156 90.6582 375.723 90.9121 375.209 91.1074C374.701 91.3027 374.099 91.4004 373.402 91.4004ZM381.43 82.2988V91.2051H379.623V80.6387H381.381L381.43 82.2988ZM384.73 80.5801L384.721 82.2598C384.571 82.2272 384.428 82.2077 384.291 82.2012C384.161 82.1882 384.011 82.1816 383.842 82.1816C383.425 82.1816 383.057 82.2467 382.738 82.377C382.419 82.5072 382.149 82.6895 381.928 82.9238C381.706 83.1582 381.531 83.4382 381.4 83.7637C381.277 84.0827 381.195 84.4342 381.156 84.8184L380.648 85.1113C380.648 84.4733 380.71 83.8743 380.834 83.3145C380.964 82.7546 381.163 82.2598 381.43 81.8301C381.697 81.3939 382.035 81.0553 382.445 80.8145C382.862 80.5671 383.357 80.4434 383.93 80.4434C384.06 80.4434 384.21 80.4596 384.379 80.4922C384.548 80.5182 384.665 80.5475 384.73 80.5801ZM388.363 80.6387V91.2051H386.547V80.6387H388.363ZM386.41 77.8359C386.41 77.543 386.498 77.2956 386.674 77.0938C386.856 76.8919 387.123 76.791 387.475 76.791C387.82 76.791 388.083 76.8919 388.266 77.0938C388.454 77.2956 388.549 77.543 388.549 77.8359C388.549 78.1159 388.454 78.3568 388.266 78.5586C388.083 78.7539 387.82 78.8516 387.475 78.8516C387.123 78.8516 386.856 78.7539 386.674 78.5586C386.498 78.3568 386.41 78.1159 386.41 77.8359ZM393.07 82.8945V91.2051H391.264V80.6387H392.973L393.07 82.8945ZM392.641 85.5215L391.889 85.4922C391.895 84.7695 392.003 84.1022 392.211 83.4902C392.419 82.8717 392.712 82.3346 393.09 81.8789C393.467 81.4232 393.917 81.0716 394.438 80.8242C394.965 80.5703 395.548 80.4434 396.186 80.4434C396.706 80.4434 397.175 80.515 397.592 80.6582C398.008 80.7949 398.363 81.0163 398.656 81.3223C398.956 81.6283 399.184 82.0254 399.34 82.5137C399.496 82.9954 399.574 83.5846 399.574 84.2812V91.2051H397.758V84.2617C397.758 83.7083 397.676 83.2656 397.514 82.9336C397.351 82.5951 397.113 82.3509 396.801 82.2012C396.488 82.0449 396.104 81.9668 395.648 81.9668C395.199 81.9668 394.789 82.0612 394.418 82.25C394.053 82.4388 393.738 82.6992 393.471 83.0312C393.21 83.3633 393.005 83.7441 392.855 84.1738C392.712 84.597 392.641 85.0462 392.641 85.5215ZM409.164 80.6387H410.805V90.9805C410.805 91.9115 410.616 92.7057 410.238 93.3633C409.861 94.0208 409.333 94.5189 408.656 94.8574C407.986 95.2025 407.211 95.375 406.332 95.375C405.967 95.375 405.538 95.3164 405.043 95.1992C404.555 95.0885 404.073 94.8965 403.598 94.623C403.129 94.3561 402.735 93.9948 402.416 93.5391L403.363 92.4648C403.806 92.9987 404.268 93.3698 404.75 93.5781C405.238 93.7865 405.72 93.8906 406.195 93.8906C406.768 93.8906 407.263 93.7832 407.68 93.5684C408.096 93.3535 408.419 93.0345 408.646 92.6113C408.881 92.1947 408.998 91.6803 408.998 91.0684V82.9629L409.164 80.6387ZM401.889 86.0391V85.834C401.889 85.0267 401.983 84.2943 402.172 83.6367C402.367 82.9727 402.644 82.403 403.002 81.9277C403.367 81.4525 403.806 81.0879 404.32 80.834C404.835 80.5736 405.414 80.4434 406.059 80.4434C406.723 80.4434 407.302 80.5605 407.797 80.7949C408.298 81.0228 408.721 81.3581 409.066 81.8008C409.418 82.237 409.695 82.7643 409.896 83.3828C410.098 84.0013 410.238 84.7012 410.316 85.4824V86.3809C410.245 87.1556 410.105 87.8522 409.896 88.4707C409.695 89.0892 409.418 89.6165 409.066 90.0527C408.721 90.4889 408.298 90.8242 407.797 91.0586C407.296 91.2865 406.71 91.4004 406.039 91.4004C405.408 91.4004 404.835 91.2669 404.32 91C403.812 90.7331 403.376 90.3587 403.012 89.877C402.647 89.3952 402.367 88.8288 402.172 88.1777C401.983 87.5202 401.889 86.8073 401.889 86.0391ZM403.695 85.834V86.0391C403.695 86.5664 403.747 87.0612 403.852 87.5234C403.962 87.9857 404.128 88.3926 404.35 88.7441C404.577 89.0957 404.867 89.3724 405.219 89.5742C405.57 89.7695 405.99 89.8672 406.479 89.8672C407.077 89.8672 407.572 89.7402 407.963 89.4863C408.354 89.2324 408.663 88.8971 408.891 88.4805C409.125 88.0638 409.307 87.6113 409.438 87.123V84.7695C409.366 84.4115 409.255 84.0664 409.105 83.7344C408.962 83.3958 408.773 83.0964 408.539 82.8359C408.311 82.569 408.028 82.3574 407.689 82.2012C407.351 82.0449 406.954 81.9668 406.498 81.9668C406.003 81.9668 405.577 82.071 405.219 82.2793C404.867 82.4811 404.577 82.7611 404.35 83.1191C404.128 83.4707 403.962 83.8809 403.852 84.3496C403.747 84.8118 403.695 85.3066 403.695 85.834ZM418.031 86.0391V85.8145C418.031 85.0527 418.142 84.3464 418.363 83.6953C418.585 83.0378 418.904 82.4681 419.32 81.9863C419.737 81.498 420.242 81.1204 420.834 80.8535C421.426 80.5801 422.09 80.4434 422.826 80.4434C423.568 80.4434 424.236 80.5801 424.828 80.8535C425.427 81.1204 425.935 81.498 426.352 81.9863C426.775 82.4681 427.097 83.0378 427.318 83.6953C427.54 84.3464 427.65 85.0527 427.65 85.8145V86.0391C427.65 86.8008 427.54 87.5072 427.318 88.1582C427.097 88.8092 426.775 89.3789 426.352 89.8672C425.935 90.349 425.43 90.7266 424.838 91C424.252 91.2669 423.588 91.4004 422.846 91.4004C422.104 91.4004 421.436 91.2669 420.844 91C420.251 90.7266 419.743 90.349 419.32 89.8672C418.904 89.3789 418.585 88.8092 418.363 88.1582C418.142 87.5072 418.031 86.8008 418.031 86.0391ZM419.838 85.8145V86.0391C419.838 86.5664 419.9 87.0645 420.023 87.5332C420.147 87.9954 420.333 88.4056 420.58 88.7637C420.834 89.1217 421.15 89.4049 421.527 89.6133C421.905 89.8151 422.344 89.916 422.846 89.916C423.34 89.916 423.773 89.8151 424.145 89.6133C424.522 89.4049 424.835 89.1217 425.082 88.7637C425.329 88.4056 425.515 87.9954 425.639 87.5332C425.769 87.0645 425.834 86.5664 425.834 86.0391V85.8145C425.834 85.2936 425.769 84.8021 425.639 84.3398C425.515 83.8711 425.326 83.4577 425.072 83.0996C424.825 82.735 424.512 82.4486 424.135 82.2402C423.764 82.0319 423.327 81.9277 422.826 81.9277C422.331 81.9277 421.895 82.0319 421.518 82.2402C421.146 82.4486 420.834 82.735 420.58 83.0996C420.333 83.4577 420.147 83.8711 420.023 84.3398C419.9 84.8021 419.838 85.2936 419.838 85.8145ZM431.723 82.2988V91.2051H429.916V80.6387H431.674L431.723 82.2988ZM435.023 80.5801L435.014 82.2598C434.864 82.2272 434.721 82.2077 434.584 82.2012C434.454 82.1882 434.304 82.1816 434.135 82.1816C433.718 82.1816 433.35 82.2467 433.031 82.377C432.712 82.5072 432.442 82.6895 432.221 82.9238C431.999 83.1582 431.824 83.4382 431.693 83.7637C431.57 84.0827 431.488 84.4342 431.449 84.8184L430.941 85.1113C430.941 84.4733 431.003 83.8743 431.127 83.3145C431.257 82.7546 431.456 82.2598 431.723 81.8301C431.99 81.3939 432.328 81.0553 432.738 80.8145C433.155 80.5671 433.65 80.4434 434.223 80.4434C434.353 80.4434 434.503 80.4596 434.672 80.4922C434.841 80.5182 434.958 80.5475 435.023 80.5801ZM445.883 89.916C446.312 89.916 446.71 89.8281 447.074 89.6523C447.439 89.4766 447.738 89.2357 447.973 88.9297C448.207 88.6172 448.34 88.2624 448.373 87.8652H450.092C450.059 88.4902 449.848 89.0729 449.457 89.6133C449.073 90.1471 448.568 90.5801 447.943 90.9121C447.318 91.2376 446.632 91.4004 445.883 91.4004C445.089 91.4004 444.395 91.2604 443.803 90.9805C443.217 90.7005 442.729 90.3164 442.338 89.8281C441.954 89.3398 441.664 88.7799 441.469 88.1484C441.28 87.5104 441.186 86.8366 441.186 86.127V85.7168C441.186 85.0072 441.28 84.3366 441.469 83.7051C441.664 83.0671 441.954 82.5039 442.338 82.0156C442.729 81.5273 443.217 81.1432 443.803 80.8633C444.395 80.5833 445.089 80.4434 445.883 80.4434C446.71 80.4434 447.432 80.6126 448.051 80.9512C448.669 81.2832 449.154 81.7389 449.506 82.3184C449.864 82.8913 450.059 83.5423 450.092 84.2715H448.373C448.34 83.8353 448.217 83.4414 448.002 83.0898C447.794 82.7383 447.507 82.4583 447.143 82.25C446.785 82.0352 446.365 81.9277 445.883 81.9277C445.329 81.9277 444.864 82.0384 444.486 82.2598C444.115 82.4746 443.819 82.7676 443.598 83.1387C443.383 83.5033 443.227 83.9102 443.129 84.3594C443.038 84.8021 442.992 85.2546 442.992 85.7168V86.127C442.992 86.5892 443.038 87.0449 443.129 87.4941C443.22 87.9434 443.373 88.3503 443.588 88.7148C443.809 89.0794 444.105 89.3724 444.477 89.5938C444.854 89.8086 445.323 89.916 445.883 89.916ZM453.93 76.2051V91.2051H452.123V76.2051H453.93ZM453.5 85.5215L452.748 85.4922C452.755 84.7695 452.862 84.1022 453.07 83.4902C453.279 82.8717 453.572 82.3346 453.949 81.8789C454.327 81.4232 454.776 81.0716 455.297 80.8242C455.824 80.5703 456.407 80.4434 457.045 80.4434C457.566 80.4434 458.035 80.515 458.451 80.6582C458.868 80.7949 459.223 81.0163 459.516 81.3223C459.815 81.6283 460.043 82.0254 460.199 82.5137C460.355 82.9954 460.434 83.5846 460.434 84.2812V91.2051H458.617V84.2617C458.617 83.7083 458.536 83.2656 458.373 82.9336C458.21 82.5951 457.973 82.3509 457.66 82.2012C457.348 82.0449 456.964 81.9668 456.508 81.9668C456.059 81.9668 455.648 82.0612 455.277 82.25C454.913 82.4388 454.597 82.6992 454.33 83.0312C454.07 83.3633 453.865 83.7441 453.715 84.1738C453.572 84.597 453.5 85.0462 453.5 85.5215ZM465.102 80.6387V91.2051H463.285V80.6387H465.102ZM463.148 77.8359C463.148 77.543 463.236 77.2956 463.412 77.0938C463.594 76.8919 463.861 76.791 464.213 76.791C464.558 76.791 464.822 76.8919 465.004 77.0938C465.193 77.2956 465.287 77.543 465.287 77.8359C465.287 78.1159 465.193 78.3568 465.004 78.5586C464.822 78.7539 464.558 78.8516 464.213 78.8516C463.861 78.8516 463.594 78.7539 463.412 78.5586C463.236 78.3568 463.148 78.1159 463.148 77.8359ZM469.965 76.2051V91.2051H468.148V76.2051H469.965ZM474.828 76.2051V91.2051H473.012V76.2051H474.828ZM479.691 80.6387V91.2051H477.875V80.6387H479.691ZM477.738 77.8359C477.738 77.543 477.826 77.2956 478.002 77.0938C478.184 76.8919 478.451 76.791 478.803 76.791C479.148 76.791 479.411 76.8919 479.594 77.0938C479.783 77.2956 479.877 77.543 479.877 77.8359C479.877 78.1159 479.783 78.3568 479.594 78.5586C479.411 78.7539 479.148 78.8516 478.803 78.8516C478.451 78.8516 478.184 78.7539 478.002 78.5586C477.826 78.3568 477.738 78.1159 477.738 77.8359ZM484.398 82.8945V91.2051H482.592V80.6387H484.301L484.398 82.8945ZM483.969 85.5215L483.217 85.4922C483.223 84.7695 483.331 84.1022 483.539 83.4902C483.747 82.8717 484.04 82.3346 484.418 81.8789C484.796 81.4232 485.245 81.0716 485.766 80.8242C486.293 80.5703 486.876 80.4434 487.514 80.4434C488.035 80.4434 488.503 80.515 488.92 80.6582C489.337 80.7949 489.691 81.0163 489.984 81.3223C490.284 81.6283 490.512 82.0254 490.668 82.5137C490.824 82.9954 490.902 83.5846 490.902 84.2812V91.2051H489.086V84.2617C489.086 83.7083 489.005 83.2656 488.842 82.9336C488.679 82.5951 488.441 82.3509 488.129 82.2012C487.816 82.0449 487.432 81.9668 486.977 81.9668C486.527 81.9668 486.117 82.0612 485.746 82.25C485.382 82.4388 485.066 82.6992 484.799 83.0312C484.538 83.3633 484.333 83.7441 484.184 84.1738C484.04 84.597 483.969 85.0462 483.969 85.5215ZM500.492 80.6387H502.133V90.9805C502.133 91.9115 501.944 92.7057 501.566 93.3633C501.189 94.0208 500.661 94.5189 499.984 94.8574C499.314 95.2025 498.539 95.375 497.66 95.375C497.296 95.375 496.866 95.3164 496.371 95.1992C495.883 95.0885 495.401 94.8965 494.926 94.623C494.457 94.3561 494.063 93.9948 493.744 93.5391L494.691 92.4648C495.134 92.9987 495.596 93.3698 496.078 93.5781C496.566 93.7865 497.048 93.8906 497.523 93.8906C498.096 93.8906 498.591 93.7832 499.008 93.5684C499.424 93.3535 499.747 93.0345 499.975 92.6113C500.209 92.1947 500.326 91.6803 500.326 91.0684V82.9629L500.492 80.6387ZM493.217 86.0391V85.834C493.217 85.0267 493.311 84.2943 493.5 83.6367C493.695 82.9727 493.972 82.403 494.33 81.9277C494.695 81.4525 495.134 81.0879 495.648 80.834C496.163 80.5736 496.742 80.4434 497.387 80.4434C498.051 80.4434 498.63 80.5605 499.125 80.7949C499.626 81.0228 500.049 81.3581 500.395 81.8008C500.746 82.237 501.023 82.7643 501.225 83.3828C501.426 84.0013 501.566 84.7012 501.645 85.4824V86.3809C501.573 87.1556 501.433 87.8522 501.225 88.4707C501.023 89.0892 500.746 89.6165 500.395 90.0527C500.049 90.4889 499.626 90.8242 499.125 91.0586C498.624 91.2865 498.038 91.4004 497.367 91.4004C496.736 91.4004 496.163 91.2669 495.648 91C495.141 90.7331 494.704 90.3587 494.34 89.877C493.975 89.3952 493.695 88.8288 493.5 88.1777C493.311 87.5202 493.217 86.8073 493.217 86.0391ZM495.023 85.834V86.0391C495.023 86.5664 495.076 87.0612 495.18 87.5234C495.29 87.9857 495.456 88.3926 495.678 88.7441C495.906 89.0957 496.195 89.3724 496.547 89.5742C496.898 89.7695 497.318 89.8672 497.807 89.8672C498.406 89.8672 498.9 89.7402 499.291 89.4863C499.682 89.2324 499.991 88.8971 500.219 88.4805C500.453 88.0638 500.635 87.6113 500.766 87.123V84.7695C500.694 84.4115 500.583 84.0664 500.434 83.7344C500.29 83.3958 500.102 83.0964 499.867 82.8359C499.639 82.569 499.356 82.3574 499.018 82.2012C498.679 82.0449 498.282 81.9668 497.826 81.9668C497.331 81.9668 496.905 82.071 496.547 82.2793C496.195 82.4811 495.906 82.7611 495.678 83.1191C495.456 83.4707 495.29 83.8809 495.18 84.3496C495.076 84.8118 495.023 85.3066 495.023 85.834ZM516.068 89.3984V83.959C516.068 83.5423 515.984 83.181 515.814 82.875C515.652 82.5625 515.404 82.3216 515.072 82.1523C514.74 81.9831 514.33 81.8984 513.842 81.8984C513.386 81.8984 512.986 81.9766 512.641 82.1328C512.302 82.2891 512.035 82.4941 511.84 82.748C511.651 83.002 511.557 83.2754 511.557 83.5684H509.75C509.75 83.1908 509.848 82.8164 510.043 82.4453C510.238 82.0742 510.518 81.7389 510.883 81.4395C511.254 81.1335 511.697 80.8926 512.211 80.7168C512.732 80.5345 513.311 80.4434 513.949 80.4434C514.717 80.4434 515.395 80.5736 515.98 80.834C516.573 81.0944 517.035 81.4883 517.367 82.0156C517.706 82.5365 517.875 83.1908 517.875 83.9785V88.9004C517.875 89.252 517.904 89.6263 517.963 90.0234C518.028 90.4206 518.122 90.7624 518.246 91.0488V91.2051H516.361C516.27 90.9967 516.199 90.7201 516.146 90.375C516.094 90.0234 516.068 89.6979 516.068 89.3984ZM516.381 84.7988L516.4 86.0684H514.574C514.06 86.0684 513.601 86.1107 513.197 86.1953C512.794 86.2734 512.455 86.3939 512.182 86.5566C511.908 86.7194 511.7 86.9245 511.557 87.1719C511.413 87.4128 511.342 87.696 511.342 88.0215C511.342 88.3535 511.417 88.6562 511.566 88.9297C511.716 89.2031 511.941 89.4212 512.24 89.584C512.546 89.7402 512.921 89.8184 513.363 89.8184C513.917 89.8184 514.405 89.7012 514.828 89.4668C515.251 89.2324 515.587 88.946 515.834 88.6074C516.088 88.2689 516.225 87.9401 516.244 87.6211L517.016 88.4902C516.97 88.7637 516.846 89.0664 516.645 89.3984C516.443 89.7305 516.173 90.0495 515.834 90.3555C515.502 90.6549 515.105 90.9056 514.643 91.1074C514.187 91.3027 513.673 91.4004 513.1 91.4004C512.383 91.4004 511.755 91.2604 511.215 90.9805C510.681 90.7005 510.264 90.3262 509.965 89.8574C509.672 89.3822 509.525 88.8516 509.525 88.2656C509.525 87.6992 509.636 87.2012 509.857 86.7715C510.079 86.3353 510.398 85.974 510.814 85.6875C511.231 85.3945 511.732 85.1732 512.318 85.0234C512.904 84.8737 513.559 84.7988 514.281 84.7988H516.381ZM525.141 80.6387V82.0254H519.428V80.6387H525.141ZM521.361 78.0703H523.168V88.5879C523.168 88.946 523.223 89.2161 523.334 89.3984C523.445 89.5807 523.588 89.7012 523.764 89.7598C523.939 89.8184 524.128 89.8477 524.33 89.8477C524.48 89.8477 524.636 89.8346 524.799 89.8086C524.968 89.776 525.095 89.75 525.18 89.7305L525.189 91.2051C525.046 91.2507 524.857 91.293 524.623 91.332C524.395 91.3776 524.118 91.4004 523.793 91.4004C523.35 91.4004 522.943 91.3125 522.572 91.1367C522.201 90.9609 521.905 90.668 521.684 90.2578C521.469 89.8411 521.361 89.2812 521.361 88.5781V78.0703ZM534.027 76.2051V91.2051H532.221V76.2051H534.027ZM533.598 85.5215L532.846 85.4922C532.852 84.7695 532.96 84.1022 533.168 83.4902C533.376 82.8717 533.669 82.3346 534.047 81.8789C534.424 81.4232 534.874 81.0716 535.395 80.8242C535.922 80.5703 536.505 80.4434 537.143 80.4434C537.663 80.4434 538.132 80.515 538.549 80.6582C538.965 80.7949 539.32 81.0163 539.613 81.3223C539.913 81.6283 540.141 82.0254 540.297 82.5137C540.453 82.9954 540.531 83.5846 540.531 84.2812V91.2051H538.715V84.2617C538.715 83.7083 538.633 83.2656 538.471 82.9336C538.308 82.5951 538.07 82.3509 537.758 82.2012C537.445 82.0449 537.061 81.9668 536.605 81.9668C536.156 81.9668 535.746 82.0612 535.375 82.25C535.01 82.4388 534.695 82.6992 534.428 83.0312C534.167 83.3633 533.962 83.7441 533.812 84.1738C533.669 84.597 533.598 85.0462 533.598 85.5215ZM542.758 86.0391V85.8145C542.758 85.0527 542.868 84.3464 543.09 83.6953C543.311 83.0378 543.63 82.4681 544.047 81.9863C544.464 81.498 544.968 81.1204 545.561 80.8535C546.153 80.5801 546.817 80.4434 547.553 80.4434C548.295 80.4434 548.962 80.5801 549.555 80.8535C550.154 81.1204 550.661 81.498 551.078 81.9863C551.501 82.4681 551.824 83.0378 552.045 83.6953C552.266 84.3464 552.377 85.0527 552.377 85.8145V86.0391C552.377 86.8008 552.266 87.5072 552.045 88.1582C551.824 88.8092 551.501 89.3789 551.078 89.8672C550.661 90.349 550.157 90.7266 549.564 91C548.979 91.2669 548.314 91.4004 547.572 91.4004C546.83 91.4004 546.163 91.2669 545.57 91C544.978 90.7266 544.47 90.349 544.047 89.8672C543.63 89.3789 543.311 88.8092 543.09 88.1582C542.868 87.5072 542.758 86.8008 542.758 86.0391ZM544.564 85.8145V86.0391C544.564 86.5664 544.626 87.0645 544.75 87.5332C544.874 87.9954 545.059 88.4056 545.307 88.7637C545.561 89.1217 545.876 89.4049 546.254 89.6133C546.632 89.8151 547.071 89.916 547.572 89.916C548.067 89.916 548.5 89.8151 548.871 89.6133C549.249 89.4049 549.561 89.1217 549.809 88.7637C550.056 88.4056 550.242 87.9954 550.365 87.5332C550.495 87.0645 550.561 86.5664 550.561 86.0391V85.8145C550.561 85.2936 550.495 84.8021 550.365 84.3398C550.242 83.8711 550.053 83.4577 549.799 83.0996C549.551 82.735 549.239 82.4486 548.861 82.2402C548.49 82.0319 548.054 81.9277 547.553 81.9277C547.058 81.9277 546.622 82.0319 546.244 82.2402C545.873 82.4486 545.561 82.735 545.307 83.0996C545.059 83.4577 544.874 83.8711 544.75 84.3398C544.626 84.8021 544.564 85.2936 544.564 85.8145ZM556.439 82.7383V91.2051H554.623V80.6387H556.342L556.439 82.7383ZM556.068 85.5215L555.229 85.4922C555.235 84.7695 555.329 84.1022 555.512 83.4902C555.694 82.8717 555.964 82.3346 556.322 81.8789C556.68 81.4232 557.126 81.0716 557.66 80.8242C558.194 80.5703 558.812 80.4434 559.516 80.4434C560.01 80.4434 560.466 80.515 560.883 80.6582C561.299 80.7949 561.661 81.013 561.967 81.3125C562.273 81.612 562.51 81.9961 562.68 82.4648C562.849 82.9336 562.934 83.5 562.934 84.1641V91.2051H561.127V84.252C561.127 83.6986 561.033 83.2559 560.844 82.9238C560.661 82.5918 560.401 82.3509 560.062 82.2012C559.724 82.0449 559.327 81.9668 558.871 81.9668C558.337 81.9668 557.891 82.0612 557.533 82.25C557.175 82.4388 556.889 82.6992 556.674 83.0312C556.459 83.3633 556.303 83.7441 556.205 84.1738C556.114 84.597 556.068 85.0462 556.068 85.5215ZM562.914 84.5254L561.703 84.8965C561.71 84.3171 561.804 83.7604 561.986 83.2266C562.175 82.6927 562.445 82.2174 562.797 81.8008C563.155 81.3841 563.594 81.0553 564.115 80.8145C564.636 80.5671 565.232 80.4434 565.902 80.4434C566.469 80.4434 566.97 80.5182 567.406 80.668C567.849 80.8177 568.22 81.0488 568.52 81.3613C568.826 81.6673 569.057 82.0612 569.213 82.543C569.369 83.0247 569.447 83.5977 569.447 84.2617V91.2051H567.631V84.2422C567.631 83.6497 567.536 83.1908 567.348 82.8652C567.165 82.5332 566.905 82.3021 566.566 82.1719C566.234 82.0352 565.837 81.9668 565.375 81.9668C564.978 81.9668 564.626 82.0352 564.32 82.1719C564.014 82.3086 563.757 82.4974 563.549 82.7383C563.34 82.9727 563.181 83.2428 563.07 83.5488C562.966 83.8548 562.914 84.1803 562.914 84.5254ZM576.566 91.4004C575.831 91.4004 575.163 91.2767 574.564 91.0293C573.972 90.7754 573.461 90.4206 573.031 89.9648C572.608 89.5091 572.283 88.9688 572.055 88.3438C571.827 87.7188 571.713 87.0352 571.713 86.293V85.8828C571.713 85.0234 571.84 84.2585 572.094 83.5879C572.348 82.9108 572.693 82.3379 573.129 81.8691C573.565 81.4004 574.06 81.0456 574.613 80.8047C575.167 80.5638 575.74 80.4434 576.332 80.4434C577.087 80.4434 577.738 80.5736 578.285 80.834C578.839 81.0944 579.291 81.459 579.643 81.9277C579.994 82.39 580.255 82.9368 580.424 83.5684C580.593 84.1934 580.678 84.877 580.678 85.6191V86.4297H572.787V84.9551H578.871V84.8184C578.845 84.3496 578.747 83.8939 578.578 83.4512C578.415 83.0085 578.155 82.6439 577.797 82.3574C577.439 82.071 576.951 81.9277 576.332 81.9277C575.922 81.9277 575.544 82.0156 575.199 82.1914C574.854 82.3607 574.558 82.6146 574.311 82.9531C574.063 83.2917 573.871 83.7051 573.734 84.1934C573.598 84.6816 573.529 85.2448 573.529 85.8828V86.293C573.529 86.7943 573.598 87.2663 573.734 87.709C573.878 88.1452 574.083 88.5293 574.35 88.8613C574.623 89.1934 574.952 89.4538 575.336 89.6426C575.727 89.8314 576.169 89.9258 576.664 89.9258C577.302 89.9258 577.842 89.7956 578.285 89.5352C578.728 89.2747 579.115 88.9264 579.447 88.4902L580.541 89.3594C580.313 89.7044 580.023 90.0332 579.672 90.3457C579.32 90.6582 578.887 90.9121 578.373 91.1074C577.865 91.3027 577.263 91.4004 576.566 91.4004ZM586.713 87.2012H584.896C584.903 86.5762 584.958 86.0651 585.062 85.668C585.173 85.2643 585.352 84.8965 585.6 84.5645C585.847 84.2324 586.176 83.8548 586.586 83.4316C586.885 83.1257 587.159 82.8392 587.406 82.5723C587.66 82.2988 587.865 82.0059 588.021 81.6934C588.178 81.3743 588.256 80.9935 588.256 80.5508C588.256 80.1016 588.174 79.7142 588.012 79.3887C587.855 79.0632 587.621 78.8125 587.309 78.6367C587.003 78.4609 586.622 78.373 586.166 78.373C585.788 78.373 585.43 78.4414 585.092 78.5781C584.753 78.7148 584.48 78.9264 584.271 79.2129C584.063 79.4928 583.956 79.8607 583.949 80.3164H582.143C582.156 79.5807 582.338 78.9492 582.689 78.4219C583.048 77.8945 583.529 77.4909 584.135 77.2109C584.74 76.931 585.417 76.791 586.166 76.791C586.993 76.791 587.696 76.9408 588.275 77.2402C588.861 77.5397 589.307 77.9694 589.613 78.5293C589.919 79.0827 590.072 79.7402 590.072 80.502C590.072 81.0879 589.952 81.6283 589.711 82.123C589.477 82.6113 589.174 83.0703 588.803 83.5C588.432 83.9297 588.038 84.3398 587.621 84.7305C587.263 85.0625 587.022 85.4368 586.898 85.8535C586.775 86.2702 586.713 86.7194 586.713 87.2012ZM584.818 90.2969C584.818 90.0039 584.91 89.7565 585.092 89.5547C585.274 89.3529 585.538 89.252 585.883 89.252C586.234 89.252 586.501 89.3529 586.684 89.5547C586.866 89.7565 586.957 90.0039 586.957 90.2969C586.957 90.5768 586.866 90.8177 586.684 91.0195C586.501 91.2214 586.234 91.3223 585.883 91.3223C585.538 91.3223 585.274 91.2214 585.092 91.0195C584.91 90.8177 584.818 90.5768 584.818 90.2969Z" fill="white"/>
<circle cx="68" cy="152" r="20" fill="url(#paint0_linear_455_190)"/>
<rect x="100.283" y="147" width="385.612" height="9.61411" rx="4.80706" fill="white"/>
<path d="M58.1416 151.537L65.6416 157.305L78.1416 145.768" stroke="#EDF6F9" stroke-width="2" stroke-linecap="round" stroke-linejoin="round"/>
<circle cx="67.2969" cy="212" r="19" stroke="white" stroke-width="2"/>
<rect x="101.283" y="207" width="385.612" height="9.61411" rx="4.80706" fill="white"/>
<circle cx="67.2969" cy="392" r="19" stroke="white" stroke-width="2"/>
<rect x="101.283" y="387" width="385.612" height="9.61411" rx="4.80706" fill="white"/>
<circle cx="67.2969" cy="332" r="19" stroke="white" stroke-width="2"/>
<rect x="101.283" y="327" width="385.612" height="9.61411" rx="4.80706" fill="white"/>
<circle cx="67.2969" cy="272" r="19" stroke="white" stroke-width="2"/>
<rect x="101.283" y="267" width="385.612" height="9.61411" rx="4.80706" fill="white"/>
<defs>
<filter id="filter0_d_455_190" x="0.808594" y="0.0622559" width="651.687" height="489.706" filterUnits="userSpaceOnUse" color-interpolation-filters="sRGB">
<feFlood flood-opacity="0" result="BackgroundImageFix"/>
<feColorMatrix in="SourceAlpha" type="matrix" values="0 0 0 0 0 0 0 0 0 0 0 0 0 0 0 0 0 0 127 0" result="hardAlpha"/>
<feOffset dy="4"/>
<feGaussianBlur stdDeviation="2"/>
<feComposite in2="hardAlpha" operator="out"/>
<feColorMatrix type="matrix" values="0 0 0 0 0 0 0 0 0 0 0 0 0 0 0 0 0 0 0.25 0"/>
<feBlend mode="normal" in2="BackgroundImageFix" result="effect1_dropShadow_455_190"/>
<feBlend mode="normal" in="SourceGraphic" in2="effect1_dropShadow_455_190" result="shape"/>
</filter>
<linearGradient id="paint0_linear_455_190" x1="54.6667" y1="140.667" x2="88" y2="160.667" gradientUnits="userSpaceOnUse">
<stop stop-color="#20C2E6"/>
<stop offset="1" stop-color="#3F9799"/>
</linearGradient>
</defs>
</svg>
