<svg width="479" height="166" viewBox="0 0 479 166" fill="none" xmlns="http://www.w3.org/2000/svg">
<rect y="0.090332" width="478.892" height="165.843" rx="15" fill="url(#paint0_linear_455_212)" fill-opacity="0.5"/>
<path d="M127.118 76.5753V103.591H123.593V76.5753H127.118ZM135.802 76.5753V79.5069H114.928V76.5753H135.802ZM157.455 88.1905V91.1036H142.834V88.1905H157.455ZM143.391 76.5753V103.591H139.81V76.5753H143.391ZM160.572 76.5753V103.591H157.01V76.5753H160.572ZM184.1 100.678V103.591H169.794V100.678H184.1ZM170.518 76.5753V103.591H166.937V76.5753H170.518ZM182.207 88.1905V91.1036H169.794V88.1905H182.207ZM183.914 76.5753V79.5069H169.794V76.5753H183.914ZM214.344 100.678V103.591H200.836V100.678H214.344ZM201.541 76.5753V103.591H197.96V76.5753H201.541ZM238.02 89.2296V90.9366C238.02 92.9652 237.766 94.7836 237.259 96.3917C236.752 97.9997 236.022 99.3666 235.069 100.492C234.117 101.618 232.973 102.478 231.637 103.071C230.313 103.665 228.829 103.962 227.184 103.962C225.588 103.962 224.122 103.665 222.786 103.071C221.463 102.478 220.312 101.618 219.335 100.492C218.37 99.3666 217.622 97.9997 217.09 96.3917C216.558 94.7836 216.292 92.9652 216.292 90.9366V89.2296C216.292 87.2009 216.552 85.3887 217.071 83.793C217.603 82.185 218.352 80.8181 219.316 79.6924C220.281 78.5544 221.425 77.6885 222.749 77.0948C224.085 76.501 225.551 76.2042 227.146 76.2042C228.792 76.2042 230.276 76.501 231.6 77.0948C232.936 77.6885 234.08 78.5544 235.032 79.6924C235.997 80.8181 236.733 82.185 237.24 83.793C237.76 85.3887 238.02 87.2009 238.02 89.2296ZM234.476 90.9366V89.1924C234.476 87.5844 234.309 86.1618 233.975 84.9249C233.653 83.6879 233.177 82.6488 232.546 81.8077C231.915 80.9665 231.142 80.3295 230.227 79.8965C229.324 79.4636 228.297 79.2471 227.146 79.2471C226.033 79.2471 225.025 79.4636 224.122 79.8965C223.231 80.3295 222.465 80.9665 221.821 81.8077C221.19 82.6488 220.702 83.6879 220.355 84.9249C220.009 86.1618 219.836 87.5844 219.836 89.1924V90.9366C219.836 92.557 220.009 93.9919 220.355 95.2413C220.702 96.4783 221.197 97.5235 221.84 98.377C222.495 99.2182 223.269 99.8552 224.159 100.288C225.062 100.721 226.07 100.938 227.184 100.938C228.346 100.938 229.379 100.721 230.282 100.288C231.185 99.8552 231.946 99.2182 232.564 98.377C233.195 97.5235 233.672 96.4783 233.993 95.2413C234.315 93.9919 234.476 92.557 234.476 90.9366ZM263.347 90.1387V100.028C263.013 100.523 262.481 101.08 261.751 101.698C261.021 102.304 260.013 102.836 258.727 103.294C257.452 103.739 255.807 103.962 253.791 103.962C252.146 103.962 250.631 103.677 249.245 103.108C247.872 102.527 246.678 101.686 245.664 100.585C244.662 99.4717 243.883 98.1234 243.326 96.5401C242.782 94.9444 242.51 93.1384 242.51 91.1221V89.0255C242.51 87.0092 242.745 85.2094 243.215 83.626C243.697 82.0427 244.402 80.7006 245.33 79.5997C246.258 78.4864 247.396 77.6452 248.744 77.0762C250.092 76.4949 251.639 76.2042 253.383 76.2042C255.449 76.2042 257.174 76.5629 258.56 77.2803C259.957 77.9854 261.046 78.9626 261.825 80.212C262.617 81.4613 263.124 82.8839 263.347 84.4796H259.766C259.605 83.5023 259.283 82.6117 258.801 81.8077C258.331 81.0036 257.657 80.3604 256.778 79.878C255.9 79.3832 254.768 79.1358 253.383 79.1358C252.133 79.1358 251.051 79.3646 250.136 79.8223C249.22 80.28 248.466 80.9356 247.872 81.7891C247.278 82.6426 246.833 83.6755 246.536 84.8878C246.252 86.1 246.109 87.4669 246.109 88.9883V91.1221C246.109 92.6807 246.289 94.0723 246.647 95.2969C247.019 96.5215 247.544 97.5668 248.225 98.4327C248.905 99.2862 249.715 99.9356 250.655 100.381C251.608 100.826 252.659 101.049 253.81 101.049C255.084 101.049 256.117 100.944 256.908 100.733C257.7 100.511 258.318 100.251 258.764 99.9542C259.209 99.6449 259.549 99.3542 259.784 99.0821V93.0333H253.531V90.1387H263.347ZM273.125 76.5753V103.591H269.544V76.5753H273.125ZM295.947 95.0001H299.51C299.324 96.7071 298.836 98.2348 298.044 99.5831C297.252 100.931 296.133 102.001 294.686 102.793C293.238 103.572 291.432 103.962 289.268 103.962C287.684 103.962 286.243 103.665 284.944 103.071C283.658 102.478 282.551 101.636 281.623 100.548C280.695 99.447 279.978 98.1296 279.471 96.5958C278.976 95.0495 278.729 93.3301 278.729 91.4376V88.7471C278.729 86.8546 278.976 85.1413 279.471 83.6075C279.978 82.0613 280.701 80.7377 281.642 79.6368C282.594 78.5359 283.738 77.6885 285.074 77.0948C286.41 76.501 287.913 76.2042 289.583 76.2042C291.624 76.2042 293.35 76.5876 294.76 77.3546C296.17 78.1215 297.265 79.1853 298.044 80.546C298.836 81.8943 299.324 83.459 299.51 85.2403H295.947C295.774 83.9786 295.452 82.8962 294.982 81.9932C294.512 81.0779 293.844 80.3728 292.979 79.878C292.113 79.3832 290.981 79.1358 289.583 79.1358C288.383 79.1358 287.326 79.3646 286.41 79.8223C285.507 80.28 284.746 80.9294 284.128 81.7706C283.522 82.6117 283.064 83.6199 282.755 84.795C282.446 85.9701 282.291 87.2751 282.291 88.71V91.4376C282.291 92.7611 282.427 94.0043 282.699 95.1671C282.984 96.3298 283.41 97.3503 283.979 98.2286C284.549 99.1068 285.272 99.7995 286.15 100.307C287.029 100.801 288.068 101.049 289.268 101.049C290.789 101.049 292.001 100.808 292.904 100.325C293.807 99.8428 294.488 99.1501 294.945 98.2471C295.415 97.3441 295.749 96.2618 295.947 95.0001ZM308.23 76.5753V103.591H304.649V76.5753H308.23ZM325.078 78.9688L316.135 103.591H312.479L322.777 76.5753H325.134L325.078 78.9688ZM332.574 103.591L323.612 78.9688L323.557 76.5753H325.913L336.248 103.591H332.574ZM332.11 93.5899V96.5215H316.933V93.5899H332.11ZM360.647 76.5753V103.591H357.048L343.447 82.754V103.591H339.866V76.5753H343.447L357.104 97.4678V76.5753H360.647Z" fill="#EDF6F9"/>
<path d="M211.074 28.3287L214.396 34.7535L217.728 28.3287H219.652L215.24 36.3444V41.1256H213.544V36.3444L209.132 28.3287H211.074ZM220.039 36.4762V36.274C220.039 35.5885 220.139 34.9528 220.338 34.3668C220.537 33.775 220.824 33.2623 221.199 32.8287C221.574 32.3893 222.028 32.0494 222.562 31.8092C223.095 31.5631 223.692 31.4401 224.354 31.4401C225.022 31.4401 225.623 31.5631 226.156 31.8092C226.695 32.0494 227.152 32.3893 227.527 32.8287C227.908 33.2623 228.198 33.775 228.397 34.3668C228.597 34.9528 228.696 35.5885 228.696 36.274V36.4762C228.696 37.1617 228.597 37.7975 228.397 38.3834C228.198 38.9694 227.908 39.4821 227.527 39.9215C227.152 40.3551 226.698 40.6949 226.165 40.941C225.638 41.1813 225.04 41.3014 224.372 41.3014C223.704 41.3014 223.104 41.1813 222.57 40.941C222.037 40.6949 221.58 40.3551 221.199 39.9215C220.824 39.4821 220.537 38.9694 220.338 38.3834C220.139 37.7975 220.039 37.1617 220.039 36.4762ZM221.665 36.274V36.4762C221.665 36.9508 221.721 37.399 221.832 37.8209C221.943 38.2369 222.11 38.6061 222.333 38.9283C222.562 39.2506 222.846 39.5055 223.186 39.693C223.525 39.8746 223.921 39.9655 224.372 39.9655C224.817 39.9655 225.207 39.8746 225.541 39.693C225.881 39.5055 226.162 39.2506 226.385 38.9283C226.607 38.6061 226.774 38.2369 226.886 37.8209C227.003 37.399 227.062 36.9508 227.062 36.4762V36.274C227.062 35.8053 227.003 35.3629 226.886 34.9469C226.774 34.525 226.604 34.153 226.376 33.8307C226.153 33.5026 225.872 33.2448 225.532 33.0573C225.198 32.8698 224.806 32.776 224.354 32.776C223.909 32.776 223.517 32.8698 223.177 33.0573C222.843 33.2448 222.562 33.5026 222.333 33.8307C222.11 34.153 221.943 34.525 221.832 34.9469C221.721 35.3629 221.665 35.8053 221.665 36.274ZM236.554 38.9283V31.6158H238.188V41.1256H236.633L236.554 38.9283ZM236.861 36.9244L237.538 36.9069C237.538 37.5397 237.471 38.1256 237.336 38.6647C237.207 39.1979 236.996 39.6608 236.703 40.0533C236.41 40.4459 236.026 40.7535 235.552 40.9762C235.077 41.193 234.5 41.3014 233.82 41.3014C233.357 41.3014 232.933 41.234 232.546 41.0992C232.165 40.9645 231.837 40.7565 231.562 40.4752C231.286 40.194 231.072 39.8278 230.92 39.3766C230.773 38.9254 230.7 38.3834 230.7 37.7506V31.6158H232.326V37.7682C232.326 38.1959 232.373 38.5504 232.467 38.8317C232.566 39.1071 232.698 39.3268 232.862 39.4908C233.032 39.649 233.22 39.7604 233.425 39.8248C233.636 39.8893 233.853 39.9215 234.075 39.9215C234.767 39.9215 235.314 39.7897 235.719 39.526C236.123 39.2565 236.413 38.8961 236.589 38.4449C236.771 37.9879 236.861 37.4811 236.861 36.9244ZM250.739 39.4996V34.6041C250.739 34.2291 250.663 33.9039 250.511 33.6285C250.364 33.3473 250.142 33.1305 249.843 32.9781C249.544 32.8258 249.175 32.7496 248.735 32.7496C248.325 32.7496 247.965 32.8199 247.654 32.9606C247.35 33.1012 247.109 33.2858 246.934 33.5143C246.764 33.7428 246.679 33.9889 246.679 34.2526H245.053C245.053 33.9127 245.141 33.5758 245.316 33.2418C245.492 32.9078 245.744 32.6061 246.072 32.3365C246.406 32.0612 246.805 31.8444 247.268 31.6862C247.736 31.5221 248.258 31.4401 248.832 31.4401C249.523 31.4401 250.133 31.5573 250.66 31.7916C251.193 32.026 251.609 32.3805 251.908 32.8551C252.213 33.3239 252.365 33.9127 252.365 34.6217V39.0514C252.365 39.3678 252.392 39.7047 252.444 40.0621C252.503 40.4196 252.588 40.7272 252.699 40.985V41.1256H251.003C250.921 40.9381 250.856 40.6891 250.81 40.3785C250.763 40.0621 250.739 39.7692 250.739 39.4996ZM251.021 35.36L251.038 36.5026H249.395C248.932 36.5026 248.519 36.5406 248.155 36.6168C247.792 36.6871 247.487 36.7955 247.241 36.942C246.995 37.0885 246.808 37.2731 246.679 37.4957C246.55 37.7125 246.485 37.9674 246.485 38.2604C246.485 38.5592 246.553 38.8317 246.688 39.0778C246.822 39.3239 247.024 39.5201 247.294 39.6666C247.569 39.8073 247.906 39.8776 248.305 39.8776C248.803 39.8776 249.242 39.7721 249.623 39.5612C250.004 39.3502 250.306 39.0924 250.528 38.7877C250.757 38.483 250.88 38.1871 250.897 37.9L251.592 38.6823C251.551 38.9283 251.439 39.2008 251.258 39.4996C251.076 39.7985 250.833 40.0856 250.528 40.361C250.229 40.6305 249.872 40.8561 249.456 41.0377C249.046 41.2135 248.583 41.3014 248.067 41.3014C247.423 41.3014 246.857 41.1754 246.371 40.9235C245.891 40.6715 245.516 40.3346 245.246 39.9127C244.982 39.485 244.851 39.0074 244.851 38.4801C244.851 37.9703 244.95 37.5221 245.149 37.1354C245.349 36.7428 245.636 36.4176 246.011 36.1598C246.386 35.8961 246.837 35.6969 247.364 35.5621C247.892 35.4274 248.48 35.36 249.131 35.36H251.021ZM256.549 33.11V41.1256H254.923V31.6158H256.505L256.549 33.11ZM259.52 31.5631L259.511 33.0748C259.376 33.0455 259.247 33.028 259.124 33.0221C259.007 33.0104 258.872 33.0045 258.72 33.0045C258.345 33.0045 258.014 33.0631 257.727 33.1803C257.439 33.2975 257.196 33.4615 256.997 33.6725C256.798 33.8834 256.64 34.1354 256.522 34.4283C256.411 34.7155 256.338 35.0319 256.303 35.3776L255.846 35.6412C255.846 35.067 255.901 34.528 256.013 34.024C256.13 33.5201 256.309 33.0748 256.549 32.6881C256.789 32.2955 257.094 31.9908 257.463 31.774C257.838 31.5514 258.283 31.4401 258.799 31.4401C258.916 31.4401 259.051 31.4547 259.203 31.484C259.355 31.5074 259.461 31.5338 259.52 31.5631ZM264.793 41.3014C264.131 41.3014 263.53 41.1901 262.991 40.9674C262.458 40.7389 261.998 40.4196 261.611 40.0094C261.23 39.5992 260.938 39.1129 260.732 38.5504C260.527 37.9879 260.425 37.3727 260.425 36.7047V36.3356C260.425 35.5621 260.539 34.8737 260.768 34.2701C260.996 33.6608 261.307 33.1451 261.699 32.7233C262.092 32.3014 262.537 31.9821 263.035 31.7653C263.533 31.5485 264.049 31.4401 264.582 31.4401C265.262 31.4401 265.848 31.5573 266.34 31.7916C266.838 32.026 267.245 32.3541 267.562 32.776C267.878 33.192 268.112 33.6842 268.265 34.2526C268.417 34.8151 268.493 35.4303 268.493 36.0983V36.8278H261.392V35.5006H266.867V35.3776C266.844 34.9557 266.756 34.5455 266.604 34.1471C266.457 33.7487 266.223 33.4205 265.9 33.1627C265.578 32.9049 265.139 32.776 264.582 32.776C264.213 32.776 263.873 32.8551 263.562 33.0133C263.252 33.1656 262.985 33.3942 262.763 33.6989C262.54 34.0035 262.367 34.3756 262.244 34.8151C262.121 35.2545 262.06 35.7614 262.06 36.3356V36.7047C262.06 37.1559 262.121 37.5807 262.244 37.9791C262.373 38.3717 262.558 38.7174 262.798 39.0162C263.044 39.3151 263.34 39.5494 263.686 39.7194C264.037 39.8893 264.436 39.9742 264.881 39.9742C265.455 39.9742 265.941 39.8571 266.34 39.6227C266.738 39.3883 267.087 39.0748 267.386 38.6823L268.37 39.4645C268.165 39.775 267.904 40.0709 267.588 40.3522C267.271 40.6334 266.882 40.8619 266.419 41.0377C265.962 41.2135 265.42 41.3014 264.793 41.3014Z" fill="#F3F3F3"/>
<defs>
<linearGradient id="paint0_linear_455_212" x1="14.575" y1="165.934" x2="456.485" y2="56.8954" gradientUnits="userSpaceOnUse">
<stop stop-color="#B5179E"/>
<stop offset="1" stop-color="#4895EF"/>
</linearGradient>
</defs>
</svg>
