<svg width="479" height="166" viewBox="0 0 479 166" fill="none" xmlns="http://www.w3.org/2000/svg">
<rect width="478.892" height="165.843" rx="15" fill="url(#paint0_linear_455_186)" fill-opacity="0.5"/>
<path d="M111.118 76.4849V103.501H107.593V76.4849H111.118ZM119.802 76.4849V79.4166H98.9277V76.4849H119.802ZM141.455 88.1002V91.0132H126.834V88.1002H141.455ZM127.391 76.4849V103.501H123.81V76.4849H127.391ZM144.572 76.4849V103.501H141.01V76.4849H144.572ZM168.1 100.587V103.501H153.794V100.587H168.1ZM154.518 76.4849V103.501H150.937V76.4849H154.518ZM166.207 88.1002V91.0132H153.794V88.1002H166.207ZM167.914 76.4849V79.4166H153.794V76.4849H167.914ZM191.961 78.8785L183.018 103.501H179.362L189.66 76.4849H192.017L191.961 78.8785ZM199.457 103.501L190.495 78.8785L190.439 76.4849H192.796L203.131 103.501H199.457ZM198.993 93.4996V96.4312H183.815V93.4996H198.993ZM206.749 76.4849H215.692C217.721 76.4849 219.434 76.7942 220.832 77.4127C222.242 78.0311 223.312 78.9465 224.042 80.1588C224.784 81.3586 225.155 82.8368 225.155 84.5933C225.155 85.8303 224.902 86.9621 224.395 87.9888C223.9 89.0032 223.182 89.869 222.242 90.5865C221.314 91.2916 220.201 91.8173 218.902 92.1636L217.9 92.5533H209.495L209.458 89.6402H215.804C217.09 89.6402 218.16 89.4175 219.014 88.9722C219.867 88.5145 220.51 87.9022 220.943 87.1353C221.376 86.3684 221.593 85.5211 221.593 84.5933C221.593 83.5543 221.389 82.6451 220.98 81.8658C220.572 81.0865 219.929 80.4866 219.051 80.066C218.185 79.633 217.065 79.4166 215.692 79.4166H210.33V103.501H206.749V76.4849ZM222.539 103.501L215.971 91.2545L219.7 91.2359L226.361 103.278V103.501H222.539ZM246.475 94.9097H250.037C249.852 96.6168 249.363 98.1444 248.571 99.4927C247.78 100.841 246.66 101.911 245.213 102.703C243.766 103.482 241.96 103.872 239.795 103.872C238.212 103.872 236.771 103.575 235.472 102.981C234.185 102.387 233.078 101.546 232.15 100.458C231.223 99.3567 230.505 98.0393 229.998 96.5054C229.503 94.9592 229.256 93.2398 229.256 91.3472V88.6568C229.256 86.7642 229.503 85.051 229.998 83.5172C230.505 81.9709 231.229 80.6474 232.169 79.5464C233.121 78.4455 234.266 77.5982 235.602 77.0045C236.938 76.4107 238.44 76.1138 240.11 76.1138C242.151 76.1138 243.877 76.4973 245.287 77.2642C246.697 78.0311 247.792 79.095 248.571 80.4556C249.363 81.8039 249.852 83.3687 250.037 85.15H246.475C246.301 83.8882 245.98 82.8059 245.51 81.9029C245.04 80.9875 244.372 80.2825 243.506 79.7877C242.64 79.2929 241.508 79.0455 240.11 79.0455C238.91 79.0455 237.853 79.2743 236.938 79.732C236.035 80.1897 235.274 80.8391 234.655 81.6802C234.049 82.5214 233.591 83.5295 233.282 84.7047C232.973 85.8798 232.818 87.1848 232.818 88.6197V91.3472C232.818 92.6708 232.954 93.914 233.227 95.0767C233.511 96.2395 233.938 97.26 234.507 98.1382C235.076 99.0165 235.799 99.7092 236.678 100.216C237.556 100.711 238.595 100.959 239.795 100.959C241.316 100.959 242.529 100.717 243.432 100.235C244.335 99.7525 245.015 99.0598 245.473 98.1568C245.943 97.2538 246.277 96.1714 246.475 94.9097ZM272.562 88.1002V91.0132H257.941V88.1002H272.562ZM258.498 76.4849V103.501H254.917V76.4849H258.498ZM275.68 76.4849V103.501H272.117V76.4849H275.68ZM285.885 76.4849V103.501H282.304V76.4849H285.885ZM301.823 76.4849V103.501H298.298V76.4849H301.823ZM310.507 76.4849V79.4166H289.633V76.4849H310.507ZM331.678 100.587V103.501H317.372V100.587H331.678ZM318.096 76.4849V103.501H314.515V76.4849H318.096ZM329.785 88.1002V91.0132H317.372V88.1002H329.785ZM331.492 76.4849V79.4166H317.372V76.4849H331.492ZM352.422 94.9097H355.984C355.799 96.6168 355.31 98.1444 354.519 99.4927C353.727 100.841 352.607 101.911 351.16 102.703C349.713 103.482 347.907 103.872 345.742 103.872C344.159 103.872 342.718 103.575 341.419 102.981C340.132 102.387 339.025 101.546 338.098 100.458C337.17 99.3567 336.452 98.0393 335.945 96.5054C335.451 94.9592 335.203 93.2398 335.203 91.3472V88.6568C335.203 86.7642 335.451 85.051 335.945 83.5172C336.452 81.9709 337.176 80.6474 338.116 79.5464C339.069 78.4455 340.213 77.5982 341.549 77.0045C342.885 76.4107 344.388 76.1138 346.058 76.1138C348.099 76.1138 349.824 76.4973 351.234 77.2642C352.645 78.0311 353.739 79.095 354.519 80.4556C355.31 81.8039 355.799 83.3687 355.984 85.15H352.422C352.249 83.8882 351.927 82.8059 351.457 81.9029C350.987 80.9875 350.319 80.2825 349.453 79.7877C348.587 79.2929 347.455 79.0455 346.058 79.0455C344.858 79.0455 343.8 79.2743 342.885 79.732C341.982 80.1897 341.221 80.8391 340.603 81.6802C339.996 82.5214 339.539 83.5295 339.229 84.7047C338.92 85.8798 338.766 87.1848 338.766 88.6197V91.3472C338.766 92.6708 338.902 93.914 339.174 95.0767C339.458 96.2395 339.885 97.26 340.454 98.1382C341.023 99.0165 341.747 99.7092 342.625 100.216C343.503 100.711 344.542 100.959 345.742 100.959C347.264 100.959 348.476 100.717 349.379 100.235C350.282 99.7525 350.962 99.0598 351.42 98.1568C351.89 97.2538 352.224 96.1714 352.422 94.9097ZM370.29 76.4849V103.501H366.765V76.4849H370.29ZM378.974 76.4849V79.4166H358.1V76.4849H378.974Z" fill="#EDF6F9"/>
<path d="M211.074 28.2384L214.396 34.6632L217.728 28.2384H219.652L215.24 36.254V41.0353H213.544V36.254L209.132 28.2384H211.074ZM220.039 36.3859V36.1837C220.039 35.4982 220.139 34.8624 220.338 34.2765C220.537 33.6847 220.824 33.172 221.199 32.7384C221.574 32.299 222.028 31.9591 222.562 31.7189C223.095 31.4728 223.692 31.3497 224.354 31.3497C225.022 31.3497 225.623 31.4728 226.156 31.7189C226.695 31.9591 227.152 32.299 227.527 32.7384C227.908 33.172 228.198 33.6847 228.397 34.2765C228.597 34.8624 228.696 35.4982 228.696 36.1837V36.3859C228.696 37.0714 228.597 37.7072 228.397 38.2931C228.198 38.879 227.908 39.3917 227.527 39.8312C227.152 40.2648 226.698 40.6046 226.165 40.8507C225.638 41.0909 225.04 41.2111 224.372 41.2111C223.704 41.2111 223.104 41.0909 222.57 40.8507C222.037 40.6046 221.58 40.2648 221.199 39.8312C220.824 39.3917 220.537 38.879 220.338 38.2931C220.139 37.7072 220.039 37.0714 220.039 36.3859ZM221.665 36.1837V36.3859C221.665 36.8605 221.721 37.3087 221.832 37.7306C221.943 38.1466 222.11 38.5157 222.333 38.838C222.562 39.1603 222.846 39.4152 223.186 39.6027C223.525 39.7843 223.921 39.8751 224.372 39.8751C224.817 39.8751 225.207 39.7843 225.541 39.6027C225.881 39.4152 226.162 39.1603 226.385 38.838C226.607 38.5157 226.774 38.1466 226.886 37.7306C227.003 37.3087 227.062 36.8605 227.062 36.3859V36.1837C227.062 35.715 227.003 35.2726 226.886 34.8566C226.774 34.4347 226.604 34.0626 226.376 33.7404C226.153 33.4122 225.872 33.1544 225.532 32.9669C225.198 32.7794 224.806 32.6857 224.354 32.6857C223.909 32.6857 223.517 32.7794 223.177 32.9669C222.843 33.1544 222.562 33.4122 222.333 33.7404C222.11 34.0626 221.943 34.4347 221.832 34.8566C221.721 35.2726 221.665 35.715 221.665 36.1837ZM236.554 38.838V31.5255H238.188V41.0353H236.633L236.554 38.838ZM236.861 36.8341L237.538 36.8165C237.538 37.4493 237.471 38.0353 237.336 38.5743C237.207 39.1075 236.996 39.5704 236.703 39.963C236.41 40.3556 236.026 40.6632 235.552 40.8859C235.077 41.1027 234.5 41.2111 233.82 41.2111C233.357 41.2111 232.933 41.1437 232.546 41.0089C232.165 40.8741 231.837 40.6661 231.562 40.3849C231.286 40.1036 231.072 39.7374 230.92 39.2863C230.773 38.8351 230.7 38.2931 230.7 37.6603V31.5255H232.326V37.6779C232.326 38.1056 232.373 38.4601 232.467 38.7413C232.566 39.0167 232.698 39.2365 232.862 39.4005C233.032 39.5587 233.22 39.67 233.425 39.7345C233.636 39.799 233.853 39.8312 234.075 39.8312C234.767 39.8312 235.314 39.6993 235.719 39.4357C236.123 39.1661 236.413 38.8058 236.589 38.3546C236.771 37.8976 236.861 37.3907 236.861 36.8341ZM250.739 39.4093V34.5138C250.739 34.1388 250.663 33.8136 250.511 33.5382C250.364 33.257 250.142 33.0402 249.843 32.8878C249.544 32.7355 249.175 32.6593 248.735 32.6593C248.325 32.6593 247.965 32.7296 247.654 32.8702C247.35 33.0109 247.109 33.1954 246.934 33.424C246.764 33.6525 246.679 33.8986 246.679 34.1622H245.053C245.053 33.8224 245.141 33.4855 245.316 33.1515C245.492 32.8175 245.744 32.5157 246.072 32.2462C246.406 31.9708 246.805 31.754 247.268 31.5958C247.736 31.4318 248.258 31.3497 248.832 31.3497C249.523 31.3497 250.133 31.4669 250.66 31.7013C251.193 31.9357 251.609 32.2902 251.908 32.7648C252.213 33.2335 252.365 33.8224 252.365 34.5314V38.9611C252.365 39.2775 252.392 39.6144 252.444 39.9718C252.503 40.3292 252.588 40.6368 252.699 40.8947V41.0353H251.003C250.921 40.8478 250.856 40.5988 250.81 40.2882C250.763 39.9718 250.739 39.6788 250.739 39.4093ZM251.021 35.2697L251.038 36.4122H249.395C248.932 36.4122 248.519 36.4503 248.155 36.5265C247.792 36.5968 247.487 36.7052 247.241 36.8517C246.995 36.9982 246.808 37.1827 246.679 37.4054C246.55 37.6222 246.485 37.8771 246.485 38.17C246.485 38.4689 246.553 38.7413 246.688 38.9874C246.822 39.2335 247.024 39.4298 247.294 39.5763C247.569 39.7169 247.906 39.7872 248.305 39.7872C248.803 39.7872 249.242 39.6818 249.623 39.4708C250.004 39.2599 250.306 39.0021 250.528 38.6974C250.757 38.3927 250.88 38.0968 250.897 37.8097L251.592 38.5919C251.551 38.838 251.439 39.1105 251.258 39.4093C251.076 39.7081 250.833 39.9952 250.528 40.2706C250.229 40.5402 249.872 40.7657 249.456 40.9474C249.046 41.1232 248.583 41.2111 248.067 41.2111C247.423 41.2111 246.857 41.0851 246.371 40.8331C245.891 40.5812 245.516 40.2443 245.246 39.8224C244.982 39.3947 244.851 38.9171 244.851 38.3898C244.851 37.88 244.95 37.4318 245.149 37.045C245.349 36.6525 245.636 36.3273 246.011 36.0695C246.386 35.8058 246.837 35.6066 247.364 35.4718C247.892 35.337 248.48 35.2697 249.131 35.2697H251.021ZM256.549 33.0197V41.0353H254.923V31.5255H256.505L256.549 33.0197ZM259.52 31.4728L259.511 32.9845C259.376 32.9552 259.247 32.9376 259.124 32.9318C259.007 32.92 258.872 32.9142 258.72 32.9142C258.345 32.9142 258.014 32.9728 257.727 33.09C257.439 33.2072 257.196 33.3712 256.997 33.5822C256.798 33.7931 256.64 34.045 256.522 34.338C256.411 34.6251 256.338 34.9415 256.303 35.2872L255.846 35.5509C255.846 34.9767 255.901 34.4376 256.013 33.9337C256.13 33.4298 256.309 32.9845 256.549 32.5978C256.789 32.2052 257.094 31.9005 257.463 31.6837C257.838 31.4611 258.283 31.3497 258.799 31.3497C258.916 31.3497 259.051 31.3644 259.203 31.3937C259.355 31.4171 259.461 31.4435 259.52 31.4728ZM264.793 41.2111C264.131 41.2111 263.53 41.0997 262.991 40.8771C262.458 40.6486 261.998 40.3292 261.611 39.9191C261.23 39.5089 260.938 39.0226 260.732 38.4601C260.527 37.8976 260.425 37.2823 260.425 36.6144V36.2452C260.425 35.4718 260.539 34.7833 260.768 34.1798C260.996 33.5704 261.307 33.0548 261.699 32.6329C262.092 32.2111 262.537 31.8917 263.035 31.6749C263.533 31.4581 264.049 31.3497 264.582 31.3497C265.262 31.3497 265.848 31.4669 266.34 31.7013C266.838 31.9357 267.245 32.2638 267.562 32.6857C267.878 33.1017 268.112 33.5939 268.265 34.1622C268.417 34.7247 268.493 35.34 268.493 36.0079V36.7374H261.392V35.4103H266.867V35.2872C266.844 34.8654 266.756 34.4552 266.604 34.0568C266.457 33.6583 266.223 33.3302 265.9 33.0724C265.578 32.8146 265.139 32.6857 264.582 32.6857C264.213 32.6857 263.873 32.7648 263.562 32.923C263.252 33.0753 262.985 33.3038 262.763 33.6085C262.54 33.9132 262.367 34.2853 262.244 34.7247C262.121 35.1642 262.06 35.671 262.06 36.2452V36.6144C262.06 37.0656 262.121 37.4904 262.244 37.8888C262.373 38.2814 262.558 38.6271 262.798 38.9259C263.044 39.2247 263.34 39.4591 263.686 39.629C264.037 39.799 264.436 39.8839 264.881 39.8839C265.455 39.8839 265.941 39.7667 266.34 39.5323C266.738 39.298 267.087 38.9845 267.386 38.5919L268.37 39.3741C268.165 39.6847 267.904 39.9806 267.588 40.2618C267.271 40.5431 266.882 40.7716 266.419 40.9474C265.962 41.1232 265.42 41.2111 264.793 41.2111Z" fill="#F3F3F3"/>
<defs>
<linearGradient id="paint0_linear_455_186" x1="14.575" y1="165.843" x2="456.485" y2="56.805" gradientUnits="userSpaceOnUse">
<stop stop-color="#E6204F"/>
<stop offset="1" stop-color="#006D77"/>
</linearGradient>
</defs>
</svg>
