<svg width="345" height="138" viewBox="0 0 345 138" fill="none" xmlns="http://www.w3.org/2000/svg">
<rect width="345" height="138" rx="15" fill="url(#paint0_linear_346_454)" fill-opacity="0.5"/>
<path d="M60.1182 64.9844V92H56.5928V64.9844H60.1182ZM68.8018 64.9844V67.916H47.9277V64.9844H68.8018ZM90.4551 76.5996V79.5127H75.834V76.5996H90.4551ZM76.3906 64.9844V92H72.8096V64.9844H76.3906ZM93.5723 64.9844V92H90.0098V64.9844H93.5723ZM117.1 89.0869V92H102.794V89.0869H117.1ZM103.518 64.9844V92H99.9365V64.9844H103.518ZM115.207 76.5996V79.5127H102.794V76.5996H115.207ZM116.914 64.9844V67.916H102.794V64.9844H116.914ZM147.344 89.0869V92H133.836V89.0869H147.344ZM134.541 64.9844V92H130.96V64.9844H134.541ZM171.02 77.6387V79.3457C171.02 81.3743 170.766 83.1927 170.259 84.8008C169.752 86.4089 169.022 87.7757 168.069 88.9014C167.117 90.027 165.973 90.8867 164.637 91.4805C163.313 92.0742 161.829 92.3711 160.184 92.3711C158.588 92.3711 157.122 92.0742 155.786 91.4805C154.463 90.8867 153.312 90.027 152.335 88.9014C151.37 87.7757 150.622 86.4089 150.09 84.8008C149.558 83.1927 149.292 81.3743 149.292 79.3457V77.6387C149.292 75.61 149.552 73.7979 150.071 72.2021C150.603 70.5941 151.352 69.2272 152.316 68.1016C153.281 66.9635 154.425 66.0977 155.749 65.5039C157.085 64.9102 158.551 64.6133 160.146 64.6133C161.792 64.6133 163.276 64.9102 164.6 65.5039C165.936 66.0977 167.08 66.9635 168.032 68.1016C168.997 69.2272 169.733 70.5941 170.24 72.2021C170.76 73.7979 171.02 75.61 171.02 77.6387ZM167.476 79.3457V77.6016C167.476 75.9935 167.309 74.571 166.975 73.334C166.653 72.097 166.177 71.0579 165.546 70.2168C164.915 69.3757 164.142 68.7386 163.227 68.3057C162.324 67.8727 161.297 67.6562 160.146 67.6562C159.033 67.6562 158.025 67.8727 157.122 68.3057C156.231 68.7386 155.465 69.3757 154.821 70.2168C154.19 71.0579 153.702 72.097 153.355 73.334C153.009 74.571 152.836 75.9935 152.836 77.6016V79.3457C152.836 80.9661 153.009 82.401 153.355 83.6504C153.702 84.8874 154.197 85.9326 154.84 86.7861C155.495 87.6273 156.269 88.2643 157.159 88.6973C158.062 89.1302 159.07 89.3467 160.184 89.3467C161.346 89.3467 162.379 89.1302 163.282 88.6973C164.185 88.2643 164.946 87.6273 165.564 86.7861C166.195 85.9326 166.672 84.8874 166.993 83.6504C167.315 82.401 167.476 80.9661 167.476 79.3457ZM196.347 78.5479V88.4375C196.013 88.9323 195.481 89.4889 194.751 90.1074C194.021 90.7135 193.013 91.2454 191.727 91.7031C190.452 92.1484 188.807 92.3711 186.791 92.3711C185.146 92.3711 183.631 92.0866 182.245 91.5176C180.872 90.9362 179.678 90.0951 178.664 88.9941C177.662 87.8809 176.883 86.5326 176.326 84.9492C175.782 83.3535 175.51 81.5475 175.51 79.5312V77.4346C175.51 75.4183 175.745 73.6185 176.215 72.0352C176.697 70.4518 177.402 69.1097 178.33 68.0088C179.258 66.8955 180.396 66.0544 181.744 65.4854C183.092 64.904 184.639 64.6133 186.383 64.6133C188.449 64.6133 190.174 64.972 191.56 65.6895C192.957 66.3945 194.046 67.3717 194.825 68.6211C195.617 69.8704 196.124 71.293 196.347 72.8887H192.766C192.605 71.9115 192.283 71.0208 191.801 70.2168C191.331 69.4128 190.657 68.7695 189.778 68.2871C188.9 67.7923 187.768 67.5449 186.383 67.5449C185.133 67.5449 184.051 67.7738 183.136 68.2314C182.22 68.6891 181.466 69.3447 180.872 70.1982C180.278 71.0518 179.833 72.0846 179.536 73.2969C179.252 74.5091 179.109 75.876 179.109 77.3975V79.5312C179.109 81.0898 179.289 82.4814 179.647 83.7061C180.019 84.9307 180.544 85.9759 181.225 86.8418C181.905 87.6953 182.715 88.3447 183.655 88.79C184.608 89.2354 185.659 89.458 186.81 89.458C188.084 89.458 189.117 89.3529 189.908 89.1426C190.7 88.9199 191.318 88.6602 191.764 88.3633C192.209 88.054 192.549 87.7633 192.784 87.4912V81.4424H186.531V78.5479H196.347ZM206.125 64.9844V92H202.544V64.9844H206.125ZM228.947 83.4092H232.51C232.324 85.1162 231.836 86.6439 231.044 87.9922C230.252 89.3405 229.133 90.4105 227.686 91.2021C226.238 91.9814 224.432 92.3711 222.268 92.3711C220.684 92.3711 219.243 92.0742 217.944 91.4805C216.658 90.8867 215.551 90.0456 214.623 88.957C213.695 87.8561 212.978 86.5387 212.471 85.0049C211.976 83.4587 211.729 81.7393 211.729 79.8467V77.1562C211.729 75.2637 211.976 73.5505 212.471 72.0166C212.978 70.4704 213.701 69.1468 214.642 68.0459C215.594 66.945 216.738 66.0977 218.074 65.5039C219.41 64.9102 220.913 64.6133 222.583 64.6133C224.624 64.6133 226.35 64.9967 227.76 65.7637C229.17 66.5306 230.265 67.5944 231.044 68.9551C231.836 70.3034 232.324 71.8682 232.51 73.6494H228.947C228.774 72.3877 228.452 71.3053 227.982 70.4023C227.512 69.487 226.844 68.7819 225.979 68.2871C225.113 67.7923 223.981 67.5449 222.583 67.5449C221.383 67.5449 220.326 67.7738 219.41 68.2314C218.507 68.6891 217.746 69.3385 217.128 70.1797C216.522 71.0208 216.064 72.029 215.755 73.2041C215.446 74.3792 215.291 75.6842 215.291 77.1191V79.8467C215.291 81.1702 215.427 82.4134 215.699 83.5762C215.984 84.7389 216.41 85.7594 216.979 86.6377C217.549 87.516 218.272 88.2087 219.15 88.7158C220.029 89.2106 221.068 89.458 222.268 89.458C223.789 89.458 225.001 89.2168 225.904 88.7344C226.807 88.252 227.488 87.5592 227.945 86.6562C228.415 85.7533 228.749 84.6709 228.947 83.4092ZM241.23 64.9844V92H237.649V64.9844H241.23ZM258.078 67.3779L249.135 92H245.479L255.777 64.9844H258.134L258.078 67.3779ZM265.574 92L256.612 67.3779L256.557 64.9844H258.913L269.248 92H265.574ZM265.11 81.999V84.9307H249.933V81.999H265.11ZM293.647 64.9844V92H290.048L276.447 71.1631V92H272.866V64.9844H276.447L290.104 85.877V64.9844H293.647Z" fill="#EDF6F9"/>
<path d="M144.074 24.2031L147.396 30.6279L150.728 24.2031H152.652L148.24 32.2188V37H146.544V32.2188L142.132 24.2031H144.074ZM153.039 32.3506V32.1484C153.039 31.4629 153.139 30.8271 153.338 30.2412C153.537 29.6494 153.824 29.1367 154.199 28.7031C154.574 28.2637 155.028 27.9238 155.562 27.6836C156.095 27.4375 156.692 27.3145 157.354 27.3145C158.022 27.3145 158.623 27.4375 159.156 27.6836C159.695 27.9238 160.152 28.2637 160.527 28.7031C160.908 29.1367 161.198 29.6494 161.397 30.2412C161.597 30.8271 161.696 31.4629 161.696 32.1484V32.3506C161.696 33.0361 161.597 33.6719 161.397 34.2578C161.198 34.8438 160.908 35.3564 160.527 35.7959C160.152 36.2295 159.698 36.5693 159.165 36.8154C158.638 37.0557 158.04 37.1758 157.372 37.1758C156.704 37.1758 156.104 37.0557 155.57 36.8154C155.037 36.5693 154.58 36.2295 154.199 35.7959C153.824 35.3564 153.537 34.8438 153.338 34.2578C153.139 33.6719 153.039 33.0361 153.039 32.3506ZM154.665 32.1484V32.3506C154.665 32.8252 154.721 33.2734 154.832 33.6953C154.943 34.1113 155.11 34.4805 155.333 34.8027C155.562 35.125 155.846 35.3799 156.186 35.5674C156.525 35.749 156.921 35.8398 157.372 35.8398C157.817 35.8398 158.207 35.749 158.541 35.5674C158.881 35.3799 159.162 35.125 159.385 34.8027C159.607 34.4805 159.774 34.1113 159.886 33.6953C160.003 33.2734 160.062 32.8252 160.062 32.3506V32.1484C160.062 31.6797 160.003 31.2373 159.886 30.8213C159.774 30.3994 159.604 30.0273 159.376 29.7051C159.153 29.377 158.872 29.1191 158.532 28.9316C158.198 28.7441 157.806 28.6504 157.354 28.6504C156.909 28.6504 156.517 28.7441 156.177 28.9316C155.843 29.1191 155.562 29.377 155.333 29.7051C155.11 30.0273 154.943 30.3994 154.832 30.8213C154.721 31.2373 154.665 31.6797 154.665 32.1484ZM169.554 34.8027V27.4902H171.188V37H169.633L169.554 34.8027ZM169.861 32.7988L170.538 32.7812C170.538 33.4141 170.471 34 170.336 34.5391C170.207 35.0723 169.996 35.5352 169.703 35.9277C169.41 36.3203 169.026 36.6279 168.552 36.8506C168.077 37.0674 167.5 37.1758 166.82 37.1758C166.357 37.1758 165.933 37.1084 165.546 36.9736C165.165 36.8389 164.837 36.6309 164.562 36.3496C164.286 36.0684 164.072 35.7021 163.92 35.251C163.773 34.7998 163.7 34.2578 163.7 33.625V27.4902H165.326V33.6426C165.326 34.0703 165.373 34.4248 165.467 34.7061C165.566 34.9814 165.698 35.2012 165.862 35.3652C166.032 35.5234 166.22 35.6348 166.425 35.6992C166.636 35.7637 166.853 35.7959 167.075 35.7959C167.767 35.7959 168.314 35.6641 168.719 35.4004C169.123 35.1309 169.413 34.7705 169.589 34.3193C169.771 33.8623 169.861 33.3555 169.861 32.7988ZM183.739 35.374V30.4785C183.739 30.1035 183.663 29.7783 183.511 29.5029C183.364 29.2217 183.142 29.0049 182.843 28.8525C182.544 28.7002 182.175 28.624 181.735 28.624C181.325 28.624 180.965 28.6943 180.654 28.835C180.35 28.9756 180.109 29.1602 179.934 29.3887C179.764 29.6172 179.679 29.8633 179.679 30.127H178.053C178.053 29.7871 178.141 29.4502 178.316 29.1162C178.492 28.7822 178.744 28.4805 179.072 28.2109C179.406 27.9355 179.805 27.7188 180.268 27.5605C180.736 27.3965 181.258 27.3145 181.832 27.3145C182.523 27.3145 183.133 27.4316 183.66 27.666C184.193 27.9004 184.609 28.2549 184.908 28.7295C185.213 29.1982 185.365 29.7871 185.365 30.4961V34.9258C185.365 35.2422 185.392 35.5791 185.444 35.9365C185.503 36.2939 185.588 36.6016 185.699 36.8594V37H184.003C183.921 36.8125 183.856 36.5635 183.81 36.2529C183.763 35.9365 183.739 35.6436 183.739 35.374ZM184.021 31.2344L184.038 32.377H182.395C181.932 32.377 181.519 32.415 181.155 32.4912C180.792 32.5615 180.487 32.6699 180.241 32.8164C179.995 32.9629 179.808 33.1475 179.679 33.3701C179.55 33.5869 179.485 33.8418 179.485 34.1348C179.485 34.4336 179.553 34.7061 179.688 34.9521C179.822 35.1982 180.024 35.3945 180.294 35.541C180.569 35.6816 180.906 35.752 181.305 35.752C181.803 35.752 182.242 35.6465 182.623 35.4355C183.004 35.2246 183.306 34.9668 183.528 34.6621C183.757 34.3574 183.88 34.0615 183.897 33.7744L184.592 34.5566C184.551 34.8027 184.439 35.0752 184.258 35.374C184.076 35.6729 183.833 35.96 183.528 36.2354C183.229 36.5049 182.872 36.7305 182.456 36.9121C182.046 37.0879 181.583 37.1758 181.067 37.1758C180.423 37.1758 179.857 37.0498 179.371 36.7979C178.891 36.5459 178.516 36.209 178.246 35.7871C177.982 35.3594 177.851 34.8818 177.851 34.3545C177.851 33.8447 177.95 33.3965 178.149 33.0098C178.349 32.6172 178.636 32.292 179.011 32.0342C179.386 31.7705 179.837 31.5713 180.364 31.4365C180.892 31.3018 181.48 31.2344 182.131 31.2344H184.021ZM189.549 28.9844V37H187.923V27.4902H189.505L189.549 28.9844ZM192.52 27.4375L192.511 28.9492C192.376 28.9199 192.247 28.9023 192.124 28.8965C192.007 28.8848 191.872 28.8789 191.72 28.8789C191.345 28.8789 191.014 28.9375 190.727 29.0547C190.439 29.1719 190.196 29.3359 189.997 29.5469C189.798 29.7578 189.64 30.0098 189.522 30.3027C189.411 30.5898 189.338 30.9062 189.303 31.252L188.846 31.5156C188.846 30.9414 188.901 30.4023 189.013 29.8984C189.13 29.3945 189.309 28.9492 189.549 28.5625C189.789 28.1699 190.094 27.8652 190.463 27.6484C190.838 27.4258 191.283 27.3145 191.799 27.3145C191.916 27.3145 192.051 27.3291 192.203 27.3584C192.355 27.3818 192.461 27.4082 192.52 27.4375ZM197.793 37.1758C197.131 37.1758 196.53 37.0645 195.991 36.8418C195.458 36.6133 194.998 36.2939 194.611 35.8838C194.23 35.4736 193.938 34.9873 193.732 34.4248C193.527 33.8623 193.425 33.2471 193.425 32.5791V32.21C193.425 31.4365 193.539 30.748 193.768 30.1445C193.996 29.5352 194.307 29.0195 194.699 28.5977C195.092 28.1758 195.537 27.8564 196.035 27.6396C196.533 27.4229 197.049 27.3145 197.582 27.3145C198.262 27.3145 198.848 27.4316 199.34 27.666C199.838 27.9004 200.245 28.2285 200.562 28.6504C200.878 29.0664 201.112 29.5586 201.265 30.127C201.417 30.6895 201.493 31.3047 201.493 31.9727V32.7021H194.392V31.375H199.867V31.252C199.844 30.8301 199.756 30.4199 199.604 30.0215C199.457 29.623 199.223 29.2949 198.9 29.0371C198.578 28.7793 198.139 28.6504 197.582 28.6504C197.213 28.6504 196.873 28.7295 196.562 28.8877C196.252 29.04 195.985 29.2686 195.763 29.5732C195.54 29.8779 195.367 30.25 195.244 30.6895C195.121 31.1289 195.06 31.6357 195.06 32.21V32.5791C195.06 33.0303 195.121 33.4551 195.244 33.8535C195.373 34.2461 195.558 34.5918 195.798 34.8906C196.044 35.1895 196.34 35.4238 196.686 35.5938C197.037 35.7637 197.436 35.8486 197.881 35.8486C198.455 35.8486 198.941 35.7314 199.34 35.4971C199.738 35.2627 200.087 34.9492 200.386 34.5566L201.37 35.3389C201.165 35.6494 200.904 35.9453 200.588 36.2266C200.271 36.5078 199.882 36.7363 199.419 36.9121C198.962 37.0879 198.42 37.1758 197.793 37.1758Z" fill="#F3F3F3"/>
<defs>
<linearGradient id="paint0_linear_346_454" x1="10.5" y1="138" x2="333.5" y2="69" gradientUnits="userSpaceOnUse">
<stop stop-color="#B5179E"/>
<stop offset="1" stop-color="#4895EF"/>
</linearGradient>
</defs>
</svg>
