<svg width="345" height="138" viewBox="0 0 345 138" fill="none" xmlns="http://www.w3.org/2000/svg">
<rect width="345" height="138" rx="15" fill="url(#paint0_linear_346_428)" fill-opacity="0.5"/>
<path d="M44.1182 64.9844V92H40.5928V64.9844H44.1182ZM52.8018 64.9844V67.916H31.9277V64.9844H52.8018ZM74.4551 76.5996V79.5127H59.834V76.5996H74.4551ZM60.3906 64.9844V92H56.8096V64.9844H60.3906ZM77.5723 64.9844V92H74.0098V64.9844H77.5723ZM101.1 89.0869V92H86.7939V89.0869H101.1ZM87.5176 64.9844V92H83.9365V64.9844H87.5176ZM99.207 76.5996V79.5127H86.7939V76.5996H99.207ZM100.914 64.9844V67.916H86.7939V64.9844H100.914ZM124.961 67.3779L116.018 92H112.362L122.66 64.9844H125.017L124.961 67.3779ZM132.457 92L123.495 67.3779L123.439 64.9844H125.796L136.131 92H132.457ZM131.993 81.999V84.9307H116.815V81.999H131.993ZM139.749 64.9844H148.692C150.721 64.9844 152.434 65.2936 153.832 65.9121C155.242 66.5306 156.312 67.446 157.042 68.6582C157.784 69.8581 158.155 71.3363 158.155 73.0928C158.155 74.3298 157.902 75.4616 157.395 76.4883C156.9 77.5026 156.182 78.3685 155.242 79.0859C154.314 79.791 153.201 80.3167 151.902 80.6631L150.9 81.0527H142.495L142.458 78.1396H148.804C150.09 78.1396 151.16 77.917 152.014 77.4717C152.867 77.014 153.51 76.4017 153.943 75.6348C154.376 74.8678 154.593 74.0205 154.593 73.0928C154.593 72.0537 154.389 71.1445 153.98 70.3652C153.572 69.5859 152.929 68.986 152.051 68.5654C151.185 68.1325 150.065 67.916 148.692 67.916H143.33V92H139.749V64.9844ZM155.539 92L148.971 79.7539L152.7 79.7354L159.361 91.7773V92H155.539ZM179.475 83.4092H183.037C182.852 85.1162 182.363 86.6439 181.571 87.9922C180.78 89.3405 179.66 90.4105 178.213 91.2021C176.766 91.9814 174.96 92.3711 172.795 92.3711C171.212 92.3711 169.771 92.0742 168.472 91.4805C167.185 90.8867 166.078 90.0456 165.15 88.957C164.223 87.8561 163.505 86.5387 162.998 85.0049C162.503 83.4587 162.256 81.7393 162.256 79.8467V77.1562C162.256 75.2637 162.503 73.5505 162.998 72.0166C163.505 70.4704 164.229 69.1468 165.169 68.0459C166.121 66.945 167.266 66.0977 168.602 65.5039C169.938 64.9102 171.44 64.6133 173.11 64.6133C175.151 64.6133 176.877 64.9967 178.287 65.7637C179.697 66.5306 180.792 67.5944 181.571 68.9551C182.363 70.3034 182.852 71.8682 183.037 73.6494H179.475C179.301 72.3877 178.98 71.3053 178.51 70.4023C178.04 69.487 177.372 68.7819 176.506 68.2871C175.64 67.7923 174.508 67.5449 173.11 67.5449C171.91 67.5449 170.853 67.7738 169.938 68.2314C169.035 68.6891 168.274 69.3385 167.655 70.1797C167.049 71.0208 166.591 72.029 166.282 73.2041C165.973 74.3792 165.818 75.6842 165.818 77.1191V79.8467C165.818 81.1702 165.954 82.4134 166.227 83.5762C166.511 84.7389 166.938 85.7594 167.507 86.6377C168.076 87.516 168.799 88.2087 169.678 88.7158C170.556 89.2106 171.595 89.458 172.795 89.458C174.316 89.458 175.529 89.2168 176.432 88.7344C177.335 88.252 178.015 87.5592 178.473 86.6562C178.943 85.7533 179.277 84.6709 179.475 83.4092ZM205.562 76.5996V79.5127H190.941V76.5996H205.562ZM191.498 64.9844V92H187.917V64.9844H191.498ZM208.68 64.9844V92H205.117V64.9844H208.68ZM218.885 64.9844V92H215.304V64.9844H218.885ZM234.823 64.9844V92H231.298V64.9844H234.823ZM243.507 64.9844V67.916H222.633V64.9844H243.507ZM264.678 89.0869V92H250.372V89.0869H264.678ZM251.096 64.9844V92H247.515V64.9844H251.096ZM262.785 76.5996V79.5127H250.372V76.5996H262.785ZM264.492 64.9844V67.916H250.372V64.9844H264.492ZM285.422 83.4092H288.984C288.799 85.1162 288.31 86.6439 287.519 87.9922C286.727 89.3405 285.607 90.4105 284.16 91.2021C282.713 91.9814 280.907 92.3711 278.742 92.3711C277.159 92.3711 275.718 92.0742 274.419 91.4805C273.132 90.8867 272.025 90.0456 271.098 88.957C270.17 87.8561 269.452 86.5387 268.945 85.0049C268.451 83.4587 268.203 81.7393 268.203 79.8467V77.1562C268.203 75.2637 268.451 73.5505 268.945 72.0166C269.452 70.4704 270.176 69.1468 271.116 68.0459C272.069 66.945 273.213 66.0977 274.549 65.5039C275.885 64.9102 277.388 64.6133 279.058 64.6133C281.099 64.6133 282.824 64.9967 284.234 65.7637C285.645 66.5306 286.739 67.5944 287.519 68.9551C288.31 70.3034 288.799 71.8682 288.984 73.6494H285.422C285.249 72.3877 284.927 71.3053 284.457 70.4023C283.987 69.487 283.319 68.7819 282.453 68.2871C281.587 67.7923 280.455 67.5449 279.058 67.5449C277.858 67.5449 276.8 67.7738 275.885 68.2314C274.982 68.6891 274.221 69.3385 273.603 70.1797C272.996 71.0208 272.539 72.029 272.229 73.2041C271.92 74.3792 271.766 75.6842 271.766 77.1191V79.8467C271.766 81.1702 271.902 82.4134 272.174 83.5762C272.458 84.7389 272.885 85.7594 273.454 86.6377C274.023 87.516 274.747 88.2087 275.625 88.7158C276.503 89.2106 277.542 89.458 278.742 89.458C280.264 89.458 281.476 89.2168 282.379 88.7344C283.282 88.252 283.962 87.5592 284.42 86.6562C284.89 85.7533 285.224 84.6709 285.422 83.4092ZM303.29 64.9844V92H299.765V64.9844H303.29ZM311.974 64.9844V67.916H291.1V64.9844H311.974Z" fill="#EDF6F9"/>
<path d="M144.074 24.2031L147.396 30.6279L150.728 24.2031H152.652L148.24 32.2188V37H146.544V32.2188L142.132 24.2031H144.074ZM153.039 32.3506V32.1484C153.039 31.4629 153.139 30.8271 153.338 30.2412C153.537 29.6494 153.824 29.1367 154.199 28.7031C154.574 28.2637 155.028 27.9238 155.562 27.6836C156.095 27.4375 156.692 27.3145 157.354 27.3145C158.022 27.3145 158.623 27.4375 159.156 27.6836C159.695 27.9238 160.152 28.2637 160.527 28.7031C160.908 29.1367 161.198 29.6494 161.397 30.2412C161.597 30.8271 161.696 31.4629 161.696 32.1484V32.3506C161.696 33.0361 161.597 33.6719 161.397 34.2578C161.198 34.8438 160.908 35.3564 160.527 35.7959C160.152 36.2295 159.698 36.5693 159.165 36.8154C158.638 37.0557 158.04 37.1758 157.372 37.1758C156.704 37.1758 156.104 37.0557 155.57 36.8154C155.037 36.5693 154.58 36.2295 154.199 35.7959C153.824 35.3564 153.537 34.8438 153.338 34.2578C153.139 33.6719 153.039 33.0361 153.039 32.3506ZM154.665 32.1484V32.3506C154.665 32.8252 154.721 33.2734 154.832 33.6953C154.943 34.1113 155.11 34.4805 155.333 34.8027C155.562 35.125 155.846 35.3799 156.186 35.5674C156.525 35.749 156.921 35.8398 157.372 35.8398C157.817 35.8398 158.207 35.749 158.541 35.5674C158.881 35.3799 159.162 35.125 159.385 34.8027C159.607 34.4805 159.774 34.1113 159.886 33.6953C160.003 33.2734 160.062 32.8252 160.062 32.3506V32.1484C160.062 31.6797 160.003 31.2373 159.886 30.8213C159.774 30.3994 159.604 30.0273 159.376 29.7051C159.153 29.377 158.872 29.1191 158.532 28.9316C158.198 28.7441 157.806 28.6504 157.354 28.6504C156.909 28.6504 156.517 28.7441 156.177 28.9316C155.843 29.1191 155.562 29.377 155.333 29.7051C155.11 30.0273 154.943 30.3994 154.832 30.8213C154.721 31.2373 154.665 31.6797 154.665 32.1484ZM169.554 34.8027V27.4902H171.188V37H169.633L169.554 34.8027ZM169.861 32.7988L170.538 32.7812C170.538 33.4141 170.471 34 170.336 34.5391C170.207 35.0723 169.996 35.5352 169.703 35.9277C169.41 36.3203 169.026 36.6279 168.552 36.8506C168.077 37.0674 167.5 37.1758 166.82 37.1758C166.357 37.1758 165.933 37.1084 165.546 36.9736C165.165 36.8389 164.837 36.6309 164.562 36.3496C164.286 36.0684 164.072 35.7021 163.92 35.251C163.773 34.7998 163.7 34.2578 163.7 33.625V27.4902H165.326V33.6426C165.326 34.0703 165.373 34.4248 165.467 34.7061C165.566 34.9814 165.698 35.2012 165.862 35.3652C166.032 35.5234 166.22 35.6348 166.425 35.6992C166.636 35.7637 166.853 35.7959 167.075 35.7959C167.767 35.7959 168.314 35.6641 168.719 35.4004C169.123 35.1309 169.413 34.7705 169.589 34.3193C169.771 33.8623 169.861 33.3555 169.861 32.7988ZM183.739 35.374V30.4785C183.739 30.1035 183.663 29.7783 183.511 29.5029C183.364 29.2217 183.142 29.0049 182.843 28.8525C182.544 28.7002 182.175 28.624 181.735 28.624C181.325 28.624 180.965 28.6943 180.654 28.835C180.35 28.9756 180.109 29.1602 179.934 29.3887C179.764 29.6172 179.679 29.8633 179.679 30.127H178.053C178.053 29.7871 178.141 29.4502 178.316 29.1162C178.492 28.7822 178.744 28.4805 179.072 28.2109C179.406 27.9355 179.805 27.7188 180.268 27.5605C180.736 27.3965 181.258 27.3145 181.832 27.3145C182.523 27.3145 183.133 27.4316 183.66 27.666C184.193 27.9004 184.609 28.2549 184.908 28.7295C185.213 29.1982 185.365 29.7871 185.365 30.4961V34.9258C185.365 35.2422 185.392 35.5791 185.444 35.9365C185.503 36.2939 185.588 36.6016 185.699 36.8594V37H184.003C183.921 36.8125 183.856 36.5635 183.81 36.2529C183.763 35.9365 183.739 35.6436 183.739 35.374ZM184.021 31.2344L184.038 32.377H182.395C181.932 32.377 181.519 32.415 181.155 32.4912C180.792 32.5615 180.487 32.6699 180.241 32.8164C179.995 32.9629 179.808 33.1475 179.679 33.3701C179.55 33.5869 179.485 33.8418 179.485 34.1348C179.485 34.4336 179.553 34.7061 179.688 34.9521C179.822 35.1982 180.024 35.3945 180.294 35.541C180.569 35.6816 180.906 35.752 181.305 35.752C181.803 35.752 182.242 35.6465 182.623 35.4355C183.004 35.2246 183.306 34.9668 183.528 34.6621C183.757 34.3574 183.88 34.0615 183.897 33.7744L184.592 34.5566C184.551 34.8027 184.439 35.0752 184.258 35.374C184.076 35.6729 183.833 35.96 183.528 36.2354C183.229 36.5049 182.872 36.7305 182.456 36.9121C182.046 37.0879 181.583 37.1758 181.067 37.1758C180.423 37.1758 179.857 37.0498 179.371 36.7979C178.891 36.5459 178.516 36.209 178.246 35.7871C177.982 35.3594 177.851 34.8818 177.851 34.3545C177.851 33.8447 177.95 33.3965 178.149 33.0098C178.349 32.6172 178.636 32.292 179.011 32.0342C179.386 31.7705 179.837 31.5713 180.364 31.4365C180.892 31.3018 181.48 31.2344 182.131 31.2344H184.021ZM189.549 28.9844V37H187.923V27.4902H189.505L189.549 28.9844ZM192.52 27.4375L192.511 28.9492C192.376 28.9199 192.247 28.9023 192.124 28.8965C192.007 28.8848 191.872 28.8789 191.72 28.8789C191.345 28.8789 191.014 28.9375 190.727 29.0547C190.439 29.1719 190.196 29.3359 189.997 29.5469C189.798 29.7578 189.64 30.0098 189.522 30.3027C189.411 30.5898 189.338 30.9062 189.303 31.252L188.846 31.5156C188.846 30.9414 188.901 30.4023 189.013 29.8984C189.13 29.3945 189.309 28.9492 189.549 28.5625C189.789 28.1699 190.094 27.8652 190.463 27.6484C190.838 27.4258 191.283 27.3145 191.799 27.3145C191.916 27.3145 192.051 27.3291 192.203 27.3584C192.355 27.3818 192.461 27.4082 192.52 27.4375ZM197.793 37.1758C197.131 37.1758 196.53 37.0645 195.991 36.8418C195.458 36.6133 194.998 36.2939 194.611 35.8838C194.23 35.4736 193.938 34.9873 193.732 34.4248C193.527 33.8623 193.425 33.2471 193.425 32.5791V32.21C193.425 31.4365 193.539 30.748 193.768 30.1445C193.996 29.5352 194.307 29.0195 194.699 28.5977C195.092 28.1758 195.537 27.8564 196.035 27.6396C196.533 27.4229 197.049 27.3145 197.582 27.3145C198.262 27.3145 198.848 27.4316 199.34 27.666C199.838 27.9004 200.245 28.2285 200.562 28.6504C200.878 29.0664 201.112 29.5586 201.265 30.127C201.417 30.6895 201.493 31.3047 201.493 31.9727V32.7021H194.392V31.375H199.867V31.252C199.844 30.8301 199.756 30.4199 199.604 30.0215C199.457 29.623 199.223 29.2949 198.9 29.0371C198.578 28.7793 198.139 28.6504 197.582 28.6504C197.213 28.6504 196.873 28.7295 196.562 28.8877C196.252 29.04 195.985 29.2686 195.763 29.5732C195.54 29.8779 195.367 30.25 195.244 30.6895C195.121 31.1289 195.06 31.6357 195.06 32.21V32.5791C195.06 33.0303 195.121 33.4551 195.244 33.8535C195.373 34.2461 195.558 34.5918 195.798 34.8906C196.044 35.1895 196.34 35.4238 196.686 35.5938C197.037 35.7637 197.436 35.8486 197.881 35.8486C198.455 35.8486 198.941 35.7314 199.34 35.4971C199.738 35.2627 200.087 34.9492 200.386 34.5566L201.37 35.3389C201.165 35.6494 200.904 35.9453 200.588 36.2266C200.271 36.5078 199.882 36.7363 199.419 36.9121C198.962 37.0879 198.42 37.1758 197.793 37.1758Z" fill="#F3F3F3"/>
<defs>
<linearGradient id="paint0_linear_346_428" x1="10.5" y1="138" x2="333.5" y2="69" gradientUnits="userSpaceOnUse">
<stop stop-color="#E6204F"/>
<stop offset="1" stop-color="#006D77"/>
</linearGradient>
</defs>
</svg>
