<svg width="473" height="410" viewBox="0 0 473 410" fill="none" xmlns="http://www.w3.org/2000/svg">
<g filter="url(#filter0_d_346_432)">
<rect x="5" y="1" width="463" height="400" rx="15" fill="black" fill-opacity="0.25" shape-rendering="crispEdges"/>
<rect x="4.75" y="0.75" width="463.5" height="400.5" rx="15.25" stroke="white" stroke-width="0.5" shape-rendering="crispEdges"/>
</g>
<path d="M42.8006 88.3031L45.6229 78.3812H46.9901L46.199 82.2386L43.1619 92.6H41.8045L42.8006 88.3031ZM39.8807 78.3812L42.1268 88.1078L42.8006 92.6H41.4529L38.0057 78.3812H39.8807ZM50.6424 88.098L52.8397 78.3812H54.7244L51.2869 92.6H49.9393L50.6424 88.098ZM47.1951 78.3812L49.9393 88.3031L50.9354 92.6H49.5779L46.6483 82.2386L45.8475 78.3812H47.1951ZM55.7498 87.434V87.2094C55.7498 86.4476 55.8605 85.7413 56.0818 85.0902C56.3032 84.4327 56.6222 83.863 57.0389 83.3812C57.4555 82.8929 57.9601 82.5153 58.5526 82.2484C59.145 81.975 59.8091 81.8383 60.5447 81.8383C61.2869 81.8383 61.9542 81.975 62.5467 82.2484C63.1457 82.5153 63.6535 82.8929 64.0701 83.3812C64.4933 83.863 64.8156 84.4327 65.0369 85.0902C65.2583 85.7413 65.369 86.4476 65.369 87.2094V87.434C65.369 88.1957 65.2583 88.9021 65.0369 89.5531C64.8156 90.2041 64.4933 90.7738 64.0701 91.2621C63.6535 91.7439 63.1489 92.1215 62.5565 92.3949C61.9705 92.6618 61.3065 92.7953 60.5643 92.7953C59.8221 92.7953 59.1548 92.6618 58.5623 92.3949C57.9699 92.1215 57.4621 91.7439 57.0389 91.2621C56.6222 90.7738 56.3032 90.2041 56.0818 89.5531C55.8605 88.9021 55.7498 88.1957 55.7498 87.434ZM57.5565 87.2094V87.434C57.5565 87.9613 57.6183 88.4594 57.742 88.9281C57.8657 89.3903 58.0512 89.8005 58.2986 90.1586C58.5526 90.5166 58.8683 90.7998 59.2459 91.0082C59.6235 91.21 60.063 91.3109 60.5643 91.3109C61.0591 91.3109 61.492 91.21 61.8631 91.0082C62.2407 90.7998 62.5532 90.5166 62.8006 90.1586C63.048 89.8005 63.2335 89.3903 63.3572 88.9281C63.4874 88.4594 63.5526 87.9613 63.5526 87.434V87.2094C63.5526 86.6885 63.4874 86.197 63.3572 85.7347C63.2335 85.266 63.0447 84.8526 62.7908 84.4945C62.5434 84.1299 62.2309 83.8435 61.8533 83.6351C61.4822 83.4268 61.046 83.3226 60.5447 83.3226C60.0499 83.3226 59.6137 83.4268 59.2361 83.6351C58.8651 83.8435 58.5526 84.1299 58.2986 84.4945C58.0512 84.8526 57.8657 85.266 57.742 85.7347C57.6183 86.197 57.5565 86.6885 57.5565 87.2094ZM74.0994 90.1586V82.0336H75.9158V92.6H74.1873L74.0994 90.1586ZM74.4412 87.932L75.1932 87.9125C75.1932 88.6156 75.1183 89.2666 74.9686 89.8656C74.8253 90.458 74.591 90.9724 74.2654 91.4086C73.9399 91.8448 73.5135 92.1866 72.9861 92.434C72.4588 92.6748 71.8175 92.7953 71.0623 92.7953C70.548 92.7953 70.076 92.7204 69.6463 92.5707C69.2231 92.4209 68.8585 92.1898 68.5526 91.8773C68.2466 91.5648 68.0089 91.1579 67.8397 90.6566C67.6769 90.1553 67.5955 89.5531 67.5955 88.85V82.0336H69.4022V88.8695C69.4022 89.3448 69.4542 89.7386 69.5584 90.0511C69.6691 90.3571 69.8156 90.6013 69.9979 90.7836C70.1867 90.9594 70.395 91.083 70.6229 91.1547C70.8572 91.2263 71.0981 91.2621 71.3455 91.2621C72.1137 91.2621 72.7225 91.1156 73.1717 90.8226C73.6209 90.5232 73.9432 90.1228 74.1385 89.6215C74.3403 89.1136 74.4412 88.5505 74.4412 87.932ZM80.6326 77.6V92.6H78.8162V77.6H80.6326ZM90.1932 90.5492V77.6H92.0096V92.6H90.3494L90.1932 90.5492ZM83.0838 87.434V87.2289C83.0838 86.4216 83.1815 85.6892 83.3768 85.0316C83.5786 84.3676 83.8618 83.7979 84.2264 83.3226C84.5975 82.8474 85.0369 82.4828 85.5447 82.2289C86.0591 81.9685 86.632 81.8383 87.2635 81.8383C87.9276 81.8383 88.507 81.9554 89.0018 82.1898C89.5031 82.4177 89.9262 82.753 90.2713 83.1957C90.6229 83.6319 90.8996 84.1592 91.1014 84.7777C91.3032 85.3962 91.4432 86.0961 91.5213 86.8773V87.7758C91.4497 88.5505 91.3097 89.2471 91.1014 89.8656C90.8996 90.4841 90.6229 91.0114 90.2713 91.4476C89.9262 91.8838 89.5031 92.2191 89.0018 92.4535C88.5005 92.6814 87.9145 92.7953 87.244 92.7953C86.6255 92.7953 86.0591 92.6618 85.5447 92.3949C85.0369 92.128 84.5975 91.7536 84.2264 91.2719C83.8618 90.7901 83.5786 90.2237 83.3768 89.5726C83.1815 88.9151 83.0838 88.2022 83.0838 87.434ZM84.9002 87.2289V87.434C84.9002 87.9613 84.9523 88.4561 85.0565 88.9183C85.1671 89.3806 85.3364 89.7875 85.5643 90.139C85.7921 90.4906 86.0818 90.7673 86.4334 90.9691C86.785 91.1644 87.2049 91.2621 87.6932 91.2621C88.2921 91.2621 88.7837 91.1351 89.1678 90.8812C89.5584 90.6273 89.8709 90.292 90.1053 89.8754C90.3397 89.4587 90.522 89.0062 90.6522 88.5179V86.1644C90.574 85.8064 90.4601 85.4613 90.3104 85.1293C90.1671 84.7907 89.9783 84.4913 89.744 84.2308C89.5161 83.9639 89.2329 83.7523 88.8943 83.5961C88.5623 83.4398 88.1684 83.3617 87.7127 83.3617C87.2179 83.3617 86.7915 83.4659 86.4334 83.6742C86.0818 83.876 85.7921 84.156 85.5643 84.514C85.3364 84.8656 85.1671 85.2758 85.0565 85.7445C84.9523 86.2067 84.9002 86.7015 84.9002 87.2289ZM102.752 91.5062L105.691 82.0336H107.625L103.387 94.2308C103.289 94.4913 103.159 94.7712 102.996 95.0707C102.84 95.3767 102.638 95.6664 102.39 95.9398C102.143 96.2133 101.844 96.4346 101.492 96.6039C101.147 96.7797 100.734 96.8676 100.252 96.8676C100.109 96.8676 99.9262 96.848 99.7049 96.809C99.4835 96.7699 99.3273 96.7373 99.2361 96.7113L99.2264 95.2465C99.2785 95.253 99.3598 95.2595 99.4705 95.266C99.5877 95.279 99.6691 95.2855 99.7147 95.2855C100.125 95.2855 100.473 95.2302 100.76 95.1195C101.046 95.0153 101.287 94.8363 101.482 94.5824C101.684 94.335 101.857 93.9932 102 93.557L102.752 91.5062ZM100.594 82.0336L103.338 90.2367L103.806 92.141L102.508 92.8051L98.6209 82.0336H100.594ZM108.621 87.434V87.2094C108.621 86.4476 108.732 85.7413 108.953 85.0902C109.174 84.4327 109.493 83.863 109.91 83.3812C110.327 82.8929 110.831 82.5153 111.424 82.2484C112.016 81.975 112.68 81.8383 113.416 81.8383C114.158 81.8383 114.825 81.975 115.418 82.2484C116.017 82.5153 116.525 82.8929 116.941 83.3812C117.364 83.863 117.687 84.4327 117.908 85.0902C118.129 85.7413 118.24 86.4476 118.24 87.2094V87.434C118.24 88.1957 118.129 88.9021 117.908 89.5531C117.687 90.2041 117.364 90.7738 116.941 91.2621C116.525 91.7439 116.02 92.1215 115.428 92.3949C114.842 92.6618 114.178 92.7953 113.435 92.7953C112.693 92.7953 112.026 92.6618 111.433 92.3949C110.841 92.1215 110.333 91.7439 109.91 91.2621C109.493 90.7738 109.174 90.2041 108.953 89.5531C108.732 88.9021 108.621 88.1957 108.621 87.434ZM110.428 87.2094V87.434C110.428 87.9613 110.489 88.4594 110.613 88.9281C110.737 89.3903 110.922 89.8005 111.17 90.1586C111.424 90.5166 111.739 90.7998 112.117 91.0082C112.495 91.21 112.934 91.3109 113.435 91.3109C113.93 91.3109 114.363 91.21 114.734 91.0082C115.112 90.7998 115.424 90.5166 115.672 90.1586C115.919 89.8005 116.105 89.3903 116.228 88.9281C116.359 88.4594 116.424 87.9613 116.424 87.434V87.2094C116.424 86.6885 116.359 86.197 116.228 85.7347C116.105 85.266 115.916 84.8526 115.662 84.4945C115.415 84.1299 115.102 83.8435 114.724 83.6351C114.353 83.4268 113.917 83.3226 113.416 83.3226C112.921 83.3226 112.485 83.4268 112.107 83.6351C111.736 83.8435 111.424 84.1299 111.17 84.4945C110.922 84.8526 110.737 85.266 110.613 85.7347C110.489 86.197 110.428 86.6885 110.428 87.2094ZM126.971 90.1586V82.0336H128.787V92.6H127.058L126.971 90.1586ZM127.312 87.932L128.064 87.9125C128.064 88.6156 127.989 89.2666 127.84 89.8656C127.696 90.458 127.462 90.9724 127.137 91.4086C126.811 91.8448 126.385 92.1866 125.857 92.434C125.33 92.6748 124.689 92.7953 123.933 92.7953C123.419 92.7953 122.947 92.7204 122.517 92.5707C122.094 92.4209 121.73 92.1898 121.424 91.8773C121.118 91.5648 120.88 91.1579 120.711 90.6566C120.548 90.1553 120.467 89.5531 120.467 88.85V82.0336H122.273V88.8695C122.273 89.3448 122.325 89.7386 122.43 90.0511C122.54 90.3571 122.687 90.6013 122.869 90.7836C123.058 90.9594 123.266 91.083 123.494 91.1547C123.728 91.2263 123.969 91.2621 124.217 91.2621C124.985 91.2621 125.594 91.1156 126.043 90.8226C126.492 90.5232 126.814 90.1228 127.01 89.6215C127.211 89.1136 127.312 88.5505 127.312 87.932ZM138.308 83.6937V92.6H136.502V82.0336H138.26L138.308 83.6937ZM141.609 81.975L141.599 83.6547C141.45 83.6221 141.306 83.6026 141.17 83.5961C141.04 83.583 140.89 83.5765 140.721 83.5765C140.304 83.5765 139.936 83.6416 139.617 83.7719C139.298 83.9021 139.028 84.0844 138.806 84.3187C138.585 84.5531 138.409 84.833 138.279 85.1586C138.155 85.4776 138.074 85.8291 138.035 86.2133L137.527 86.5062C137.527 85.8682 137.589 85.2692 137.713 84.7094C137.843 84.1495 138.041 83.6547 138.308 83.225C138.575 82.7888 138.914 82.4502 139.324 82.2094C139.741 81.962 140.235 81.8383 140.808 81.8383C140.939 81.8383 141.088 81.8545 141.258 81.8871C141.427 81.9131 141.544 81.9424 141.609 81.975ZM149.119 90.7933V85.3539C149.119 84.9372 149.034 84.5759 148.865 84.2699C148.702 83.9574 148.455 83.7165 148.123 83.5472C147.791 83.378 147.381 83.2933 146.892 83.2933C146.437 83.2933 146.036 83.3715 145.691 83.5277C145.353 83.684 145.086 83.889 144.89 84.1429C144.702 84.3969 144.607 84.6703 144.607 84.9633H142.801C142.801 84.5857 142.898 84.2113 143.094 83.8402C143.289 83.4691 143.569 83.1338 143.933 82.8344C144.305 82.5284 144.747 82.2875 145.262 82.1117C145.782 81.9294 146.362 81.8383 147 81.8383C147.768 81.8383 148.445 81.9685 149.031 82.2289C149.624 82.4893 150.086 82.8832 150.418 83.4105C150.756 83.9314 150.926 84.5857 150.926 85.3734V90.2953C150.926 90.6469 150.955 91.0212 151.013 91.4183C151.079 91.8155 151.173 92.1573 151.297 92.4437V92.6H149.412C149.321 92.3916 149.249 92.1149 149.197 91.7699C149.145 91.4183 149.119 91.0928 149.119 90.7933ZM149.431 86.1937L149.451 87.4633H147.625C147.11 87.4633 146.652 87.5056 146.248 87.5902C145.844 87.6683 145.506 87.7888 145.232 87.9515C144.959 88.1143 144.75 88.3194 144.607 88.5668C144.464 88.8077 144.392 89.0909 144.392 89.4164C144.392 89.7484 144.467 90.0511 144.617 90.3246C144.767 90.598 144.991 90.8161 145.291 90.9789C145.597 91.1351 145.971 91.2133 146.414 91.2133C146.967 91.2133 147.456 91.0961 147.879 90.8617C148.302 90.6273 148.637 90.3409 148.885 90.0023C149.138 89.6638 149.275 89.335 149.295 89.016L150.066 89.8851C150.021 90.1586 149.897 90.4613 149.695 90.7933C149.493 91.1254 149.223 91.4444 148.885 91.7504C148.553 92.0498 148.155 92.3005 147.693 92.5023C147.237 92.6976 146.723 92.7953 146.15 92.7953C145.434 92.7953 144.806 92.6553 144.265 92.3754C143.732 92.0954 143.315 91.7211 143.015 91.2523C142.722 90.7771 142.576 90.2465 142.576 89.6605C142.576 89.0941 142.687 88.5961 142.908 88.1664C143.129 87.7302 143.448 87.3689 143.865 87.0824C144.282 86.7894 144.783 86.5681 145.369 86.4183C145.955 86.2686 146.609 86.1937 147.332 86.1937H149.431ZM158.191 82.0336V83.4203H152.478V82.0336H158.191ZM154.412 79.4652H156.219V89.9828C156.219 90.3409 156.274 90.611 156.385 90.7933C156.495 90.9756 156.638 91.0961 156.814 91.1547C156.99 91.2133 157.179 91.2426 157.381 91.2426C157.53 91.2426 157.687 91.2295 157.849 91.2035C158.019 91.1709 158.146 91.1449 158.23 91.1254L158.24 92.6C158.097 92.6455 157.908 92.6879 157.674 92.7269C157.446 92.7725 157.169 92.7953 156.844 92.7953C156.401 92.7953 155.994 92.7074 155.623 92.5316C155.252 92.3558 154.956 92.0629 154.734 91.6527C154.519 91.236 154.412 90.6761 154.412 89.973V79.4652ZM162.117 77.6V92.6H160.31V77.6H162.117ZM161.687 86.9164L160.935 86.8871C160.942 86.1644 161.049 85.4971 161.258 84.8851C161.466 84.2666 161.759 83.7295 162.137 83.2738C162.514 82.8181 162.963 82.4665 163.484 82.2191C164.012 81.9652 164.594 81.8383 165.232 81.8383C165.753 81.8383 166.222 81.9099 166.638 82.0531C167.055 82.1898 167.41 82.4112 167.703 82.7172C168.002 83.0232 168.23 83.4203 168.387 83.9086C168.543 84.3903 168.621 84.9795 168.621 85.6761V92.6H166.805V85.6566C166.805 85.1032 166.723 84.6605 166.56 84.3285C166.398 83.9899 166.16 83.7458 165.847 83.5961C165.535 83.4398 165.151 83.3617 164.695 83.3617C164.246 83.3617 163.836 83.4561 163.465 83.6449C163.1 83.8337 162.784 84.0941 162.517 84.4261C162.257 84.7582 162.052 85.139 161.902 85.5687C161.759 85.9919 161.687 86.4411 161.687 86.9164ZM175.711 92.7953C174.975 92.7953 174.308 92.6716 173.709 92.4242C173.116 92.1703 172.605 91.8155 172.176 91.3597C171.752 90.904 171.427 90.3636 171.199 89.7386C170.971 89.1136 170.857 88.4301 170.857 87.6879V87.2777C170.857 86.4183 170.984 85.6534 171.238 84.9828C171.492 84.3057 171.837 83.7328 172.273 83.264C172.709 82.7953 173.204 82.4405 173.758 82.1996C174.311 81.9587 174.884 81.8383 175.476 81.8383C176.232 81.8383 176.883 81.9685 177.43 82.2289C177.983 82.4893 178.435 82.8539 178.787 83.3226C179.138 83.7849 179.399 84.3317 179.568 84.9633C179.737 85.5883 179.822 86.2719 179.822 87.014V87.8246H171.931V86.35H178.015V86.2133C177.989 85.7445 177.892 85.2888 177.722 84.8461C177.56 84.4034 177.299 84.0388 176.941 83.7523C176.583 83.4659 176.095 83.3226 175.476 83.3226C175.066 83.3226 174.689 83.4105 174.344 83.5863C173.999 83.7556 173.702 84.0095 173.455 84.348C173.207 84.6866 173.015 85.1 172.879 85.5883C172.742 86.0765 172.674 86.6397 172.674 87.2777V87.6879C172.674 88.1892 172.742 88.6612 172.879 89.1039C173.022 89.5401 173.227 89.9242 173.494 90.2562C173.767 90.5883 174.096 90.8487 174.48 91.0375C174.871 91.2263 175.314 91.3207 175.808 91.3207C176.446 91.3207 176.987 91.1905 177.43 90.9301C177.872 90.6696 178.26 90.3213 178.592 89.8851L179.685 90.7543C179.457 91.0993 179.168 91.4281 178.816 91.7406C178.465 92.0531 178.032 92.307 177.517 92.5023C177.01 92.6976 176.407 92.7953 175.711 92.7953ZM183.738 83.6937V92.6H181.931V82.0336H183.689L183.738 83.6937ZM187.039 81.975L187.029 83.6547C186.879 83.6221 186.736 83.6026 186.599 83.5961C186.469 83.583 186.319 83.5765 186.15 83.5765C185.734 83.5765 185.366 83.6416 185.047 83.7719C184.728 83.9021 184.457 84.0844 184.236 84.3187C184.015 84.5531 183.839 84.833 183.709 85.1586C183.585 85.4776 183.504 85.8291 183.465 86.2133L182.957 86.5062C182.957 85.8682 183.019 85.2692 183.142 84.7094C183.273 84.1495 183.471 83.6547 183.738 83.225C184.005 82.7888 184.344 82.4502 184.754 82.2094C185.17 81.962 185.665 81.8383 186.238 81.8383C186.368 81.8383 186.518 81.8545 186.687 81.8871C186.857 81.9131 186.974 81.9424 187.039 81.975ZM193.66 77.6H195.476V90.5492L195.32 92.6H193.66V77.6ZM202.615 87.2289V87.434C202.615 88.2022 202.524 88.9151 202.342 89.5726C202.159 90.2237 201.892 90.7901 201.541 91.2719C201.189 91.7536 200.76 92.128 200.252 92.3949C199.744 92.6618 199.161 92.7953 198.504 92.7953C197.833 92.7953 197.244 92.6814 196.736 92.4535C196.235 92.2191 195.812 91.8838 195.467 91.4476C195.122 91.0114 194.845 90.4841 194.637 89.8656C194.435 89.2471 194.295 88.5505 194.217 87.7758V86.8773C194.295 86.0961 194.435 85.3962 194.637 84.7777C194.845 84.1592 195.122 83.6319 195.467 83.1957C195.812 82.753 196.235 82.4177 196.736 82.1898C197.237 81.9554 197.82 81.8383 198.484 81.8383C199.148 81.8383 199.737 81.9685 200.252 82.2289C200.766 82.4828 201.196 82.8474 201.541 83.3226C201.892 83.7979 202.159 84.3676 202.342 85.0316C202.524 85.6892 202.615 86.4216 202.615 87.2289ZM200.799 87.434V87.2289C200.799 86.7015 200.75 86.2067 200.652 85.7445C200.555 85.2758 200.398 84.8656 200.183 84.514C199.969 84.156 199.685 83.876 199.334 83.6742C198.982 83.4659 198.549 83.3617 198.035 83.3617C197.579 83.3617 197.182 83.4398 196.844 83.5961C196.512 83.7523 196.228 83.9639 195.994 84.2308C195.76 84.4913 195.568 84.7907 195.418 85.1293C195.275 85.4613 195.167 85.8064 195.096 86.1644V88.5179C195.2 88.9737 195.369 89.4131 195.603 89.8363C195.844 90.253 196.163 90.5948 196.56 90.8617C196.964 91.1286 197.462 91.2621 198.055 91.2621C198.543 91.2621 198.959 91.1644 199.305 90.9691C199.656 90.7673 199.939 90.4906 200.154 90.139C200.375 89.7875 200.538 89.3806 200.642 88.9183C200.747 88.4561 200.799 87.9613 200.799 87.434ZM209.285 92.7953C208.549 92.7953 207.882 92.6716 207.283 92.4242C206.691 92.1703 206.18 91.8155 205.75 91.3597C205.327 90.904 205.001 90.3636 204.773 89.7386C204.545 89.1136 204.431 88.4301 204.431 87.6879V87.2777C204.431 86.4183 204.558 85.6534 204.812 84.9828C205.066 84.3057 205.411 83.7328 205.847 83.264C206.284 82.7953 206.778 82.4405 207.332 82.1996C207.885 81.9587 208.458 81.8383 209.051 81.8383C209.806 81.8383 210.457 81.9685 211.004 82.2289C211.557 82.4893 212.01 82.8539 212.361 83.3226C212.713 83.7849 212.973 84.3317 213.142 84.9633C213.312 85.5883 213.396 86.2719 213.396 87.014V87.8246H205.506V86.35H211.59V86.2133C211.564 85.7445 211.466 85.2888 211.297 84.8461C211.134 84.4034 210.874 84.0388 210.515 83.7523C210.157 83.4659 209.669 83.3226 209.051 83.3226C208.64 83.3226 208.263 83.4105 207.918 83.5863C207.573 83.7556 207.277 84.0095 207.029 84.348C206.782 84.6866 206.59 85.1 206.453 85.5883C206.316 86.0765 206.248 86.6397 206.248 87.2777V87.6879C206.248 88.1892 206.316 88.6612 206.453 89.1039C206.596 89.5401 206.801 89.9242 207.068 90.2562C207.342 90.5883 207.67 90.8487 208.055 91.0375C208.445 91.2263 208.888 91.3207 209.383 91.3207C210.021 91.3207 210.561 91.1905 211.004 90.9301C211.446 90.6696 211.834 90.3213 212.166 89.8851L213.26 90.7543C213.032 91.0993 212.742 91.4281 212.39 91.7406C212.039 92.0531 211.606 92.307 211.092 92.5023C210.584 92.6976 209.982 92.7953 209.285 92.7953ZM226.697 90.7933V85.3539C226.697 84.9372 226.612 84.5759 226.443 84.2699C226.28 83.9574 226.033 83.7165 225.701 83.5472C225.369 83.378 224.959 83.2933 224.471 83.2933C224.015 83.2933 223.614 83.3715 223.269 83.5277C222.931 83.684 222.664 83.889 222.469 84.1429C222.28 84.3969 222.185 84.6703 222.185 84.9633H220.379C220.379 84.5857 220.476 84.2113 220.672 83.8402C220.867 83.4691 221.147 83.1338 221.512 82.8344C221.883 82.5284 222.325 82.2875 222.84 82.1117C223.36 81.9294 223.94 81.8383 224.578 81.8383C225.346 81.8383 226.023 81.9685 226.609 82.2289C227.202 82.4893 227.664 82.8832 227.996 83.4105C228.334 83.9314 228.504 84.5857 228.504 85.3734V90.2953C228.504 90.6469 228.533 91.0212 228.592 91.4183C228.657 91.8155 228.751 92.1573 228.875 92.4437V92.6H226.99C226.899 92.3916 226.827 92.1149 226.775 91.7699C226.723 91.4183 226.697 91.0928 226.697 90.7933ZM227.01 86.1937L227.029 87.4633H225.203C224.689 87.4633 224.23 87.5056 223.826 87.5902C223.422 87.6683 223.084 87.7888 222.81 87.9515C222.537 88.1143 222.329 88.3194 222.185 88.5668C222.042 88.8077 221.971 89.0909 221.971 89.4164C221.971 89.7484 222.045 90.0511 222.195 90.3246C222.345 90.598 222.569 90.8161 222.869 90.9789C223.175 91.1351 223.549 91.2133 223.992 91.2133C224.545 91.2133 225.034 91.0961 225.457 90.8617C225.88 90.6273 226.215 90.3409 226.463 90.0023C226.717 89.6638 226.853 89.335 226.873 89.016L227.644 89.8851C227.599 90.1586 227.475 90.4613 227.273 90.7933C227.071 91.1254 226.801 91.4444 226.463 91.7504C226.131 92.0498 225.734 92.3005 225.271 92.5023C224.816 92.6976 224.301 92.7953 223.728 92.7953C223.012 92.7953 222.384 92.6553 221.844 92.3754C221.31 92.0954 220.893 91.7211 220.594 91.2523C220.301 90.7771 220.154 90.2465 220.154 89.6605C220.154 89.0941 220.265 88.5961 220.486 88.1664C220.707 87.7302 221.027 87.3689 221.443 87.0824C221.86 86.7894 222.361 86.5681 222.947 86.4183C223.533 86.2686 224.187 86.1937 224.91 86.1937H227.01ZM235.769 82.0336V83.4203H230.056V82.0336H235.769ZM231.99 79.4652H233.797V89.9828C233.797 90.3409 233.852 90.611 233.963 90.7933C234.073 90.9756 234.217 91.0961 234.392 91.1547C234.568 91.2133 234.757 91.2426 234.959 91.2426C235.109 91.2426 235.265 91.2295 235.428 91.2035C235.597 91.1709 235.724 91.1449 235.808 91.1254L235.818 92.6C235.675 92.6455 235.486 92.6879 235.252 92.7269C235.024 92.7725 234.747 92.7953 234.422 92.7953C233.979 92.7953 233.572 92.7074 233.201 92.5316C232.83 92.3558 232.534 92.0629 232.312 91.6527C232.097 91.236 231.99 90.6761 231.99 89.973V79.4652ZM249.08 90.7933V85.3539C249.08 84.9372 248.995 84.5759 248.826 84.2699C248.663 83.9574 248.416 83.7165 248.084 83.5472C247.752 83.378 247.342 83.2933 246.853 83.2933C246.398 83.2933 245.997 83.3715 245.652 83.5277C245.314 83.684 245.047 83.889 244.851 84.1429C244.663 84.3969 244.568 84.6703 244.568 84.9633H242.762C242.762 84.5857 242.859 84.2113 243.055 83.8402C243.25 83.4691 243.53 83.1338 243.894 82.8344C244.265 82.5284 244.708 82.2875 245.222 82.1117C245.743 81.9294 246.323 81.8383 246.961 81.8383C247.729 81.8383 248.406 81.9685 248.992 82.2289C249.584 82.4893 250.047 82.8832 250.379 83.4105C250.717 83.9314 250.887 84.5857 250.887 85.3734V90.2953C250.887 90.6469 250.916 91.0212 250.974 91.4183C251.04 91.8155 251.134 92.1573 251.258 92.4437V92.6H249.373C249.282 92.3916 249.21 92.1149 249.158 91.7699C249.106 91.4183 249.08 91.0928 249.08 90.7933ZM249.392 86.1937L249.412 87.4633H247.586C247.071 87.4633 246.612 87.5056 246.209 87.5902C245.805 87.6683 245.467 87.7888 245.193 87.9515C244.92 88.1143 244.711 88.3194 244.568 88.5668C244.425 88.8077 244.353 89.0909 244.353 89.4164C244.353 89.7484 244.428 90.0511 244.578 90.3246C244.728 90.598 244.952 90.8161 245.252 90.9789C245.558 91.1351 245.932 91.2133 246.375 91.2133C246.928 91.2133 247.416 91.0961 247.84 90.8617C248.263 90.6273 248.598 90.3409 248.846 90.0023C249.099 89.6638 249.236 89.335 249.256 89.016L250.027 89.8851C249.982 90.1586 249.858 90.4613 249.656 90.7933C249.454 91.1254 249.184 91.4444 248.846 91.7504C248.513 92.0498 248.116 92.3005 247.654 92.5023C247.198 92.6976 246.684 92.7953 246.111 92.7953C245.395 92.7953 244.767 92.6553 244.226 92.3754C243.693 92.0954 243.276 91.7211 242.976 91.2523C242.683 90.7771 242.537 90.2465 242.537 89.6605C242.537 89.0941 242.648 88.5961 242.869 88.1664C243.09 87.7302 243.409 87.3689 243.826 87.0824C244.243 86.7894 244.744 86.5681 245.33 86.4183C245.916 86.2686 246.57 86.1937 247.293 86.1937H249.392ZM264.842 89.7972C264.842 89.5368 264.783 89.2959 264.666 89.0746C264.555 88.8467 264.324 88.6416 263.972 88.4594C263.627 88.2705 263.107 88.1078 262.41 87.9711C261.824 87.8474 261.293 87.7009 260.818 87.5316C260.349 87.3623 259.949 87.1573 259.617 86.9164C259.291 86.6755 259.041 86.3923 258.865 86.0668C258.689 85.7413 258.601 85.3604 258.601 84.9242C258.601 84.5075 258.693 84.1136 258.875 83.7426C259.064 83.3715 259.327 83.0427 259.666 82.7562C260.011 82.4698 260.424 82.2452 260.906 82.0824C261.388 81.9196 261.925 81.8383 262.517 81.8383C263.364 81.8383 264.086 81.988 264.685 82.2875C265.284 82.587 265.743 82.9873 266.062 83.4886C266.381 83.9834 266.541 84.5336 266.541 85.139H264.734C264.734 84.8461 264.646 84.5629 264.471 84.2894C264.301 84.0095 264.051 83.7784 263.719 83.5961C263.393 83.4138 262.993 83.3226 262.517 83.3226C262.016 83.3226 261.609 83.4008 261.297 83.557C260.991 83.7067 260.766 83.8988 260.623 84.1332C260.486 84.3676 260.418 84.6149 260.418 84.8754C260.418 85.0707 260.45 85.2465 260.515 85.4027C260.587 85.5524 260.711 85.6924 260.887 85.8226C261.062 85.9463 261.31 86.0635 261.629 86.1742C261.948 86.2849 262.355 86.3955 262.849 86.5062C263.715 86.7015 264.428 86.9359 264.988 87.2094C265.548 87.4828 265.965 87.8181 266.238 88.2152C266.512 88.6123 266.648 89.0941 266.648 89.6605C266.648 90.1228 266.551 90.5459 266.355 90.9301C266.166 91.3142 265.89 91.6462 265.525 91.9261C265.167 92.1996 264.737 92.4144 264.236 92.5707C263.741 92.7204 263.185 92.7953 262.566 92.7953C261.635 92.7953 260.847 92.6293 260.203 92.2972C259.558 91.9652 259.07 91.5355 258.738 91.0082C258.406 90.4808 258.24 89.9242 258.24 89.3383H260.056C260.082 89.833 260.226 90.2269 260.486 90.5199C260.747 90.8064 261.066 91.0114 261.443 91.1351C261.821 91.2523 262.195 91.3109 262.566 91.3109C263.061 91.3109 263.474 91.2458 263.806 91.1156C264.145 90.9854 264.402 90.8064 264.578 90.5785C264.754 90.3506 264.842 90.0902 264.842 89.7972ZM268.543 87.434V87.2094C268.543 86.4476 268.653 85.7413 268.875 85.0902C269.096 84.4327 269.415 83.863 269.832 83.3812C270.249 82.8929 270.753 82.5153 271.346 82.2484C271.938 81.975 272.602 81.8383 273.338 81.8383C274.08 81.8383 274.747 81.975 275.34 82.2484C275.939 82.5153 276.446 82.8929 276.863 83.3812C277.286 83.863 277.609 84.4327 277.83 85.0902C278.051 85.7413 278.162 86.4476 278.162 87.2094V87.434C278.162 88.1957 278.051 88.9021 277.83 89.5531C277.609 90.2041 277.286 90.7738 276.863 91.2621C276.446 91.7439 275.942 92.1215 275.349 92.3949C274.763 92.6618 274.099 92.7953 273.357 92.7953C272.615 92.7953 271.948 92.6618 271.355 92.3949C270.763 92.1215 270.255 91.7439 269.832 91.2621C269.415 90.7738 269.096 90.2041 268.875 89.5531C268.653 88.9021 268.543 88.1957 268.543 87.434ZM270.349 87.2094V87.434C270.349 87.9613 270.411 88.4594 270.535 88.9281C270.659 89.3903 270.844 89.8005 271.092 90.1586C271.346 90.5166 271.661 90.7998 272.039 91.0082C272.416 91.21 272.856 91.3109 273.357 91.3109C273.852 91.3109 274.285 91.21 274.656 91.0082C275.034 90.7998 275.346 90.5166 275.594 90.1586C275.841 89.8005 276.027 89.3903 276.15 88.9281C276.28 88.4594 276.346 87.9613 276.346 87.434V87.2094C276.346 86.6885 276.28 86.197 276.15 85.7347C276.027 85.266 275.838 84.8526 275.584 84.4945C275.336 84.1299 275.024 83.8435 274.646 83.6351C274.275 83.4268 273.839 83.3226 273.338 83.3226C272.843 83.3226 272.407 83.4268 272.029 83.6351C271.658 83.8435 271.346 84.1299 271.092 84.4945C270.844 84.8526 270.659 85.266 270.535 85.7347C270.411 86.197 270.349 86.6885 270.349 87.2094ZM284.656 91.3109C285.086 91.3109 285.483 91.223 285.847 91.0472C286.212 90.8715 286.512 90.6306 286.746 90.3246C286.98 90.0121 287.114 89.6573 287.146 89.2601H288.865C288.832 89.8851 288.621 90.4678 288.23 91.0082C287.846 91.542 287.342 91.975 286.717 92.307C286.092 92.6325 285.405 92.7953 284.656 92.7953C283.862 92.7953 283.168 92.6553 282.576 92.3754C281.99 92.0954 281.502 91.7113 281.111 91.223C280.727 90.7347 280.437 90.1748 280.242 89.5433C280.053 88.9053 279.959 88.2315 279.959 87.5219V87.1117C279.959 86.4021 280.053 85.7315 280.242 85.1C280.437 84.462 280.727 83.8988 281.111 83.4105C281.502 82.9222 281.99 82.5381 282.576 82.2582C283.168 81.9782 283.862 81.8383 284.656 81.8383C285.483 81.8383 286.206 82.0075 286.824 82.3461C287.443 82.6781 287.928 83.1338 288.279 83.7133C288.637 84.2862 288.832 84.9372 288.865 85.6664H287.146C287.114 85.2302 286.99 84.8363 286.775 84.4847C286.567 84.1332 286.28 83.8532 285.916 83.6449C285.558 83.4301 285.138 83.3226 284.656 83.3226C284.103 83.3226 283.637 83.4333 283.26 83.6547C282.888 83.8695 282.592 84.1625 282.371 84.5336C282.156 84.8982 282 85.3051 281.902 85.7543C281.811 86.197 281.765 86.6495 281.765 87.1117V87.5219C281.765 87.9841 281.811 88.4398 281.902 88.889C281.993 89.3383 282.146 89.7452 282.361 90.1097C282.582 90.4743 282.879 90.7673 283.25 90.9886C283.627 91.2035 284.096 91.3109 284.656 91.3109ZM292.859 82.0336V92.6H291.043V82.0336H292.859ZM290.906 79.2308C290.906 78.9379 290.994 78.6905 291.17 78.4886C291.352 78.2868 291.619 78.1859 291.971 78.1859C292.316 78.1859 292.579 78.2868 292.762 78.4886C292.95 78.6905 293.045 78.9379 293.045 79.2308C293.045 79.5108 292.95 79.7517 292.762 79.9535C292.579 80.1488 292.316 80.2465 291.971 80.2465C291.619 80.2465 291.352 80.1488 291.17 79.9535C290.994 79.7517 290.906 79.5108 290.906 79.2308ZM301.99 90.7933V85.3539C301.99 84.9372 301.905 84.5759 301.736 84.2699C301.573 83.9574 301.326 83.7165 300.994 83.5472C300.662 83.378 300.252 83.2933 299.763 83.2933C299.308 83.2933 298.907 83.3715 298.562 83.5277C298.224 83.684 297.957 83.889 297.762 84.1429C297.573 84.3969 297.478 84.6703 297.478 84.9633H295.672C295.672 84.5857 295.769 84.2113 295.965 83.8402C296.16 83.4691 296.44 83.1338 296.805 82.8344C297.176 82.5284 297.618 82.2875 298.133 82.1117C298.653 81.9294 299.233 81.8383 299.871 81.8383C300.639 81.8383 301.316 81.9685 301.902 82.2289C302.495 82.4893 302.957 82.8832 303.289 83.4105C303.627 83.9314 303.797 84.5857 303.797 85.3734V90.2953C303.797 90.6469 303.826 91.0212 303.885 91.4183C303.95 91.8155 304.044 92.1573 304.168 92.4437V92.6H302.283C302.192 92.3916 302.12 92.1149 302.068 91.7699C302.016 91.4183 301.99 91.0928 301.99 90.7933ZM302.303 86.1937L302.322 87.4633H300.496C299.982 87.4633 299.523 87.5056 299.119 87.5902C298.715 87.6683 298.377 87.7888 298.103 87.9515C297.83 88.1143 297.622 88.3194 297.478 88.5668C297.335 88.8077 297.263 89.0909 297.263 89.4164C297.263 89.7484 297.338 90.0511 297.488 90.3246C297.638 90.598 297.862 90.8161 298.162 90.9789C298.468 91.1351 298.842 91.2133 299.285 91.2133C299.838 91.2133 300.327 91.0961 300.75 90.8617C301.173 90.6273 301.508 90.3409 301.756 90.0023C302.01 89.6638 302.146 89.335 302.166 89.016L302.937 89.8851C302.892 90.1586 302.768 90.4613 302.566 90.7933C302.364 91.1254 302.094 91.4444 301.756 91.7504C301.424 92.0498 301.027 92.3005 300.564 92.5023C300.109 92.6976 299.594 92.7953 299.021 92.7953C298.305 92.7953 297.677 92.6553 297.137 92.3754C296.603 92.0954 296.186 91.7211 295.887 91.2523C295.594 90.7771 295.447 90.2465 295.447 89.6605C295.447 89.0941 295.558 88.5961 295.779 88.1664C296 87.7302 296.319 87.3689 296.736 87.0824C297.153 86.7894 297.654 86.5681 298.24 86.4183C298.826 86.2686 299.48 86.1937 300.203 86.1937H302.303ZM308.601 77.6V92.6H306.785V77.6H308.601ZM323.308 82.0336H324.949V92.3754C324.949 93.3064 324.76 94.1006 324.383 94.7582C324.005 95.4157 323.478 95.9138 322.801 96.2523C322.13 96.5974 321.355 96.7699 320.476 96.7699C320.112 96.7699 319.682 96.7113 319.187 96.5941C318.699 96.4834 318.217 96.2914 317.742 96.0179C317.273 95.751 316.879 95.3897 316.56 94.934L317.508 93.8597C317.95 94.3936 318.413 94.7647 318.894 94.973C319.383 95.1814 319.864 95.2855 320.34 95.2855C320.913 95.2855 321.407 95.1781 321.824 94.9633C322.241 94.7484 322.563 94.4294 322.791 94.0062C323.025 93.5896 323.142 93.0752 323.142 92.4633V84.3578L323.308 82.0336ZM316.033 87.434V87.2289C316.033 86.4216 316.127 85.6892 316.316 85.0316C316.512 84.3676 316.788 83.7979 317.146 83.3226C317.511 82.8474 317.95 82.4828 318.465 82.2289C318.979 81.9685 319.558 81.8383 320.203 81.8383C320.867 81.8383 321.446 81.9554 321.941 82.1898C322.443 82.4177 322.866 82.753 323.211 83.1957C323.562 83.6319 323.839 84.1592 324.041 84.7777C324.243 85.3962 324.383 86.0961 324.461 86.8773V87.7758C324.389 88.5505 324.249 89.2471 324.041 89.8656C323.839 90.4841 323.562 91.0114 323.211 91.4476C322.866 91.8838 322.443 92.2191 321.941 92.4535C321.44 92.6814 320.854 92.7953 320.183 92.7953C319.552 92.7953 318.979 92.6618 318.465 92.3949C317.957 92.128 317.521 91.7536 317.156 91.2719C316.791 90.7901 316.512 90.2237 316.316 89.5726C316.127 88.9151 316.033 88.2022 316.033 87.434ZM317.84 87.2289V87.434C317.84 87.9613 317.892 88.4561 317.996 88.9183C318.107 89.3806 318.273 89.7875 318.494 90.139C318.722 90.4906 319.012 90.7673 319.363 90.9691C319.715 91.1644 320.135 91.2621 320.623 91.2621C321.222 91.2621 321.717 91.1351 322.107 90.8812C322.498 90.6273 322.807 90.292 323.035 89.8754C323.269 89.4587 323.452 89.0062 323.582 88.5179V86.1644C323.51 85.8064 323.4 85.4613 323.25 85.1293C323.107 84.7907 322.918 84.4913 322.683 84.2308C322.456 83.9639 322.172 83.7523 321.834 83.5961C321.495 83.4398 321.098 83.3617 320.642 83.3617C320.148 83.3617 319.721 83.4659 319.363 83.6742C319.012 83.876 318.722 84.156 318.494 84.514C318.273 84.8656 318.107 85.2758 317.996 85.7445C317.892 86.2067 317.84 86.7015 317.84 87.2289ZM333.924 90.7933V85.3539C333.924 84.9372 333.839 84.5759 333.67 84.2699C333.507 83.9574 333.26 83.7165 332.928 83.5472C332.596 83.378 332.185 83.2933 331.697 83.2933C331.241 83.2933 330.841 83.3715 330.496 83.5277C330.157 83.684 329.89 83.889 329.695 84.1429C329.506 84.3969 329.412 84.6703 329.412 84.9633H327.605C327.605 84.5857 327.703 84.2113 327.898 83.8402C328.094 83.4691 328.374 83.1338 328.738 82.8344C329.109 82.5284 329.552 82.2875 330.066 82.1117C330.587 81.9294 331.166 81.8383 331.805 81.8383C332.573 81.8383 333.25 81.9685 333.836 82.2289C334.428 82.4893 334.89 82.8832 335.222 83.4105C335.561 83.9314 335.73 84.5857 335.73 85.3734V90.2953C335.73 90.6469 335.76 91.0212 335.818 91.4183C335.883 91.8155 335.978 92.1573 336.101 92.4437V92.6H334.217C334.125 92.3916 334.054 92.1149 334.002 91.7699C333.95 91.4183 333.924 91.0928 333.924 90.7933ZM334.236 86.1937L334.256 87.4633H332.43C331.915 87.4633 331.456 87.5056 331.053 87.5902C330.649 87.6683 330.31 87.7888 330.037 87.9515C329.763 88.1143 329.555 88.3194 329.412 88.5668C329.269 88.8077 329.197 89.0909 329.197 89.4164C329.197 89.7484 329.272 90.0511 329.422 90.3246C329.571 90.598 329.796 90.8161 330.096 90.9789C330.402 91.1351 330.776 91.2133 331.219 91.2133C331.772 91.2133 332.26 91.0961 332.683 90.8617C333.107 90.6273 333.442 90.3409 333.689 90.0023C333.943 89.6638 334.08 89.335 334.099 89.016L334.871 89.8851C334.825 90.1586 334.702 90.4613 334.5 90.7933C334.298 91.1254 334.028 91.4444 333.689 91.7504C333.357 92.0498 332.96 92.3005 332.498 92.5023C332.042 92.6976 331.528 92.7953 330.955 92.7953C330.239 92.7953 329.61 92.6553 329.07 92.3754C328.536 92.0954 328.12 91.7211 327.82 91.2523C327.527 90.7771 327.381 90.2465 327.381 89.6605C327.381 89.0941 327.491 88.5961 327.713 88.1664C327.934 87.7302 328.253 87.3689 328.67 87.0824C329.086 86.7894 329.588 86.5681 330.174 86.4183C330.76 86.2686 331.414 86.1937 332.137 86.1937H334.236ZM342.996 82.0336V83.4203H337.283V82.0336H342.996ZM339.217 79.4652H341.023V89.9828C341.023 90.3409 341.079 90.611 341.189 90.7933C341.3 90.9756 341.443 91.0961 341.619 91.1547C341.795 91.2133 341.984 91.2426 342.185 91.2426C342.335 91.2426 342.491 91.2295 342.654 91.2035C342.823 91.1709 342.95 91.1449 343.035 91.1254L343.045 92.6C342.902 92.6455 342.713 92.6879 342.478 92.7269C342.25 92.7725 341.974 92.7953 341.648 92.7953C341.206 92.7953 340.799 92.7074 340.428 92.5316C340.056 92.3558 339.76 92.0629 339.539 91.6527C339.324 91.236 339.217 90.6761 339.217 89.973V79.4652ZM346.922 77.6V92.6H345.115V77.6H346.922ZM346.492 86.9164L345.74 86.8871C345.747 86.1644 345.854 85.4971 346.062 84.8851C346.271 84.2666 346.564 83.7295 346.941 83.2738C347.319 82.8181 347.768 82.4665 348.289 82.2191C348.816 81.9652 349.399 81.8383 350.037 81.8383C350.558 81.8383 351.027 81.9099 351.443 82.0531C351.86 82.1898 352.215 82.4112 352.508 82.7172C352.807 83.0232 353.035 83.4203 353.191 83.9086C353.347 84.3903 353.426 84.9795 353.426 85.6761V92.6H351.609V85.6566C351.609 85.1032 351.528 84.6605 351.365 84.3285C351.202 83.9899 350.965 83.7458 350.652 83.5961C350.34 83.4398 349.956 83.3617 349.5 83.3617C349.051 83.3617 348.64 83.4561 348.269 83.6449C347.905 83.8337 347.589 84.0941 347.322 84.4261C347.062 84.7582 346.857 85.139 346.707 85.5687C346.564 85.9919 346.492 86.4411 346.492 86.9164ZM360.515 92.7953C359.78 92.7953 359.112 92.6716 358.513 92.4242C357.921 92.1703 357.41 91.8155 356.98 91.3597C356.557 90.904 356.232 90.3636 356.004 89.7386C355.776 89.1136 355.662 88.4301 355.662 87.6879V87.2777C355.662 86.4183 355.789 85.6534 356.043 84.9828C356.297 84.3057 356.642 83.7328 357.078 83.264C357.514 82.7953 358.009 82.4405 358.562 82.1996C359.116 81.9587 359.689 81.8383 360.281 81.8383C361.036 81.8383 361.687 81.9685 362.234 82.2289C362.788 82.4893 363.24 82.8539 363.592 83.3226C363.943 83.7849 364.204 84.3317 364.373 84.9633C364.542 85.5883 364.627 86.2719 364.627 87.014V87.8246H356.736V86.35H362.82V86.2133C362.794 85.7445 362.696 85.2888 362.527 84.8461C362.364 84.4034 362.104 84.0388 361.746 83.7523C361.388 83.4659 360.9 83.3226 360.281 83.3226C359.871 83.3226 359.493 83.4105 359.148 83.5863C358.803 83.7556 358.507 84.0095 358.26 84.348C358.012 84.6866 357.82 85.1 357.683 85.5883C357.547 86.0765 357.478 86.6397 357.478 87.2777V87.6879C357.478 88.1892 357.547 88.6612 357.683 89.1039C357.827 89.5401 358.032 89.9242 358.299 90.2562C358.572 90.5883 358.901 90.8487 359.285 91.0375C359.676 91.2263 360.118 91.3207 360.613 91.3207C361.251 91.3207 361.791 91.1905 362.234 90.9301C362.677 90.6696 363.064 90.3213 363.396 89.8851L364.49 90.7543C364.262 91.0993 363.972 91.4281 363.621 91.7406C363.269 92.0531 362.836 92.307 362.322 92.5023C361.814 92.6976 361.212 92.7953 360.515 92.7953ZM368.543 83.6937V92.6H366.736V82.0336H368.494L368.543 83.6937ZM371.844 81.975L371.834 83.6547C371.684 83.6221 371.541 83.6026 371.404 83.5961C371.274 83.583 371.124 83.5765 370.955 83.5765C370.538 83.5765 370.17 83.6416 369.851 83.7719C369.532 83.9021 369.262 84.0844 369.041 84.3187C368.819 84.5531 368.644 84.833 368.513 85.1586C368.39 85.4776 368.308 85.8291 368.269 86.2133L367.762 86.5062C367.762 85.8682 367.823 85.2692 367.947 84.7094C368.077 84.1495 368.276 83.6547 368.543 83.225C368.81 82.7888 369.148 82.4502 369.558 82.2094C369.975 81.962 370.47 81.8383 371.043 81.8383C371.173 81.8383 371.323 81.8545 371.492 81.8871C371.661 81.9131 371.778 81.9424 371.844 81.975ZM375.476 82.0336V92.6H373.66V82.0336H375.476ZM373.523 79.2308C373.523 78.9379 373.611 78.6905 373.787 78.4886C373.969 78.2868 374.236 78.1859 374.588 78.1859C374.933 78.1859 375.196 78.2868 375.379 78.4886C375.568 78.6905 375.662 78.9379 375.662 79.2308C375.662 79.5108 375.568 79.7517 375.379 79.9535C375.196 80.1488 374.933 80.2465 374.588 80.2465C374.236 80.2465 373.969 80.1488 373.787 79.9535C373.611 79.7517 373.523 79.5108 373.523 79.2308ZM380.183 84.2894V92.6H378.377V82.0336H380.086L380.183 84.2894ZM379.754 86.9164L379.002 86.8871C379.008 86.1644 379.116 85.4971 379.324 84.8851C379.532 84.2666 379.825 83.7295 380.203 83.2738C380.581 82.8181 381.03 82.4665 381.551 82.2191C382.078 81.9652 382.661 81.8383 383.299 81.8383C383.819 81.8383 384.288 81.9099 384.705 82.0531C385.122 82.1898 385.476 82.4112 385.769 82.7172C386.069 83.0232 386.297 83.4203 386.453 83.9086C386.609 84.3903 386.687 84.9795 386.687 85.6761V92.6H384.871V85.6566C384.871 85.1032 384.79 84.6605 384.627 84.3285C384.464 83.9899 384.226 83.7458 383.914 83.5961C383.601 83.4398 383.217 83.3617 382.762 83.3617C382.312 83.3617 381.902 83.4561 381.531 83.6449C381.166 83.8337 380.851 84.0941 380.584 84.4261C380.323 84.7582 380.118 85.139 379.969 85.5687C379.825 85.9919 379.754 86.4411 379.754 86.9164ZM396.277 82.0336H397.918V92.3754C397.918 93.3064 397.729 94.1006 397.351 94.7582C396.974 95.4157 396.446 95.9138 395.769 96.2523C395.099 96.5974 394.324 96.7699 393.445 96.7699C393.081 96.7699 392.651 96.7113 392.156 96.5941C391.668 96.4834 391.186 96.2914 390.711 96.0179C390.242 95.751 389.848 95.3897 389.529 94.934L390.476 93.8597C390.919 94.3936 391.381 94.7647 391.863 94.973C392.351 95.1814 392.833 95.2855 393.308 95.2855C393.881 95.2855 394.376 95.1781 394.793 94.9633C395.209 94.7484 395.532 94.4294 395.76 94.0062C395.994 93.5896 396.111 93.0752 396.111 92.4633V84.3578L396.277 82.0336ZM389.002 87.434V87.2289C389.002 86.4216 389.096 85.6892 389.285 85.0316C389.48 84.3676 389.757 83.7979 390.115 83.3226C390.48 82.8474 390.919 82.4828 391.433 82.2289C391.948 81.9685 392.527 81.8383 393.172 81.8383C393.836 81.8383 394.415 81.9554 394.91 82.1898C395.411 82.4177 395.834 82.753 396.18 83.1957C396.531 83.6319 396.808 84.1592 397.01 84.7777C397.211 85.3962 397.351 86.0961 397.43 86.8773V87.7758C397.358 88.5505 397.218 89.2471 397.01 89.8656C396.808 90.4841 396.531 91.0114 396.18 91.4476C395.834 91.8838 395.411 92.2191 394.91 92.4535C394.409 92.6814 393.823 92.7953 393.152 92.7953C392.521 92.7953 391.948 92.6618 391.433 92.3949C390.926 92.128 390.489 91.7536 390.125 91.2719C389.76 90.7901 389.48 90.2237 389.285 89.5726C389.096 88.9151 389.002 88.2022 389.002 87.434ZM390.808 87.2289V87.434C390.808 87.9613 390.86 88.4561 390.965 88.9183C391.075 89.3806 391.241 89.7875 391.463 90.139C391.691 90.4906 391.98 90.7673 392.332 90.9691C392.683 91.1644 393.103 91.2621 393.592 91.2621C394.191 91.2621 394.685 91.1351 395.076 90.8812C395.467 90.6273 395.776 90.292 396.004 89.8754C396.238 89.4587 396.42 89.0062 396.551 88.5179V86.1644C396.479 85.8064 396.368 85.4613 396.219 85.1293C396.075 84.7907 395.887 84.4913 395.652 84.2308C395.424 83.9639 395.141 83.7523 394.803 83.5961C394.464 83.4398 394.067 83.3617 393.611 83.3617C393.116 83.3617 392.69 83.4659 392.332 83.6742C391.98 83.876 391.691 84.156 391.463 84.514C391.241 84.8656 391.075 85.2758 390.965 85.7445C390.86 86.2067 390.808 86.7015 390.808 87.2289ZM405.144 87.434V87.2094C405.144 86.4476 405.255 85.7413 405.476 85.0902C405.698 84.4327 406.017 83.863 406.433 83.3812C406.85 82.8929 407.355 82.5153 407.947 82.2484C408.54 81.975 409.204 81.8383 409.939 81.8383C410.681 81.8383 411.349 81.975 411.941 82.2484C412.54 82.5153 413.048 82.8929 413.465 83.3812C413.888 83.863 414.21 84.4327 414.431 85.0902C414.653 85.7413 414.763 86.4476 414.763 87.2094V87.434C414.763 88.1957 414.653 88.9021 414.431 89.5531C414.21 90.2041 413.888 90.7738 413.465 91.2621C413.048 91.7439 412.543 92.1215 411.951 92.3949C411.365 92.6618 410.701 92.7953 409.959 92.7953C409.217 92.7953 408.549 92.6618 407.957 92.3949C407.364 92.1215 406.857 91.7439 406.433 91.2621C406.017 90.7738 405.698 90.2041 405.476 89.5531C405.255 88.9021 405.144 88.1957 405.144 87.434ZM406.951 87.2094V87.434C406.951 87.9613 407.013 88.4594 407.137 88.9281C407.26 89.3903 407.446 89.8005 407.693 90.1586C407.947 90.5166 408.263 90.7998 408.64 91.0082C409.018 91.21 409.457 91.3109 409.959 91.3109C410.454 91.3109 410.887 91.21 411.258 91.0082C411.635 90.7998 411.948 90.5166 412.195 90.1586C412.443 89.8005 412.628 89.3903 412.752 88.9281C412.882 88.4594 412.947 87.9613 412.947 87.434V87.2094C412.947 86.6885 412.882 86.197 412.752 85.7347C412.628 85.266 412.439 84.8526 412.185 84.4945C411.938 84.1299 411.625 83.8435 411.248 83.6351C410.877 83.4268 410.441 83.3226 409.939 83.3226C409.444 83.3226 409.008 83.4268 408.631 83.6351C408.26 83.8435 407.947 84.1299 407.693 84.4945C407.446 84.8526 407.26 85.266 407.137 85.7347C407.013 86.197 406.951 86.6885 406.951 87.2094ZM418.836 83.6937V92.6H417.029V82.0336H418.787L418.836 83.6937ZM422.137 81.975L422.127 83.6547C421.977 83.6221 421.834 83.6026 421.697 83.5961C421.567 83.583 421.417 83.5765 421.248 83.5765C420.831 83.5765 420.463 83.6416 420.144 83.7719C419.825 83.9021 419.555 84.0844 419.334 84.3187C419.112 84.5531 418.937 84.833 418.806 85.1586C418.683 85.4776 418.601 85.8291 418.562 86.2133L418.055 86.5062C418.055 85.8682 418.116 85.2692 418.24 84.7094C418.37 84.1495 418.569 83.6547 418.836 83.225C419.103 82.7888 419.441 82.4502 419.851 82.2094C420.268 81.962 420.763 81.8383 421.336 81.8383C421.466 81.8383 421.616 81.8545 421.785 81.8871C421.954 81.9131 422.071 81.9424 422.137 81.975ZM43.0154 121.311C43.4451 121.311 43.8423 121.223 44.2068 121.047C44.5714 120.871 44.8709 120.631 45.1053 120.325C45.3397 120.012 45.4731 119.657 45.5057 119.26H47.2244C47.1919 119.885 46.9803 120.468 46.5897 121.008C46.2055 121.542 45.701 121.975 45.076 122.307C44.451 122.633 43.7641 122.795 43.0154 122.795C42.2212 122.795 41.5278 122.655 40.9354 122.375C40.3494 122.095 39.8611 121.711 39.4705 121.223C39.0864 120.735 38.7967 120.175 38.6014 119.543C38.4126 118.905 38.3182 118.231 38.3182 117.522V117.112C38.3182 116.402 38.4126 115.731 38.6014 115.1C38.7967 114.462 39.0864 113.899 39.4705 113.411C39.8611 112.922 40.3494 112.538 40.9354 112.258C41.5278 111.978 42.2212 111.838 43.0154 111.838C43.8423 111.838 44.5649 112.008 45.1834 112.346C45.8019 112.678 46.2869 113.134 46.6385 113.713C46.9966 114.286 47.1919 114.937 47.2244 115.666H45.5057C45.4731 115.23 45.3494 114.836 45.1346 114.485C44.9262 114.133 44.6398 113.853 44.2752 113.645C43.9171 113.43 43.4972 113.323 43.0154 113.323C42.4621 113.323 41.9966 113.433 41.619 113.655C41.2479 113.87 40.9516 114.162 40.7303 114.534C40.5154 114.898 40.3592 115.305 40.2615 115.754C40.1704 116.197 40.1248 116.649 40.1248 117.112V117.522C40.1248 117.984 40.1704 118.44 40.2615 118.889C40.3527 119.338 40.5057 119.745 40.7205 120.11C40.9419 120.474 41.2381 120.767 41.6092 120.989C41.9868 121.203 42.4555 121.311 43.0154 121.311ZM51.0623 107.6V122.6H49.2557V107.6H51.0623ZM50.6326 116.916L49.8807 116.887C49.8872 116.164 49.9946 115.497 50.2029 114.885C50.4113 114.267 50.7042 113.73 51.0818 113.274C51.4595 112.818 51.9087 112.467 52.4295 112.219C52.9568 111.965 53.5395 111.838 54.1776 111.838C54.6984 111.838 55.1671 111.91 55.5838 112.053C56.0005 112.19 56.3553 112.411 56.6483 112.717C56.9477 113.023 57.1756 113.42 57.3318 113.909C57.4881 114.39 57.5662 114.98 57.5662 115.676V122.6H55.7498V115.657C55.7498 115.103 55.6684 114.661 55.5057 114.328C55.3429 113.99 55.1053 113.746 54.7928 113.596C54.4803 113.44 54.0962 113.362 53.6404 113.362C53.1912 113.362 52.7811 113.456 52.41 113.645C52.0454 113.834 51.7296 114.094 51.4627 114.426C51.2023 114.758 50.9972 115.139 50.8475 115.569C50.7042 115.992 50.6326 116.441 50.6326 116.916ZM62.2342 112.034V122.6H60.4178V112.034H62.2342ZM60.2811 109.231C60.2811 108.938 60.369 108.69 60.5447 108.489C60.727 108.287 60.994 108.186 61.3455 108.186C61.6906 108.186 61.9542 108.287 62.1365 108.489C62.3253 108.69 62.4197 108.938 62.4197 109.231C62.4197 109.511 62.3253 109.752 62.1365 109.953C61.9542 110.149 61.6906 110.246 61.3455 110.246C60.994 110.246 60.727 110.149 60.5447 109.953C60.369 109.752 60.2811 109.511 60.2811 109.231ZM67.0975 107.6V122.6H65.2811V107.6H67.0975ZM71.9608 107.6V122.6H70.1443V107.6H71.9608ZM76.824 112.034V122.6H75.0076V112.034H76.824ZM74.8709 109.231C74.8709 108.938 74.9588 108.69 75.1346 108.489C75.3169 108.287 75.5838 108.186 75.9354 108.186C76.2804 108.186 76.5441 108.287 76.7264 108.489C76.9152 108.69 77.0096 108.938 77.0096 109.231C77.0096 109.511 76.9152 109.752 76.7264 109.953C76.5441 110.149 76.2804 110.246 75.9354 110.246C75.5838 110.246 75.3169 110.149 75.1346 109.953C74.9588 109.752 74.8709 109.511 74.8709 109.231ZM81.5311 114.289V122.6H79.7244V112.034H81.4334L81.5311 114.289ZM81.1014 116.916L80.3494 116.887C80.3559 116.164 80.4634 115.497 80.6717 114.885C80.88 114.267 81.173 113.73 81.5506 113.274C81.9282 112.818 82.3774 112.467 82.8983 112.219C83.4256 111.965 84.0083 111.838 84.6463 111.838C85.1671 111.838 85.6359 111.91 86.0526 112.053C86.4692 112.19 86.824 112.411 87.117 112.717C87.4165 113.023 87.6443 113.42 87.8006 113.909C87.9568 114.39 88.035 114.98 88.035 115.676V122.6H86.2186V115.657C86.2186 115.103 86.1372 114.661 85.9744 114.328C85.8117 113.99 85.574 113.746 85.2615 113.596C84.949 113.44 84.5649 113.362 84.1092 113.362C83.66 113.362 83.2498 113.456 82.8787 113.645C82.5141 113.834 82.1984 114.094 81.9315 114.426C81.671 114.758 81.466 115.139 81.3162 115.569C81.173 115.992 81.1014 116.441 81.1014 116.916ZM97.6248 112.034H99.2654V122.375C99.2654 123.306 99.0766 124.101 98.699 124.758C98.3214 125.416 97.7941 125.914 97.117 126.252C96.4464 126.597 95.6717 126.77 94.7928 126.77C94.4282 126.77 93.9985 126.711 93.5037 126.594C93.0154 126.483 92.5337 126.291 92.0584 126.018C91.5897 125.751 91.1958 125.39 90.8768 124.934L91.824 123.86C92.2667 124.394 92.729 124.765 93.2108 124.973C93.699 125.181 94.1808 125.286 94.6561 125.286C95.229 125.286 95.7238 125.178 96.1404 124.963C96.5571 124.748 96.8794 124.429 97.1072 124.006C97.3416 123.59 97.4588 123.075 97.4588 122.463V114.358L97.6248 112.034ZM90.3494 117.434V117.229C90.3494 116.422 90.4438 115.689 90.6326 115.032C90.8279 114.368 91.1046 113.798 91.4627 113.323C91.8273 112.847 92.2667 112.483 92.7811 112.229C93.2954 111.968 93.8748 111.838 94.5193 111.838C95.1834 111.838 95.7628 111.955 96.2576 112.19C96.7589 112.418 97.1821 112.753 97.5272 113.196C97.8787 113.632 98.1554 114.159 98.3572 114.778C98.5591 115.396 98.699 116.096 98.7772 116.877V117.776C98.7055 118.55 98.5656 119.247 98.3572 119.866C98.1554 120.484 97.8787 121.011 97.5272 121.448C97.1821 121.884 96.7589 122.219 96.2576 122.453C95.7563 122.681 95.1704 122.795 94.4998 122.795C93.8683 122.795 93.2954 122.662 92.7811 122.395C92.2733 122.128 91.8371 121.754 91.4725 121.272C91.1079 120.79 90.8279 120.224 90.6326 119.573C90.4438 118.915 90.3494 118.202 90.3494 117.434ZM92.1561 117.229V117.434C92.1561 117.961 92.2082 118.456 92.3123 118.918C92.423 119.381 92.589 119.787 92.8104 120.139C93.0382 120.491 93.3279 120.767 93.6795 120.969C94.0311 121.164 94.451 121.262 94.9393 121.262C95.5382 121.262 96.033 121.135 96.4236 120.881C96.8143 120.627 97.1235 120.292 97.3514 119.875C97.5858 119.459 97.768 119.006 97.8983 118.518V116.164C97.8266 115.806 97.716 115.461 97.5662 115.129C97.423 114.791 97.2342 114.491 96.9998 114.231C96.772 113.964 96.4887 113.752 96.1502 113.596C95.8117 113.44 95.4145 113.362 94.9588 113.362C94.464 113.362 94.0376 113.466 93.6795 113.674C93.3279 113.876 93.0382 114.156 92.8104 114.514C92.589 114.866 92.423 115.276 92.3123 115.745C92.2082 116.207 92.1561 116.702 92.1561 117.229ZM113.201 120.793V115.354C113.201 114.937 113.116 114.576 112.947 114.27C112.784 113.957 112.537 113.717 112.205 113.547C111.873 113.378 111.463 113.293 110.974 113.293C110.519 113.293 110.118 113.371 109.773 113.528C109.435 113.684 109.168 113.889 108.972 114.143C108.784 114.397 108.689 114.67 108.689 114.963H106.883C106.883 114.586 106.98 114.211 107.176 113.84C107.371 113.469 107.651 113.134 108.015 112.834C108.387 112.528 108.829 112.287 109.344 112.112C109.864 111.929 110.444 111.838 111.082 111.838C111.85 111.838 112.527 111.968 113.113 112.229C113.706 112.489 114.168 112.883 114.5 113.411C114.838 113.931 115.008 114.586 115.008 115.373V120.295C115.008 120.647 115.037 121.021 115.096 121.418C115.161 121.815 115.255 122.157 115.379 122.444V122.6H113.494C113.403 122.392 113.331 122.115 113.279 121.77C113.227 121.418 113.201 121.093 113.201 120.793ZM113.513 116.194L113.533 117.463H111.707C111.193 117.463 110.734 117.506 110.33 117.59C109.926 117.668 109.588 117.789 109.314 117.952C109.041 118.114 108.832 118.319 108.689 118.567C108.546 118.808 108.474 119.091 108.474 119.416C108.474 119.748 108.549 120.051 108.699 120.325C108.849 120.598 109.073 120.816 109.373 120.979C109.679 121.135 110.053 121.213 110.496 121.213C111.049 121.213 111.538 121.096 111.961 120.862C112.384 120.627 112.719 120.341 112.967 120.002C113.221 119.664 113.357 119.335 113.377 119.016L114.148 119.885C114.103 120.159 113.979 120.461 113.777 120.793C113.575 121.125 113.305 121.444 112.967 121.75C112.635 122.05 112.237 122.3 111.775 122.502C111.319 122.698 110.805 122.795 110.232 122.795C109.516 122.795 108.888 122.655 108.347 122.375C107.814 122.095 107.397 121.721 107.097 121.252C106.805 120.777 106.658 120.246 106.658 119.661C106.658 119.094 106.769 118.596 106.99 118.166C107.211 117.73 107.53 117.369 107.947 117.082C108.364 116.789 108.865 116.568 109.451 116.418C110.037 116.269 110.691 116.194 111.414 116.194H113.513ZM122.273 112.034V113.42H116.56V112.034H122.273ZM118.494 109.465H120.301V119.983C120.301 120.341 120.356 120.611 120.467 120.793C120.577 120.976 120.721 121.096 120.896 121.155C121.072 121.213 121.261 121.243 121.463 121.243C121.612 121.243 121.769 121.23 121.931 121.203C122.101 121.171 122.228 121.145 122.312 121.125L122.322 122.6C122.179 122.646 121.99 122.688 121.756 122.727C121.528 122.773 121.251 122.795 120.926 122.795C120.483 122.795 120.076 122.707 119.705 122.532C119.334 122.356 119.038 122.063 118.816 121.653C118.601 121.236 118.494 120.676 118.494 119.973V109.465ZM131.16 107.6V122.6H129.353V107.6H131.16ZM130.73 116.916L129.978 116.887C129.985 116.164 130.092 115.497 130.301 114.885C130.509 114.267 130.802 113.73 131.18 113.274C131.557 112.818 132.006 112.467 132.527 112.219C133.055 111.965 133.637 111.838 134.275 111.838C134.796 111.838 135.265 111.91 135.681 112.053C136.098 112.19 136.453 112.411 136.746 112.717C137.045 113.023 137.273 113.42 137.43 113.909C137.586 114.39 137.664 114.98 137.664 115.676V122.6H135.847V115.657C135.847 115.103 135.766 114.661 135.603 114.328C135.441 113.99 135.203 113.746 134.89 113.596C134.578 113.44 134.194 113.362 133.738 113.362C133.289 113.362 132.879 113.456 132.508 113.645C132.143 113.834 131.827 114.094 131.56 114.426C131.3 114.758 131.095 115.139 130.945 115.569C130.802 115.992 130.73 116.441 130.73 116.916ZM139.89 117.434V117.209C139.89 116.448 140.001 115.741 140.222 115.09C140.444 114.433 140.763 113.863 141.18 113.381C141.596 112.893 142.101 112.515 142.693 112.248C143.286 111.975 143.95 111.838 144.685 111.838C145.428 111.838 146.095 111.975 146.687 112.248C147.286 112.515 147.794 112.893 148.211 113.381C148.634 113.863 148.956 114.433 149.178 115.09C149.399 115.741 149.51 116.448 149.51 117.209V117.434C149.51 118.196 149.399 118.902 149.178 119.553C148.956 120.204 148.634 120.774 148.211 121.262C147.794 121.744 147.29 122.121 146.697 122.395C146.111 122.662 145.447 122.795 144.705 122.795C143.963 122.795 143.295 122.662 142.703 122.395C142.11 122.121 141.603 121.744 141.18 121.262C140.763 120.774 140.444 120.204 140.222 119.553C140.001 118.902 139.89 118.196 139.89 117.434ZM141.697 117.209V117.434C141.697 117.961 141.759 118.459 141.883 118.928C142.006 119.39 142.192 119.8 142.439 120.159C142.693 120.517 143.009 120.8 143.387 121.008C143.764 121.21 144.204 121.311 144.705 121.311C145.2 121.311 145.633 121.21 146.004 121.008C146.381 120.8 146.694 120.517 146.941 120.159C147.189 119.8 147.374 119.39 147.498 118.928C147.628 118.459 147.693 117.961 147.693 117.434V117.209C147.693 116.689 147.628 116.197 147.498 115.735C147.374 115.266 147.185 114.853 146.931 114.495C146.684 114.13 146.372 113.843 145.994 113.635C145.623 113.427 145.187 113.323 144.685 113.323C144.191 113.323 143.754 113.427 143.377 113.635C143.006 113.843 142.693 114.13 142.439 114.495C142.192 114.853 142.006 115.266 141.883 115.735C141.759 116.197 141.697 116.689 141.697 117.209ZM153.572 114.133V122.6H151.756V112.034H153.474L153.572 114.133ZM153.201 116.916L152.361 116.887C152.368 116.164 152.462 115.497 152.644 114.885C152.827 114.267 153.097 113.73 153.455 113.274C153.813 112.818 154.259 112.467 154.793 112.219C155.327 111.965 155.945 111.838 156.648 111.838C157.143 111.838 157.599 111.91 158.015 112.053C158.432 112.19 158.793 112.408 159.099 112.707C159.405 113.007 159.643 113.391 159.812 113.86C159.982 114.328 160.066 114.895 160.066 115.559V122.6H158.26V115.647C158.26 115.093 158.165 114.651 157.976 114.319C157.794 113.987 157.534 113.746 157.195 113.596C156.857 113.44 156.459 113.362 156.004 113.362C155.47 113.362 155.024 113.456 154.666 113.645C154.308 113.834 154.021 114.094 153.806 114.426C153.592 114.758 153.435 115.139 153.338 115.569C153.247 115.992 153.201 116.441 153.201 116.916ZM160.047 115.92L158.836 116.291C158.842 115.712 158.937 115.155 159.119 114.621C159.308 114.088 159.578 113.612 159.93 113.196C160.288 112.779 160.727 112.45 161.248 112.209C161.769 111.962 162.364 111.838 163.035 111.838C163.601 111.838 164.103 111.913 164.539 112.063C164.982 112.213 165.353 112.444 165.652 112.756C165.958 113.062 166.189 113.456 166.346 113.938C166.502 114.42 166.58 114.993 166.58 115.657V122.6H164.763V115.637C164.763 115.045 164.669 114.586 164.48 114.26C164.298 113.928 164.038 113.697 163.699 113.567C163.367 113.43 162.97 113.362 162.508 113.362C162.11 113.362 161.759 113.43 161.453 113.567C161.147 113.703 160.89 113.892 160.681 114.133C160.473 114.368 160.314 114.638 160.203 114.944C160.099 115.25 160.047 115.575 160.047 115.92ZM173.699 122.795C172.963 122.795 172.296 122.672 171.697 122.424C171.105 122.17 170.594 121.815 170.164 121.36C169.741 120.904 169.415 120.364 169.187 119.739C168.959 119.114 168.846 118.43 168.846 117.688V117.278C168.846 116.418 168.972 115.653 169.226 114.983C169.48 114.306 169.825 113.733 170.262 113.264C170.698 112.795 171.193 112.44 171.746 112.2C172.299 111.959 172.872 111.838 173.465 111.838C174.22 111.838 174.871 111.968 175.418 112.229C175.971 112.489 176.424 112.854 176.775 113.323C177.127 113.785 177.387 114.332 177.556 114.963C177.726 115.588 177.81 116.272 177.81 117.014V117.825H169.92V116.35H176.004V116.213C175.978 115.745 175.88 115.289 175.711 114.846C175.548 114.403 175.288 114.039 174.93 113.752C174.571 113.466 174.083 113.323 173.465 113.323C173.055 113.323 172.677 113.411 172.332 113.586C171.987 113.756 171.691 114.009 171.443 114.348C171.196 114.687 171.004 115.1 170.867 115.588C170.73 116.077 170.662 116.64 170.662 117.278V117.688C170.662 118.189 170.73 118.661 170.867 119.104C171.01 119.54 171.215 119.924 171.482 120.256C171.756 120.588 172.084 120.849 172.469 121.037C172.859 121.226 173.302 121.321 173.797 121.321C174.435 121.321 174.975 121.19 175.418 120.93C175.86 120.67 176.248 120.321 176.58 119.885L177.674 120.754C177.446 121.099 177.156 121.428 176.805 121.741C176.453 122.053 176.02 122.307 175.506 122.502C174.998 122.698 174.396 122.795 173.699 122.795ZM183.846 118.596H182.029C182.036 117.971 182.091 117.46 182.195 117.063C182.306 116.659 182.485 116.291 182.732 115.959C182.98 115.627 183.308 115.25 183.719 114.827C184.018 114.521 184.291 114.234 184.539 113.967C184.793 113.694 184.998 113.401 185.154 113.088C185.31 112.769 185.388 112.388 185.388 111.946C185.388 111.496 185.307 111.109 185.144 110.784C184.988 110.458 184.754 110.207 184.441 110.032C184.135 109.856 183.754 109.768 183.299 109.768C182.921 109.768 182.563 109.836 182.224 109.973C181.886 110.11 181.612 110.321 181.404 110.608C181.196 110.888 181.088 111.256 181.082 111.711H179.275C179.288 110.976 179.471 110.344 179.822 109.817C180.18 109.289 180.662 108.886 181.267 108.606C181.873 108.326 182.55 108.186 183.299 108.186C184.125 108.186 184.829 108.336 185.408 108.635C185.994 108.935 186.44 109.364 186.746 109.924C187.052 110.478 187.205 111.135 187.205 111.897C187.205 112.483 187.084 113.023 186.844 113.518C186.609 114.006 186.306 114.465 185.935 114.895C185.564 115.325 185.17 115.735 184.754 116.125C184.396 116.457 184.155 116.832 184.031 117.248C183.907 117.665 183.846 118.114 183.846 118.596ZM181.951 121.692C181.951 121.399 182.042 121.151 182.224 120.95C182.407 120.748 182.67 120.647 183.015 120.647C183.367 120.647 183.634 120.748 183.816 120.95C183.999 121.151 184.09 121.399 184.09 121.692C184.09 121.972 183.999 122.213 183.816 122.414C183.634 122.616 183.367 122.717 183.015 122.717C182.67 122.717 182.407 122.616 182.224 122.414C182.042 122.213 181.951 121.972 181.951 121.692Z" fill="white"/>
<ellipse cx="51.3" cy="159.4" rx="13.89" ry="12" fill="url(#paint0_linear_346_432)"/>
<rect x="76.302" y="155.4" width="277.8" height="8" rx="4" fill="white"/>
<path d="M43.892 159.4L49.448 164.2L58.708 154.6" stroke="#EDF6F9" stroke-width="2" stroke-linecap="round" stroke-linejoin="round"/>
<path d="M64.19 199.4C64.19 205.343 58.5612 210.4 51.3 210.4C44.0387 210.4 38.41 205.343 38.41 199.4C38.41 193.457 44.0387 188.4 51.3 188.4C58.5612 188.4 64.19 193.457 64.19 199.4Z" stroke="white" stroke-width="2"/>
<rect x="76.302" y="195.4" width="277.8" height="8" rx="4" fill="white"/>
<path d="M64.19 319.4C64.19 325.343 58.5612 330.4 51.3 330.4C44.0387 330.4 38.41 325.343 38.41 319.4C38.41 313.457 44.0387 308.4 51.3 308.4C58.5612 308.4 64.19 313.457 64.19 319.4Z" stroke="white" stroke-width="2"/>
<rect x="76.302" y="315.4" width="277.8" height="8" rx="4" fill="white"/>
<path d="M64.19 279.4C64.19 285.343 58.5612 290.4 51.3 290.4C44.0387 290.4 38.41 285.343 38.41 279.4C38.41 273.457 44.0387 268.4 51.3 268.4C58.5612 268.4 64.19 273.457 64.19 279.4Z" stroke="white" stroke-width="2"/>
<rect x="76.302" y="275.4" width="277.8" height="8" rx="4" fill="white"/>
<path d="M64.19 239.4C64.19 245.343 58.5612 250.4 51.3 250.4C44.0387 250.4 38.41 245.343 38.41 239.4C38.41 233.457 44.0387 228.4 51.3 228.4C58.5612 228.4 64.19 233.457 64.19 239.4Z" stroke="white" stroke-width="2"/>
<rect x="76.302" y="235.4" width="277.8" height="8" rx="4" fill="white"/>
<defs>
<filter id="filter0_d_346_432" x="0.5" y="0.5" width="472" height="409" filterUnits="userSpaceOnUse" color-interpolation-filters="sRGB">
<feFlood flood-opacity="0" result="BackgroundImageFix"/>
<feColorMatrix in="SourceAlpha" type="matrix" values="0 0 0 0 0 0 0 0 0 0 0 0 0 0 0 0 0 0 127 0" result="hardAlpha"/>
<feOffset dy="4"/>
<feGaussianBlur stdDeviation="2"/>
<feComposite in2="hardAlpha" operator="out"/>
<feColorMatrix type="matrix" values="0 0 0 0 0 0 0 0 0 0 0 0 0 0 0 0 0 0 0.25 0"/>
<feBlend mode="normal" in2="BackgroundImageFix" result="effect1_dropShadow_346_432"/>
<feBlend mode="normal" in="SourceGraphic" in2="effect1_dropShadow_346_432" result="shape"/>
</filter>
<linearGradient id="paint0_linear_346_432" x1="42.04" y1="152.6" x2="63.2795" y2="167.351" gradientUnits="userSpaceOnUse">
<stop stop-color="#20C2E6"/>
<stop offset="1" stop-color="#3F9799"/>
</linearGradient>
</defs>
</svg>
