<svg width="402" height="149" viewBox="0 0 402 149" fill="none" xmlns="http://www.w3.org/2000/svg">
<rect x="0.75" y="0.75" width="400.5" height="147.5" rx="15.25" fill="black" fill-opacity="0.25" stroke="white" stroke-width="0.5"/>
<path d="M26.8843 38.3851H28.8218L37.228 58.4164L45.6499 38.3851H47.5718L37.9624 61.1351H36.4937L26.8843 38.3851ZM26.2905 38.3851H27.9937L28.1968 51.1976V61.1351H26.2905V38.3851ZM46.4937 38.3851H48.1968V61.1351H46.2749V51.1976L46.4937 38.3851ZM60.0718 61.4476C58.9676 61.4476 57.952 61.2445 57.0249 60.8383C56.1082 60.432 55.3062 59.8591 54.6187 59.1195C53.9416 58.3799 53.4155 57.5049 53.0405 56.4945C52.6759 55.4737 52.4937 54.3591 52.4937 53.1508V52.4789C52.4937 51.1768 52.6864 49.9997 53.0718 48.9476C53.4572 47.8955 53.9884 46.9945 54.6655 46.2445C55.3426 45.4945 56.1134 44.9216 56.978 44.5258C57.853 44.1195 58.7697 43.9164 59.728 43.9164C60.8009 43.9164 61.7541 44.1091 62.5874 44.4945C63.4207 44.8695 64.1187 45.406 64.6812 46.1039C65.2541 46.7914 65.6864 47.6091 65.978 48.557C66.2697 49.4945 66.4155 50.531 66.4155 51.6664V52.807H53.6187V51.2133H64.5562V50.9945C64.5353 50.0466 64.3426 49.1612 63.978 48.3383C63.6239 47.5049 63.0926 46.8278 62.3843 46.307C61.6759 45.7862 60.7905 45.5258 59.728 45.5258C58.9364 45.5258 58.2072 45.6924 57.5405 46.0258C56.8843 46.3591 56.3166 46.8383 55.8374 47.4633C55.3687 48.0778 55.0041 48.8122 54.7437 49.6664C54.4937 50.5101 54.3687 51.4476 54.3687 52.4789V53.1508C54.3687 54.0883 54.5041 54.9633 54.7749 55.7758C55.0562 56.5778 55.452 57.2862 55.9624 57.9008C56.4832 58.5153 57.0978 58.9945 57.8062 59.3383C58.5145 59.682 59.2957 59.8539 60.1499 59.8539C61.1499 59.8539 62.0353 59.6716 62.8062 59.307C63.577 58.932 64.2697 58.3435 64.8843 57.5414L66.0562 58.4476C65.6916 58.9893 65.2332 59.4893 64.6812 59.9476C64.1395 60.406 63.4884 60.7705 62.728 61.0414C61.9676 61.3122 61.0822 61.4476 60.0718 61.4476ZM76.3374 59.8383C77.1291 59.8383 77.8687 59.6924 78.5562 59.4008C79.2541 59.0987 79.827 58.656 80.2749 58.0726C80.7332 57.4789 80.9937 56.7549 81.0562 55.9008H82.8374C82.7853 56.9737 82.4572 57.932 81.853 58.7758C81.2593 59.6091 80.478 60.2653 79.5093 60.7445C78.5509 61.2133 77.4937 61.4476 76.3374 61.4476C75.1603 61.4476 74.1187 61.2341 73.2124 60.807C72.3166 60.3799 71.5666 59.7862 70.9624 59.0258C70.3582 58.2549 69.8999 57.3591 69.5874 56.3383C69.2853 55.307 69.1343 54.1976 69.1343 53.0101V52.3539C69.1343 51.1664 69.2853 50.0622 69.5874 49.0414C69.8999 48.0101 70.3582 47.1143 70.9624 46.3539C71.5666 45.583 72.3166 44.9841 73.2124 44.557C74.1082 44.1299 75.1447 43.9164 76.3218 43.9164C77.5301 43.9164 78.6134 44.1612 79.5718 44.6508C80.5405 45.1403 81.3114 45.833 81.8843 46.7289C82.4676 47.6247 82.7853 48.6872 82.8374 49.9164H81.0562C81.0041 49.0101 80.7645 48.2289 80.3374 47.5726C79.9103 46.9164 79.3478 46.4112 78.6499 46.057C77.952 45.7028 77.1759 45.5258 76.3218 45.5258C75.3634 45.5258 74.5457 45.7133 73.8687 46.0883C73.1916 46.4528 72.6395 46.958 72.2124 47.6039C71.7957 48.2393 71.4884 48.9685 71.2905 49.7914C71.0926 50.6039 70.9937 51.458 70.9937 52.3539V53.0101C70.9937 53.9164 71.0874 54.781 71.2749 55.6039C71.4728 56.4164 71.7801 57.1403 72.1968 57.7758C72.6239 58.4112 73.1759 58.9164 73.853 59.2914C74.5405 59.656 75.3687 59.8383 76.3374 59.8383ZM88.4624 37.1351V61.1351H86.603V37.1351H88.4624ZM88.0405 51.6351L87.2124 51.1664C87.2749 50.1664 87.478 49.2289 87.8218 48.3539C88.1655 47.4789 88.6291 46.708 89.2124 46.0414C89.8062 45.3747 90.4989 44.8539 91.2905 44.4789C92.0926 44.1039 92.978 43.9164 93.9468 43.9164C94.7905 43.9164 95.5457 44.031 96.2124 44.2601C96.8791 44.4893 97.4468 44.8539 97.9155 45.3539C98.3843 45.8539 98.7384 46.4945 98.978 47.2758C99.228 48.057 99.353 49.0101 99.353 50.1351V61.1351H97.478V50.1195C97.478 48.9528 97.3166 48.0414 96.9937 47.3851C96.6707 46.7185 96.2124 46.2445 95.6187 45.9633C95.0249 45.682 94.3218 45.5414 93.5093 45.5414C92.6134 45.5414 91.827 45.7393 91.1499 46.1351C90.4832 46.5205 89.9207 47.0258 89.4624 47.6508C89.0145 48.2653 88.6707 48.9268 88.4312 49.6351C88.1916 50.333 88.0614 50.9997 88.0405 51.6351ZM114.447 58.1039V49.3851C114.447 48.583 114.28 47.8903 113.947 47.307C113.613 46.7237 113.124 46.2758 112.478 45.9633C111.832 45.6508 111.035 45.4945 110.087 45.4945C109.212 45.4945 108.431 45.6508 107.744 45.9633C107.067 46.2653 106.53 46.6768 106.134 47.1976C105.749 47.708 105.556 48.2758 105.556 48.9008L103.681 48.8851C103.681 48.2497 103.837 47.6351 104.15 47.0414C104.462 46.4476 104.905 45.9164 105.478 45.4476C106.051 44.9789 106.733 44.6091 107.525 44.3383C108.327 44.057 109.207 43.9164 110.166 43.9164C111.374 43.9164 112.436 44.1195 113.353 44.5258C114.28 44.932 115.004 45.5414 115.525 46.3539C116.046 47.1664 116.306 48.1872 116.306 49.4164V57.5883C116.306 58.1716 116.348 58.7758 116.431 59.4008C116.525 60.0258 116.655 60.5414 116.822 60.9476V61.1351H114.837C114.712 60.7601 114.613 60.2914 114.541 59.7289C114.478 59.156 114.447 58.6143 114.447 58.1039ZM114.884 51.2914L114.916 52.7289H111.244C110.285 52.7289 109.426 52.8174 108.666 52.9945C107.916 53.1612 107.28 53.4112 106.759 53.7445C106.238 54.0674 105.837 54.458 105.556 54.9164C105.285 55.3747 105.15 55.8955 105.15 56.4789C105.15 57.083 105.301 57.6351 105.603 58.1351C105.916 58.6351 106.353 59.0362 106.916 59.3383C107.488 59.6299 108.166 59.7758 108.947 59.7758C109.988 59.7758 110.905 59.583 111.697 59.1976C112.499 58.8122 113.16 58.307 113.681 57.682C114.202 57.057 114.551 56.3747 114.728 55.6351L115.541 56.7133C115.405 57.2341 115.155 57.7705 114.791 58.3226C114.436 58.8643 113.973 59.3747 113.4 59.8539C112.827 60.3226 112.15 60.708 111.369 61.0101C110.598 61.3018 109.723 61.4476 108.744 61.4476C107.639 61.4476 106.676 61.2393 105.853 60.8226C105.041 60.406 104.405 59.8383 103.947 59.1195C103.499 58.3903 103.275 57.5674 103.275 56.6508C103.275 55.8174 103.452 55.0726 103.806 54.4164C104.16 53.7497 104.671 53.1872 105.337 52.7289C106.014 52.2601 106.827 51.906 107.775 51.6664C108.733 51.4164 109.806 51.2914 110.994 51.2914H114.884ZM127.712 44.2289V45.7601H119.244V44.2289H127.712ZM122.353 39.8851H124.212V57.0258C124.212 57.807 124.317 58.3955 124.525 58.7914C124.733 59.1872 125.004 59.4528 125.337 59.5883C125.671 59.7237 126.03 59.7914 126.416 59.7914C126.697 59.7914 126.968 59.7758 127.228 59.7445C127.488 59.7028 127.723 59.6612 127.931 59.6195L128.009 61.1976C127.78 61.2705 127.483 61.3278 127.119 61.3695C126.754 61.4216 126.389 61.4476 126.025 61.4476C125.306 61.4476 124.671 61.3174 124.119 61.057C123.567 60.7862 123.134 60.3278 122.822 59.682C122.509 59.0258 122.353 58.1351 122.353 57.0101V39.8851ZM133.494 47.0258V61.1351H131.634V44.2289H133.447L133.494 47.0258ZM139.478 44.1039L139.431 45.8226C139.223 45.7914 139.02 45.7653 138.822 45.7445C138.624 45.7237 138.41 45.7133 138.181 45.7133C137.369 45.7133 136.655 45.8643 136.041 46.1664C135.436 46.458 134.926 46.8695 134.509 47.4008C134.093 47.9216 133.775 48.5362 133.556 49.2445C133.337 49.9424 133.212 50.6924 133.181 51.4945L132.494 51.7601C132.494 50.656 132.608 49.6299 132.837 48.682C133.067 47.7341 133.416 46.906 133.884 46.1976C134.363 45.4789 134.962 44.9216 135.681 44.5258C136.41 44.1195 137.264 43.9164 138.244 43.9164C138.483 43.9164 138.718 43.9372 138.947 43.9789C139.186 44.0101 139.363 44.0518 139.478 44.1039ZM141.072 52.9476V52.432C141.072 51.2028 141.249 50.0674 141.603 49.0258C141.957 47.9841 142.462 47.083 143.119 46.3226C143.785 45.5622 144.582 44.9737 145.509 44.557C146.436 44.1299 147.468 43.9164 148.603 43.9164C149.749 43.9164 150.785 44.1299 151.712 44.557C152.639 44.9737 153.436 45.5622 154.103 46.3226C154.77 47.083 155.28 47.9841 155.634 49.0258C155.988 50.0674 156.166 51.2028 156.166 52.432V52.9476C156.166 54.1768 155.988 55.3122 155.634 56.3539C155.28 57.3851 154.77 58.281 154.103 59.0414C153.447 59.8018 152.655 60.3955 151.728 60.8226C150.801 61.2393 149.77 61.4476 148.634 61.4476C147.488 61.4476 146.452 61.2393 145.525 60.8226C144.598 60.3955 143.801 59.8018 143.134 59.0414C142.468 58.281 141.957 57.3851 141.603 56.3539C141.249 55.3122 141.072 54.1768 141.072 52.9476ZM142.931 52.432V52.9476C142.931 53.8747 143.056 54.7549 143.306 55.5883C143.556 56.4112 143.921 57.1455 144.4 57.7914C144.879 58.4268 145.473 58.9268 146.181 59.2914C146.889 59.656 147.707 59.8383 148.634 59.8383C149.551 59.8383 150.358 59.656 151.056 59.2914C151.764 58.9268 152.358 58.4268 152.837 57.7914C153.317 57.1455 153.676 56.4112 153.916 55.5883C154.166 54.7549 154.291 53.8747 154.291 52.9476V52.432C154.291 51.5153 154.166 50.6455 153.916 49.8226C153.676 48.9997 153.311 48.2653 152.822 47.6195C152.343 46.9737 151.749 46.4633 151.041 46.0883C150.332 45.7133 149.52 45.5258 148.603 45.5258C147.686 45.5258 146.874 45.7133 146.166 46.0883C145.468 46.4633 144.874 46.9737 144.384 47.6195C143.905 48.2653 143.541 48.9997 143.291 49.8226C143.051 50.6455 142.931 51.5153 142.931 52.432ZM161.9 47.8383V61.1351H160.041V44.2289H161.822L161.9 47.8383ZM161.478 51.6351L160.65 51.1664C160.712 50.1664 160.916 49.2289 161.259 48.3539C161.603 47.4789 162.067 46.708 162.65 46.0414C163.244 45.3747 163.936 44.8539 164.728 44.4789C165.53 44.1039 166.416 43.9164 167.384 43.9164C168.228 43.9164 168.983 44.031 169.65 44.2601C170.317 44.4893 170.884 44.8539 171.353 45.3539C171.822 45.8539 172.176 46.4945 172.416 47.2758C172.666 48.057 172.791 49.0101 172.791 50.1351V61.1351H170.916V50.1195C170.916 48.9528 170.754 48.0414 170.431 47.3851C170.108 46.7185 169.65 46.2445 169.056 45.9633C168.462 45.682 167.759 45.5414 166.947 45.5414C166.051 45.5414 165.264 45.7393 164.587 46.1351C163.921 46.5205 163.358 47.0258 162.9 47.6508C162.452 48.2653 162.108 48.9268 161.869 49.6351C161.629 50.333 161.499 50.9997 161.478 51.6351ZM179.712 44.2289V61.1351H177.853V44.2289H179.712ZM177.525 39.3383C177.525 38.9841 177.634 38.6872 177.853 38.4476C178.082 38.1976 178.395 38.0726 178.791 38.0726C179.186 38.0726 179.499 38.1976 179.728 38.4476C179.968 38.6872 180.087 38.9841 180.087 39.3383C180.087 39.682 179.968 39.9789 179.728 40.2289C179.499 40.4685 179.186 40.5883 178.791 40.5883C178.395 40.5883 178.082 40.4685 177.853 40.2289C177.634 39.9789 177.525 39.682 177.525 39.3383ZM191.056 59.8383C191.848 59.8383 192.587 59.6924 193.275 59.4008C193.973 59.0987 194.546 58.656 194.994 58.0726C195.452 57.4789 195.712 56.7549 195.775 55.9008H197.556C197.504 56.9737 197.176 57.932 196.572 58.7758C195.978 59.6091 195.197 60.2653 194.228 60.7445C193.27 61.2133 192.212 61.4476 191.056 61.4476C189.879 61.4476 188.837 61.2341 187.931 60.807C187.035 60.3799 186.285 59.7862 185.681 59.0258C185.077 58.2549 184.619 57.3591 184.306 56.3383C184.004 55.307 183.853 54.1976 183.853 53.0101V52.3539C183.853 51.1664 184.004 50.0622 184.306 49.0414C184.619 48.0101 185.077 47.1143 185.681 46.3539C186.285 45.583 187.035 44.9841 187.931 44.557C188.827 44.1299 189.863 43.9164 191.041 43.9164C192.249 43.9164 193.332 44.1612 194.291 44.6508C195.259 45.1403 196.03 45.833 196.603 46.7289C197.186 47.6247 197.504 48.6872 197.556 49.9164H195.775C195.723 49.0101 195.483 48.2289 195.056 47.5726C194.629 46.9164 194.067 46.4112 193.369 46.057C192.671 45.7028 191.895 45.5258 191.041 45.5258C190.082 45.5258 189.264 45.7133 188.587 46.0883C187.91 46.4528 187.358 46.958 186.931 47.6039C186.514 48.2393 186.207 48.9685 186.009 49.7914C185.811 50.6039 185.712 51.458 185.712 52.3539V53.0101C185.712 53.9164 185.806 54.781 185.994 55.6039C186.192 56.4164 186.499 57.1403 186.916 57.7758C187.343 58.4112 187.895 58.9164 188.572 59.2914C189.259 59.656 190.087 59.8383 191.056 59.8383ZM211.447 56.8226C211.447 56.3643 211.332 55.9112 211.103 55.4633C210.874 55.0153 210.431 54.6039 209.775 54.2289C209.129 53.8539 208.176 53.5362 206.916 53.2758C205.978 53.0674 205.139 52.833 204.4 52.5726C203.671 52.3122 203.056 51.9997 202.556 51.6351C202.056 51.2705 201.676 50.833 201.416 50.3226C201.155 49.8122 201.025 49.208 201.025 48.5101C201.025 47.8851 201.16 47.2966 201.431 46.7445C201.712 46.182 202.108 45.6924 202.619 45.2758C203.139 44.8487 203.764 44.5153 204.494 44.2758C205.233 44.0362 206.061 43.9164 206.978 43.9164C208.28 43.9164 209.395 44.1403 210.322 44.5883C211.259 45.0258 211.973 45.6247 212.462 46.3851C212.962 47.1455 213.212 48.0049 213.212 48.9633H211.353C211.353 48.3799 211.181 47.8278 210.837 47.307C210.504 46.7862 210.009 46.3591 209.353 46.0258C208.707 45.6924 207.916 45.5258 206.978 45.5258C206.009 45.5258 205.223 45.6716 204.619 45.9633C204.014 46.2549 203.572 46.6247 203.291 47.0726C203.02 47.5205 202.884 47.9841 202.884 48.4633C202.884 48.8383 202.942 49.182 203.056 49.4945C203.181 49.7966 203.4 50.0778 203.712 50.3383C204.035 50.5987 204.494 50.8435 205.087 51.0726C205.681 51.3018 206.452 51.5258 207.4 51.7445C208.764 52.0466 209.879 52.4164 210.744 52.8539C211.619 53.281 212.264 53.8122 212.681 54.4476C213.098 55.0726 213.306 55.833 213.306 56.7289C213.306 57.4268 213.16 58.0674 212.869 58.6508C212.577 59.2237 212.155 59.7185 211.603 60.1351C211.061 60.5518 210.405 60.8747 209.634 61.1039C208.874 61.333 208.02 61.4476 207.072 61.4476C205.645 61.4476 204.436 61.2133 203.447 60.7445C202.468 60.2653 201.723 59.6403 201.212 58.8695C200.712 58.0883 200.462 57.2601 200.462 56.3851H202.322C202.384 57.2601 202.66 57.9528 203.15 58.4633C203.639 58.9633 204.238 59.3174 204.947 59.5258C205.666 59.7341 206.374 59.8383 207.072 59.8383C208.03 59.8383 208.832 59.6976 209.478 59.4164C210.124 59.1351 210.613 58.7653 210.947 58.307C211.28 57.8487 211.447 57.3539 211.447 56.8226Z" fill="#7F4BF6"/>
<rect x="23" y="84" width="320" height="7.40741" rx="3.7037" fill="white"/>
<rect x="23" y="100.296" width="280" height="7.40741" rx="3.7037" fill="white"/>
<rect x="23" y="116.593" width="160" height="7.40741" rx="3.7037" fill="#C4C4C4"/>
</svg>
