<svg width="402" height="149" viewBox="0 0 402 149" fill="none" xmlns="http://www.w3.org/2000/svg">
<rect x="0.75" y="0.75" width="400.5" height="147.5" rx="15.25" fill="black" fill-opacity="0.25" stroke="white" stroke-width="0.5"/>
<rect x="29" y="85.525" width="320" height="7.35" fill="white"/>
<rect x="29" y="101.695" width="280" height="7.35" fill="white"/>
<rect x="29" y="117.865" width="160" height="7.35" fill="#C4C4C4"/>
<path d="M38.1094 61.135H32.9531L32.9844 59.4944H38.1094C39.7448 59.4944 41.151 59.1298 42.3281 58.4006C43.5156 57.6611 44.4323 56.6402 45.0781 55.3381C45.724 54.0361 46.0469 52.5256 46.0469 50.8069V48.6819C46.0469 47.3694 45.8594 46.1819 45.4844 45.1194C45.1198 44.0569 44.5938 43.1506 43.9062 42.4006C43.2188 41.6402 42.3958 41.0569 41.4375 40.6506C40.4896 40.2444 39.4271 40.0413 38.25 40.0413H32.8594V38.385H38.25C39.6667 38.385 40.9635 38.6298 42.1406 39.1194C43.3281 39.5986 44.3542 40.2965 45.2188 41.2131C46.0938 42.1194 46.7656 43.2079 47.2344 44.4788C47.7135 45.7496 47.9531 47.1663 47.9531 48.7288V50.8069C47.9531 52.3694 47.7135 53.7861 47.2344 55.0569C46.7656 56.3277 46.0938 57.4163 45.2188 58.3225C44.3438 59.2288 43.3073 59.9267 42.1094 60.4163C40.9115 60.8954 39.5781 61.135 38.1094 61.135ZM33.8125 38.385V61.135H31.8906V38.385H33.8125ZM62.7031 58.1038V49.385C62.7031 48.5829 62.5365 47.8902 62.2031 47.3069C61.8698 46.7236 61.3802 46.2756 60.7344 45.9631C60.0885 45.6506 59.2917 45.4944 58.3438 45.4944C57.4688 45.4944 56.6875 45.6506 56 45.9631C55.3229 46.2652 54.7865 46.6767 54.3906 47.1975C54.0052 47.7079 53.8125 48.2756 53.8125 48.9006L51.9375 48.885C51.9375 48.2496 52.0938 47.635 52.4062 47.0413C52.7188 46.4475 53.1615 45.9163 53.7344 45.4475C54.3073 44.9788 54.9896 44.609 55.7812 44.3381C56.5833 44.0569 57.4635 43.9163 58.4219 43.9163C59.6302 43.9163 60.6927 44.1194 61.6094 44.5256C62.5365 44.9319 63.2604 45.5413 63.7812 46.3538C64.3021 47.1663 64.5625 48.1871 64.5625 49.4163V57.5881C64.5625 58.1715 64.6042 58.7756 64.6875 59.4006C64.7812 60.0256 64.9115 60.5413 65.0781 60.9475V61.135H63.0938C62.9688 60.76 62.8698 60.2913 62.7969 59.7288C62.7344 59.1558 62.7031 58.6142 62.7031 58.1038ZM63.1406 51.2913L63.1719 52.7288H59.5C58.5417 52.7288 57.6823 52.8173 56.9219 52.9944C56.1719 53.1611 55.5365 53.4111 55.0156 53.7444C54.4948 54.0673 54.0938 54.4579 53.8125 54.9163C53.5417 55.3746 53.4062 55.8954 53.4062 56.4788C53.4062 57.0829 53.5573 57.635 53.8594 58.135C54.1719 58.635 54.6094 59.0361 55.1719 59.3381C55.7448 59.6298 56.4219 59.7756 57.2031 59.7756C58.2448 59.7756 59.1615 59.5829 59.9531 59.1975C60.7552 58.8121 61.4167 58.3069 61.9375 57.6819C62.4583 57.0569 62.8073 56.3746 62.9844 55.635L63.7969 56.7131C63.6615 57.234 63.4115 57.7704 63.0469 58.3225C62.6927 58.8642 62.2292 59.3746 61.6562 59.8538C61.0833 60.3225 60.4062 60.7079 59.625 61.01C58.8542 61.3017 57.9792 61.4475 57 61.4475C55.8958 61.4475 54.9323 61.2392 54.1094 60.8225C53.2969 60.4058 52.6615 59.8381 52.2031 59.1194C51.7552 58.3902 51.5312 57.5673 51.5312 56.6506C51.5312 55.8173 51.7083 55.0725 52.0625 54.4163C52.4167 53.7496 52.9271 53.1871 53.5938 52.7288C54.2708 52.26 55.0833 51.9058 56.0312 51.6663C56.9896 51.4163 58.0625 51.2913 59.25 51.2913H63.1406ZM75.9688 44.2288V45.76H67.5V44.2288H75.9688ZM70.6094 39.885H72.4688V57.0256C72.4688 57.8069 72.5729 58.3954 72.7812 58.7913C72.9896 59.1871 73.2604 59.4527 73.5938 59.5881C73.9271 59.7236 74.2865 59.7913 74.6719 59.7913C74.9531 59.7913 75.224 59.7756 75.4844 59.7444C75.7448 59.7027 75.9792 59.6611 76.1875 59.6194L76.2656 61.1975C76.0365 61.2704 75.7396 61.3277 75.375 61.3694C75.0104 61.4215 74.6458 61.4475 74.2812 61.4475C73.5625 61.4475 72.9271 61.3173 72.375 61.0569C71.8229 60.7861 71.3906 60.3277 71.0781 59.6819C70.7656 59.0256 70.6094 58.135 70.6094 57.01V39.885ZM90.1719 58.1038V49.385C90.1719 48.5829 90.0052 47.8902 89.6719 47.3069C89.3385 46.7236 88.849 46.2756 88.2031 45.9631C87.5573 45.6506 86.7604 45.4944 85.8125 45.4944C84.9375 45.4944 84.1562 45.6506 83.4688 45.9631C82.7917 46.2652 82.2552 46.6767 81.8594 47.1975C81.474 47.7079 81.2812 48.2756 81.2812 48.9006L79.4062 48.885C79.4062 48.2496 79.5625 47.635 79.875 47.0413C80.1875 46.4475 80.6302 45.9163 81.2031 45.4475C81.776 44.9788 82.4583 44.609 83.25 44.3381C84.0521 44.0569 84.9323 43.9163 85.8906 43.9163C87.099 43.9163 88.1615 44.1194 89.0781 44.5256C90.0052 44.9319 90.7292 45.5413 91.25 46.3538C91.7708 47.1663 92.0312 48.1871 92.0312 49.4163V57.5881C92.0312 58.1715 92.0729 58.7756 92.1562 59.4006C92.25 60.0256 92.3802 60.5413 92.5469 60.9475V61.135H90.5625C90.4375 60.76 90.3385 60.2913 90.2656 59.7288C90.2031 59.1558 90.1719 58.6142 90.1719 58.1038ZM90.6094 51.2913L90.6406 52.7288H86.9688C86.0104 52.7288 85.151 52.8173 84.3906 52.9944C83.6406 53.1611 83.0052 53.4111 82.4844 53.7444C81.9635 54.0673 81.5625 54.4579 81.2812 54.9163C81.0104 55.3746 80.875 55.8954 80.875 56.4788C80.875 57.0829 81.026 57.635 81.3281 58.135C81.6406 58.635 82.0781 59.0361 82.6406 59.3381C83.2135 59.6298 83.8906 59.7756 84.6719 59.7756C85.7135 59.7756 86.6302 59.5829 87.4219 59.1975C88.224 58.8121 88.8854 58.3069 89.4062 57.6819C89.9271 57.0569 90.276 56.3746 90.4531 55.635L91.2656 56.7131C91.1302 57.234 90.8802 57.7704 90.5156 58.3225C90.1615 58.8642 89.6979 59.3746 89.125 59.8538C88.5521 60.3225 87.875 60.7079 87.0938 61.01C86.3229 61.3017 85.4479 61.4475 84.4688 61.4475C83.3646 61.4475 82.401 61.2392 81.5781 60.8225C80.7656 60.4058 80.1302 59.8381 79.6719 59.1194C79.224 58.3902 79 57.5673 79 56.6506C79 55.8173 79.1771 55.0725 79.5312 54.4163C79.8854 53.7496 80.3958 53.1871 81.0625 52.7288C81.7396 52.26 82.5521 51.9058 83.5 51.6663C84.4583 51.4163 85.5312 51.2913 86.7188 51.2913H90.6094ZM118.172 55.5413C118.172 54.9163 118.068 54.359 117.859 53.8694C117.651 53.3798 117.307 52.9423 116.828 52.5569C116.359 52.1611 115.724 51.7965 114.922 51.4631C114.13 51.1194 113.141 50.7808 111.953 50.4475C110.818 50.1246 109.792 49.7704 108.875 49.385C107.958 48.9996 107.172 48.5569 106.516 48.0569C105.87 47.5569 105.375 46.9736 105.031 46.3069C104.688 45.6298 104.516 44.8433 104.516 43.9475C104.516 43.0725 104.703 42.2756 105.078 41.5569C105.453 40.8381 105.979 40.2183 106.656 39.6975C107.344 39.1767 108.151 38.7756 109.078 38.4944C110.016 38.2131 111.042 38.0725 112.156 38.0725C113.75 38.0725 115.125 38.3746 116.281 38.9788C117.448 39.5829 118.349 40.4006 118.984 41.4319C119.63 42.4527 119.953 43.5986 119.953 44.8694H118.031C118.031 43.8798 117.797 42.9996 117.328 42.2288C116.87 41.4475 116.203 40.8381 115.328 40.4006C114.464 39.9527 113.406 39.7288 112.156 39.7288C110.906 39.7288 109.854 39.9215 109 40.3069C108.156 40.6819 107.516 41.1871 107.078 41.8225C106.651 42.4475 106.438 43.1454 106.438 43.9163C106.438 44.4579 106.542 44.9579 106.75 45.4163C106.958 45.8642 107.297 46.2861 107.766 46.6819C108.245 47.0673 108.875 47.4319 109.656 47.7756C110.438 48.109 111.401 48.4267 112.547 48.7288C113.755 49.0621 114.828 49.4319 115.766 49.8381C116.703 50.2444 117.495 50.7131 118.141 51.2444C118.786 51.7652 119.276 52.3746 119.609 53.0725C119.943 53.7704 120.109 54.5829 120.109 55.51C120.109 56.4371 119.911 57.2704 119.516 58.01C119.13 58.7392 118.583 59.359 117.875 59.8694C117.177 60.3798 116.349 60.7704 115.391 61.0413C114.443 61.3121 113.406 61.4475 112.281 61.4475C111.271 61.4475 110.266 61.3173 109.266 61.0569C108.266 60.7965 107.349 60.3954 106.516 59.8538C105.693 59.3017 105.031 58.5933 104.531 57.7288C104.042 56.8642 103.797 55.8329 103.797 54.635H105.703C105.703 55.5933 105.896 56.4006 106.281 57.0569C106.667 57.7131 107.177 58.2444 107.812 58.6506C108.458 59.0569 109.167 59.3538 109.938 59.5413C110.719 59.7183 111.5 59.8069 112.281 59.8069C113.479 59.8069 114.516 59.6298 115.391 59.2756C116.276 58.9215 116.958 58.4267 117.438 57.7913C117.927 57.1454 118.172 56.3954 118.172 55.5413ZM130.062 59.8381C130.854 59.8381 131.594 59.6923 132.281 59.4006C132.979 59.0986 133.552 58.6558 134 58.0725C134.458 57.4788 134.719 56.7548 134.781 55.9006H136.562C136.51 56.9736 136.182 57.9319 135.578 58.7756C134.984 59.609 134.203 60.2652 133.234 60.7444C132.276 61.2131 131.219 61.4475 130.062 61.4475C128.885 61.4475 127.844 61.234 126.938 60.8069C126.042 60.3798 125.292 59.7861 124.688 59.0256C124.083 58.2548 123.625 57.359 123.312 56.3381C123.01 55.3069 122.859 54.1975 122.859 53.01V52.3538C122.859 51.1663 123.01 50.0621 123.312 49.0413C123.625 48.01 124.083 47.1142 124.688 46.3538C125.292 45.5829 126.042 44.984 126.938 44.5569C127.833 44.1298 128.87 43.9163 130.047 43.9163C131.255 43.9163 132.339 44.1611 133.297 44.6506C134.266 45.1402 135.036 45.8329 135.609 46.7288C136.193 47.6246 136.51 48.6871 136.562 49.9163H134.781C134.729 49.01 134.49 48.2288 134.062 47.5725C133.635 46.9163 133.073 46.4111 132.375 46.0569C131.677 45.7027 130.901 45.5256 130.047 45.5256C129.089 45.5256 128.271 45.7131 127.594 46.0881C126.917 46.4527 126.365 46.9579 125.938 47.6038C125.521 48.2392 125.214 48.9683 125.016 49.7913C124.818 50.6038 124.719 51.4579 124.719 52.3538V53.01C124.719 53.9163 124.812 54.7808 125 55.6038C125.198 56.4163 125.505 57.1402 125.922 57.7756C126.349 58.4111 126.901 58.9163 127.578 59.2913C128.266 59.6558 129.094 59.8381 130.062 59.8381ZM142.406 44.2288V61.135H140.547V44.2288H142.406ZM140.219 39.3381C140.219 38.984 140.328 38.6871 140.547 38.4475C140.776 38.1975 141.089 38.0725 141.484 38.0725C141.88 38.0725 142.193 38.1975 142.422 38.4475C142.661 38.6871 142.781 38.984 142.781 39.3381C142.781 39.6819 142.661 39.9788 142.422 40.2288C142.193 40.4683 141.88 40.5881 141.484 40.5881C141.089 40.5881 140.776 40.4683 140.547 40.2288C140.328 39.9788 140.219 39.6819 140.219 39.3381ZM154.047 61.4475C152.943 61.4475 151.927 61.2444 151 60.8381C150.083 60.4319 149.281 59.859 148.594 59.1194C147.917 58.3798 147.391 57.5048 147.016 56.4944C146.651 55.4736 146.469 54.359 146.469 53.1506V52.4788C146.469 51.1767 146.661 49.9996 147.047 48.9475C147.432 47.8954 147.964 46.9944 148.641 46.2444C149.318 45.4944 150.089 44.9215 150.953 44.5256C151.828 44.1194 152.745 43.9163 153.703 43.9163C154.776 43.9163 155.729 44.109 156.562 44.4944C157.396 44.8694 158.094 45.4058 158.656 46.1038C159.229 46.7913 159.661 47.609 159.953 48.5569C160.245 49.4944 160.391 50.5308 160.391 51.6663V52.8069H147.594V51.2131H158.531V50.9944C158.51 50.0465 158.318 49.1611 157.953 48.3381C157.599 47.5048 157.068 46.8277 156.359 46.3069C155.651 45.7861 154.766 45.5256 153.703 45.5256C152.911 45.5256 152.182 45.6923 151.516 46.0256C150.859 46.359 150.292 46.8381 149.812 47.4631C149.344 48.0777 148.979 48.8121 148.719 49.6663C148.469 50.51 148.344 51.4475 148.344 52.4788V53.1506C148.344 54.0881 148.479 54.9631 148.75 55.7756C149.031 56.5777 149.427 57.2861 149.938 57.9006C150.458 58.5152 151.073 58.9944 151.781 59.3381C152.49 59.6819 153.271 59.8538 154.125 59.8538C155.125 59.8538 156.01 59.6715 156.781 59.3069C157.552 58.9319 158.245 58.3433 158.859 57.5413L160.031 58.4475C159.667 58.9892 159.208 59.4892 158.656 59.9475C158.115 60.4058 157.464 60.7704 156.703 61.0413C155.943 61.3121 155.057 61.4475 154.047 61.4475ZM165.938 47.8381V61.135H164.078V44.2288H165.859L165.938 47.8381ZM165.516 51.635L164.688 51.1663C164.75 50.1663 164.953 49.2288 165.297 48.3538C165.641 47.4788 166.104 46.7079 166.688 46.0413C167.281 45.3746 167.974 44.8538 168.766 44.4788C169.568 44.1038 170.453 43.9163 171.422 43.9163C172.266 43.9163 173.021 44.0308 173.688 44.26C174.354 44.4892 174.922 44.8538 175.391 45.3538C175.859 45.8538 176.214 46.4944 176.453 47.2756C176.703 48.0569 176.828 49.01 176.828 50.135V61.135H174.953V50.1194C174.953 48.9527 174.792 48.0413 174.469 47.385C174.146 46.7183 173.688 46.2444 173.094 45.9631C172.5 45.6819 171.797 45.5413 170.984 45.5413C170.089 45.5413 169.302 45.7392 168.625 46.135C167.958 46.5204 167.396 47.0256 166.938 47.6506C166.49 48.2652 166.146 48.9267 165.906 49.635C165.667 50.3329 165.536 50.9996 165.516 51.635ZM187.906 59.8381C188.698 59.8381 189.438 59.6923 190.125 59.4006C190.823 59.0986 191.396 58.6558 191.844 58.0725C192.302 57.4788 192.562 56.7548 192.625 55.9006H194.406C194.354 56.9736 194.026 57.9319 193.422 58.7756C192.828 59.609 192.047 60.2652 191.078 60.7444C190.12 61.2131 189.062 61.4475 187.906 61.4475C186.729 61.4475 185.688 61.234 184.781 60.8069C183.885 60.3798 183.135 59.7861 182.531 59.0256C181.927 58.2548 181.469 57.359 181.156 56.3381C180.854 55.3069 180.703 54.1975 180.703 53.01V52.3538C180.703 51.1663 180.854 50.0621 181.156 49.0413C181.469 48.01 181.927 47.1142 182.531 46.3538C183.135 45.5829 183.885 44.984 184.781 44.5569C185.677 44.1298 186.714 43.9163 187.891 43.9163C189.099 43.9163 190.182 44.1611 191.141 44.6506C192.109 45.1402 192.88 45.8329 193.453 46.7288C194.036 47.6246 194.354 48.6871 194.406 49.9163H192.625C192.573 49.01 192.333 48.2288 191.906 47.5725C191.479 46.9163 190.917 46.4111 190.219 46.0569C189.521 45.7027 188.745 45.5256 187.891 45.5256C186.932 45.5256 186.115 45.7131 185.438 46.0881C184.76 46.4527 184.208 46.9579 183.781 47.6038C183.365 48.2392 183.057 48.9683 182.859 49.7913C182.661 50.6038 182.562 51.4579 182.562 52.3538V53.01C182.562 53.9163 182.656 54.7808 182.844 55.6038C183.042 56.4163 183.349 57.1402 183.766 57.7756C184.193 58.4111 184.745 58.9163 185.422 59.2913C186.109 59.6558 186.938 59.8381 187.906 59.8381ZM204.703 61.4475C203.599 61.4475 202.583 61.2444 201.656 60.8381C200.74 60.4319 199.938 59.859 199.25 59.1194C198.573 58.3798 198.047 57.5048 197.672 56.4944C197.307 55.4736 197.125 54.359 197.125 53.1506V52.4788C197.125 51.1767 197.318 49.9996 197.703 48.9475C198.089 47.8954 198.62 46.9944 199.297 46.2444C199.974 45.4944 200.745 44.9215 201.609 44.5256C202.484 44.1194 203.401 43.9163 204.359 43.9163C205.432 43.9163 206.385 44.109 207.219 44.4944C208.052 44.8694 208.75 45.4058 209.312 46.1038C209.885 46.7913 210.318 47.609 210.609 48.5569C210.901 49.4944 211.047 50.5308 211.047 51.6663V52.8069H198.25V51.2131H209.188V50.9944C209.167 50.0465 208.974 49.1611 208.609 48.3381C208.255 47.5048 207.724 46.8277 207.016 46.3069C206.307 45.7861 205.422 45.5256 204.359 45.5256C203.568 45.5256 202.839 45.6923 202.172 46.0256C201.516 46.359 200.948 46.8381 200.469 47.4631C200 48.0777 199.635 48.8121 199.375 49.6663C199.125 50.51 199 51.4475 199 52.4788V53.1506C199 54.0881 199.135 54.9631 199.406 55.7756C199.688 56.5777 200.083 57.2861 200.594 57.9006C201.115 58.5152 201.729 58.9944 202.438 59.3381C203.146 59.6819 203.927 59.8538 204.781 59.8538C205.781 59.8538 206.667 59.6715 207.438 59.3069C208.208 58.9319 208.901 58.3433 209.516 57.5413L210.688 58.4475C210.323 58.9892 209.865 59.4892 209.312 59.9475C208.771 60.4058 208.12 60.7704 207.359 61.0413C206.599 61.3121 205.714 61.4475 204.703 61.4475Z" fill="#7F4BF6"/>
</svg>
